<?xml version="1.0" encoding="UTF-8"?>
<svg width="72px" height="52px" viewBox="0 0 72 52" version="1.1" xmlns="http://www.w3.org/2000/svg" xmlns:xlink="http://www.w3.org/1999/xlink">
    <!-- Generator: Sketch 48.2 (47327) - http://www.bohemiancoding.com/sketch -->
    <title>Group 6</title>
    <desc>Created with Sketch.</desc>
    <defs></defs>
    <g id="Page-1" stroke="none" stroke-width="1" fill="none" fill-rule="evenodd">
        <g id="Group-6" fill-rule="nonzero">
            <path d="M6.85714286,0 L65.1428571,0 C68.9299526,0 72,3.07004743 72,6.85714286 L72,44.5714286 C72,48.358524 68.9299526,51.4285714 65.1428571,51.4285714 L6.85714286,51.4285714 C3.07004743,51.4285714 0,48.358524 0,44.5714286 L0,6.85714286 C0,3.07004743 3.07004743,0 6.85714286,0 Z" id="Shape" fill="#F6F9FC"></path>
            <path d="M65.1428571,51.4285714 L6.85714286,51.4285714 C3.07004743,51.4285714 0,48.358524 0,44.5714286 L0,6.85714286 C0,3.07004743 3.07004743,0 6.85714286,0 L65.1428571,0 C68.9299526,0 72,3.07004743 72,6.85714286 L72,44.5714286 C72,48.358524 68.9299526,51.4285714 65.1428571,51.4285714 Z M68.5714286,6.85714286 C68.5714286,4.96359514 67.0364049,3.42857143 65.1428571,3.42857143 L6.85714286,3.42857143 C4.96359514,3.42857143 3.42857143,4.96359514 3.42857143,6.85714286 L3.42857143,44.5714286 C3.42857143,46.4649763 4.96359514,48 6.85714286,48 L65.1428571,48 C67.0364049,48 68.5714286,46.4649763 68.5714286,44.5714286 L68.5714286,6.85714286 Z" id="Shape" fill="#8898AA" opacity="0.2"></path>
            <path d="M36,13.7142857 C42.627417,13.7142857 48,19.0868687 48,25.7142857 C48,32.3417027 42.627417,37.7142857 36,37.7142857 C29.372583,37.7142857 24,32.3417027 24,25.7142857 C24,19.0868687 29.372583,13.7142857 36,13.7142857 Z" id="Shape" fill="#E25950"></path>
        </g>
    </g>
</svg>