<?xml version="1.0" encoding="UTF-8"?>
<svg width="72px" height="52px" viewBox="0 0 72 52" version="1.1" xmlns="http://www.w3.org/2000/svg" xmlns:xlink="http://www.w3.org/1999/xlink">
    <!-- Generator: Sketch 48.2 (47327) - http://www.bohemiancoding.com/sketch -->
    <title>Group 5</title>
    <desc>Created with Sketch.</desc>
    <defs></defs>
    <g id="Page-1" stroke="none" stroke-width="1" fill="none" fill-rule="evenodd">
        <g id="Group-5" fill-rule="nonzero">
            <polygon id="Shape" fill="#F6F9FC" points="20.5714286 0 51.4285714 0 51.4285714 51.4285714 20.5714286 51.4285714"></polygon>
            <path d="M20.5714286,51.4285714 L20.5714286,48 L51.4285714,48 L51.4285714,51.4285714 L20.5714286,51.4285714 Z M20.5714286,0 L51.4285714,0 L51.4285714,3.42857143 L20.5714286,3.42857143 L20.5714286,0 Z" id="Shape" fill="#8898AA" opacity="0.1"></path>
            <path d="M6.85714286,0 L24,0 L24,51.4285714 L6.85714286,51.4285714 C3.07004743,51.4285714 0,48.358524 0,44.5714286 L0,6.85714286 C0,3.07004743 3.07004743,0 6.85714286,0 Z" id="Shape" fill="#24B47E"></path>
            <path d="M65.1428571,51.4285714 L48,51.4285714 L48,0 L65.1428571,0 C68.9299526,0 72,3.07004743 72,6.85714286 L72,44.5714286 C72,48.358524 68.9299526,51.4285714 65.1428571,51.4285714 Z" id="Shape" fill="#E25950"></path>
        </g>
    </g>
</svg>