<?xml version="1.0" encoding="UTF-8"?>
<svg width="72px" height="52px" viewBox="0 0 72 52" version="1.1" xmlns="http://www.w3.org/2000/svg" xmlns:xlink="http://www.w3.org/1999/xlink">
    <!-- Generator: Sketch 48.2 (47327) - http://www.bohemiancoding.com/sketch -->
    <title>Group 10</title>
    <desc>Created with Sketch.</desc>
    <defs></defs>
    <g id="Page-1" stroke="none" stroke-width="1" fill="none" fill-rule="evenodd">
        <g id="Group-10" transform="translate(0.000000, 0.571429)" fill-rule="nonzero">
            <rect id="Rectangle-path" fill="#E25950" x="0" y="0" width="72" height="51.4285714" rx="8"></rect>
            <path d="M42.8571429,10.2857143 C43.8039167,10.2857143 44.5714286,11.0532261 44.5714286,12 C44.5714286,12.9467739 43.8039167,13.7142857 42.8571429,13.7142857 C41.910369,13.7142857 41.1428571,12.9467739 41.1428571,12 C41.1428571,11.0532261 41.910369,10.2857143 42.8571429,10.2857143 Z M46.2857143,17.1428571 C47.2324881,17.1428571 48,17.910369 48,18.8571429 C48,19.8039167 47.2324881,20.5714286 46.2857143,20.5714286 C45.3389404,20.5714286 44.5714286,19.8039167 44.5714286,18.8571429 C44.5714286,17.910369 45.3389404,17.1428571 46.2857143,17.1428571 Z M46.2857143,24 C47.2324881,24 48,24.7675119 48,25.7142857 C48,26.6610596 47.2324881,27.4285714 46.2857143,27.4285714 C45.3389404,27.4285714 44.5714286,26.6610596 44.5714286,25.7142857 C44.5714286,24.7675119 45.3389404,24 46.2857143,24 Z M42.8571429,30.8571429 C43.8039167,30.8571429 44.5714286,31.6246547 44.5714286,32.5714286 C44.5714286,33.5182024 43.8039167,34.2857143 42.8571429,34.2857143 C41.910369,34.2857143 41.1428571,33.5182024 41.1428571,32.5714286 C41.1428571,31.6246547 41.910369,30.8571429 42.8571429,30.8571429 Z M22.1862857,29.4445714 L13.7588571,34.2857143 L15.8468571,24.8331429 L10.1862857,17.7428571 L18.6891429,17.2697143 L22.1862857,9.94285714 L25.6868571,17.2697143 L34.1862857,17.7428571 L28.5257143,24.8331429 L30.888,34.2857143 L22.1862857,29.4445714 Z" id="Shape" fill="#FCD669"></path>
        </g>
    </g>
</svg>