<?xml version="1.0" encoding="UTF-8"?>
<svg width="72px" height="52px" viewBox="0 0 72 52" version="1.1" xmlns="http://www.w3.org/2000/svg" xmlns:xlink="http://www.w3.org/1999/xlink">
    <!-- Generator: Sketch 48.1 (47250) - http://www.bohemiancoding.com/sketch -->
    <title>Group</title>
    <desc>Created with Sketch.</desc>
    <defs></defs>
    <g id="Artboard" stroke="none" stroke-width="1" fill="none" fill-rule="evenodd" transform="translate(-417.000000, -3015.000000)">
        <g id="Group-27" transform="translate(354.000000, 2837.000000)" fill-rule="nonzero">
            <g id="Group-26">
                <g id="Group-23" transform="translate(34.000000, 153.000000)">
                    <g id="Group" transform="translate(29.000000, 25.000000)">
                        <path d="M6.84,4.28433042e-14 C5.02301511,-0.00366164689 3.27954468,0.717216948 1.99570539,2.00298683 C0.711866096,3.28875671 -0.0063918965,5.03330837 5.78585099e-14,6.85028571 L-4.22992561e-05,27.4285714 L72,27.4285714 L72,6.85028571 C71.9924782,3.07410902 68.9361611,0.0131959499 65.16,4.28433042e-14 L6.84,4.28433042e-14 Z" id="Shape" fill="#EA2C3F"></path>
                        <path d="M72,24 L72,44.5714286 C72,48.358524 68.9299526,51.4285714 65.1428571,51.4285714 L6.85714286,51.4285714 C3.07004743,51.4285714 0,48.358524 0,44.5714286 L0,24 L72,24 Z" id="Shape" fill="#F6F9FC"></path>
                        <path d="M65.1428571,51.4285714 L6.85714286,51.4285714 C3.07004743,51.4285714 0,48.358524 0,44.5714286 L0,24 L3.42857143,24 L3.42857143,44.5714286 C3.42857143,46.4649763 4.96359514,48 6.85714286,48 L65.1428571,48 C67.0364049,48 68.5714286,46.4649763 68.5714286,44.5714286 L68.5714286,24 L72,24 L72,44.5714286 C72,48.358524 68.9299526,51.4285714 65.1428571,51.4285714 Z" id="Shape" fill="#8898AA" opacity="0.2"></path>
                        <path d="M0,27.4285714 L0,6.85714286 C0,3.07004743 3.07004743,0 6.85714286,0 L65.1428571,0 C68.9299526,0 72,3.07004743 72,6.85714286 L72,27.4285714 L0,27.4285714 Z" id="Shape" fill="#E25950"></path>
                        <path d="M14.976,13.5771429 C14.9759327,18.0418216 18.5822457,21.6680506 23.0468571,21.6925714 C19.5123156,24.3241714 14.6823548,24.3702761 11.0982218,21.8066277 C7.51408867,19.2429794 5.99724412,14.6571502 7.34576422,10.4619391 C8.69428432,6.26672801 12.5990967,3.42365108 17.0057143,3.42857143 C19.1864987,3.43400781 21.3065391,4.14750609 23.0468571,5.46171429 C18.5822457,5.48623512 14.9759327,9.1124641 14.976,13.5771429 Z M36.2125714,15 C35.3818773,15.0335905 34.6141628,14.5588836 34.2730426,13.800716 C33.9319224,13.0425484 34.0858897,12.1531519 34.6620206,11.5537736 C35.2381515,10.9543953 36.1207651,10.7653839 36.8918269,11.0762614 C37.6628887,11.3871389 38.1675779,12.1354844 38.1668571,12.9668571 C38.1659104,14.0589302 37.3037531,14.9558762 36.2125714,15 Z M31.0697143,10.9302857 C29.9449493,10.9283906 29.0346831,10.0150526 29.0365772,8.89028765 C29.0384713,7.76552265 29.9518083,6.85525562 31.0765733,6.85714863 C32.2013383,6.85904164 33.1116062,7.77237786 33.1097143,8.89714286 C33.1088057,9.43727542 32.8933672,9.95492455 32.5107928,10.336213 C32.1282184,10.7175014 31.6098468,10.9311958 31.0697143,10.9302857 Z M30.1062857,19.0731429 C30.1062857,20.1979102 29.1944816,21.1097143 28.0697143,21.1097143 C26.9449469,21.1097143 26.0331429,20.1979102 26.0331429,19.0731429 C26.0331429,17.9483755 26.9449469,17.0365714 28.0697143,17.0365714 C29.1944816,17.0365714 30.1062857,17.9483755 30.1062857,19.0731429 Z M26.0365714,15 C24.9118041,15 24,14.0881959 24,12.9634286 C24,11.8386612 24.9118041,10.9268571 26.0365714,10.9268571 C27.1613388,10.9268571 28.0731429,11.8386612 28.0731429,12.9634286 C28.0731429,14.0881959 27.1613388,15 26.0365714,15 Z M34.1794286,17.0365714 C35.3023024,17.0365714 36.2125714,17.9468405 36.2125714,19.0697143 C36.2125714,20.1925881 35.3023024,21.1028571 34.1794286,21.1028571 C33.0565548,21.1028571 32.1462857,20.1925881 32.1462857,19.0697143 C32.1462857,17.9468405 33.0565548,17.0365714 34.1794286,17.0365714 Z" id="Shape" fill="#F6F9FC"></path>
                    </g>
                </g>
            </g>
        </g>
    </g>
</svg>