<?xml version="1.0" encoding="UTF-8"?>
<svg width="72px" height="52px" viewBox="0 0 72 52" version="1.1" xmlns="http://www.w3.org/2000/svg" xmlns:xlink="http://www.w3.org/1999/xlink">
    <!-- Generator: Sketch 48.2 (47327) - http://www.bohemiancoding.com/sketch -->
    <title>Group</title>
    <desc>Created with Sketch.</desc>
    <defs></defs>
    <g id="Page-1" stroke="none" stroke-width="1" fill="none" fill-rule="evenodd">
        <g id="Group" fill-rule="nonzero">
            <path d="M6.85714286,0 L65.1428571,0 C68.9299526,0 72,3.07004743 72,6.85714286 L72,44.5714286 C72,48.358524 68.9299526,51.4285714 65.1428571,51.4285714 L6.85714286,51.4285714 C3.07004743,51.4285714 0,48.358524 0,44.5714286 L0,6.85714286 C0,3.07004743 3.07004743,0 6.85714286,0 Z" id="Shape" fill="#F6F9FC"></path>
            <path d="M6.84,-5.32907009e-15 L65.16,-5.32907009e-15 C68.9297188,0.00939421515 71.9849328,3.06001387 72,6.82971429 L72,44.5988571 C71.9962147,48.3732522 68.9343965,51.4304662 65.16,51.4285714 L6.84,51.4285714 C3.07028118,51.4191772 0.0150672168,48.3685576 0,44.5988571 L0,6.82971429 C0.00378527862,3.05531924 3.06560353,-0.0018947752 6.84,-5.32907009e-15 Z M6.84,3.42857143 C4.95347217,3.43235489 3.42667543,4.96375504 3.42857143,6.85028571 L3.42857143,44.5782857 C3.4323163,46.4624832 4.95582231,47.9905827 6.84,48 L65.16,48 C67.0465278,47.9962165 68.5733246,46.4648164 68.5714286,44.5782857 L68.5714286,6.85028571 C68.5676837,4.96608821 67.0441777,3.43798871 65.16,3.42857143 L6.84,3.42857143 Z" id="Shape" fill="#DFE5EB"></path>
            <path d="M24,25.7142857 C24.0021453,20.7888754 27.0138096,16.3649375 31.5954392,14.557082 C36.1770688,12.7492265 41.3981608,13.9246187 44.7630712,17.5214296 C48.1279817,21.1182405 48.9533164,26.4059783 46.8445714,30.8571429 L25.1554286,30.8571429 C24.3923587,29.2502045 23.9976174,27.4931957 24,25.7142857 Z" id="Shape" fill="#E25950"></path>
            <path d="M48,10.9954286 L48,10.2857143 L52.1382857,10.2857143 L56.5714286,16.4331429 L56.5714286,17.1428571 L52.4331429,17.1428571 L48,10.9954286 Z M15.4285714,16.4331429 L19.8617143,10.2857143 L24,10.2857143 L24,10.9954286 L19.5668571,17.1428571 L15.4285714,17.1428571 L15.4285714,16.4331429 Z M48,40.4331429 L52.4331429,34.2857143 L56.5714286,34.2857143 L56.5714286,34.9954286 L52.1382857,41.1428571 L48,41.1428571 L48,40.4331429 Z M15.4285714,34.9954286 L15.4285714,34.2857143 L19.5668571,34.2857143 L24,40.4331429 L24,41.1428571 L19.8617143,41.1428571 L15.4285714,34.9954286 Z" id="Shape" fill-opacity="0.9" fill="#000000"></path>
            <path d="M41.7428571,23.0948571 C44.6449536,22.9639908 47.2161628,24.9507684 47.8217143,27.792 C46.8267729,33.4407303 41.9745391,37.5962994 36.24,37.7108571 C31.7452465,37.6759153 27.6108761,35.2447016 25.3954286,31.3337143 C24.49282,29.6340638 24.0141028,27.7415428 24,25.8171429 C24.0140328,23.9852009 24.4754082,22.1844247 25.344,20.5714286 C25.3508571,20.7325714 25.3577143,20.9074286 25.3577143,21.0994286 C25.3577143,23.4102857 25.3474286,28.2445714 31.1588571,28.2445714 C36.9702857,28.2445714 36.8022857,23.0948571 41.7428571,23.0948571 Z" id="Shape" fill="#43458B"></path>
        </g>
    </g>
</svg>