<?xml version="1.0" encoding="UTF-8"?>
<svg width="59px" height="61px" viewBox="0 0 59 61" version="1.1" xmlns="http://www.w3.org/2000/svg" xmlns:xlink="http://www.w3.org/1999/xlink">
    <!-- Generator: Sketch 48.2 (47327) - http://www.bohemiancoding.com/sketch -->
    <title>Group 34</title>
    <desc>Created with Sketch.</desc>
    <defs>
        <path d="M36.8922292,34.0883016 C35.411404,34.0883016 34.0844307,34.7860969 33.2574764,35.8799382 C33.2574764,35.8987975 33.2382449,35.8987975 33.2382449,35.9176568 C33.1805504,35.9742348 33.1420874,36.0496722 33.1036244,36.1062501 C33.0651615,36.1628281 33.0266985,36.2194061 32.9882355,36.2759841 C32.9113095,36.4079995 32.853615,36.5211555 32.776689,36.6531708 C32.5074481,37.2189508 32.3535961,37.8601681 32.3535961,38.539104 C32.3535961,40.9908172 34.3921347,42.9899065 36.8922292,42.9899065 C37.2191646,42.9899065 37.5461,42.9521878 37.8538039,42.8956098 C39.911574,42.4618452 41.4500937,40.6702086 41.4500937,38.539104 C41.4308622,36.0873908 39.4115551,34.0883016 36.8922292,34.0883016 Z" id="path-1"></path>
    </defs>
    <g id="Page-1" stroke="none" stroke-width="1" fill="none" fill-rule="evenodd">
        <g id="Group-34" transform="translate(-5.000000, -4.000000)">
            <g id="Group-7" transform="translate(6.000000, 5.000000)">
                <g id="Clipped">
                    <path d="M50.9504527,8.25101621 L45.3540874,12.6641 C42.1808905,15.1723912 38.0076559,15.9456238 34.0651992,14.9460792 L34.0075048,14.9272199 C32.1228182,8.87337417 26.3533694,4.46029039 19.5646513,4.46029039 C15.3914167,4.46029039 11.6220435,6.11991165 8.87193954,8.79793684 C14.3336844,3.44188645 21.8724308,0.122643945 30.1996686,0.122643945 C38.2384339,0.122643945 45.5464023,3.21557446 50.9504527,8.25101621 Z" id="SVGID_1_" stroke="#F8E71C" fill-opacity="0.4" fill="#F8E71C"></path>
                    <ellipse id="SVGID_3_" stroke="#F8E71C" fill-opacity="0.4" fill="#F8E71C" cx="52.4312779" cy="18.8122423" rx="4.55786454" ry="4.46966178"></ellipse>
                    <path d="M19.5646513,4.46029039 C15.3914167,4.46029039 11.6220435,6.11991165 8.87193954,8.79793684 C3.66020414,13.9088159 0.333155339,20.8867689 0.0639143959,28.6190952 C0.0446829,28.9774225 0.0446829,29.3357498 0.0446829,29.7129365 C0.0446829,34.4843476 1.19857266,38.991728 3.23711123,42.9710471 C4.39100099,45.2153077 5.81413169,47.2898343 7.48727184,49.1569082 C5.58335374,46.6674763 4.44869547,43.5934051 4.44869547,40.2553033 C4.44869547,36.1628281 6.14106712,32.4475397 8.89117104,29.7695145 C10.6027742,28.0910339 12.7182387,26.8085993 15.1029442,26.0919446 C16.7568529,19.415741 22.8917001,14.4557366 30.2189001,14.4557366 C31.5266418,14.4557366 32.815152,14.6254706 34.0267363,14.9083605 C32.1228182,8.87337417 26.3726009,4.46029039 19.5646513,4.46029039 Z" id="SVGID_5_" stroke="#F8E71C" fill-opacity="0.4" fill="#F8E71C"></path>
                    <path d="M40.8731488,55.0787385 C36.7191457,55.0787385 32.9497725,53.4379766 30.2189001,50.7599514 C28.4496024,49.0437522 27.1226292,46.8937883 26.3918324,44.4986531 C25.911045,44.3854971 25.4302576,44.2346224 24.9687017,44.0837477 C20.3723741,42.4807045 16.7760844,38.8031347 15.3337222,34.2014576 C15.2567962,33.9562863 15.1991017,33.7111149 15.1221757,33.4659436 C15.0067868,32.9944603 14.8913978,32.522977 14.8144718,32.0326344 C14.6990828,31.2782611 14.6413883,30.5050284 14.6413883,29.7317958 C14.6413883,28.9962818 14.6990828,28.2607679 14.7952403,27.5441132 C14.8721663,27.0537706 14.9683238,26.5822873 15.0644812,26.110804 C12.6990072,26.8274586 10.5643112,28.1098932 8.85270805,29.7883738 C6.10260413,32.466399 4.41023248,36.1816875 4.41023248,40.2741626 C4.41023248,43.6122644 5.54489074,46.705195 7.44880884,49.1757675 C8.39115214,50.2507494 9.42965293,51.2691534 10.5450797,52.1932607 C15.8145096,56.6252038 22.6801536,59.303229 30.1804371,59.303229 C37.584563,59.303229 44.3540496,56.7006411 49.604248,52.3441353 C47.161848,54.0603346 44.1425031,55.0787385 40.8731488,55.0787385 Z" id="SVGID_7_" stroke="#F8E71C" fill-opacity="0.4" fill="#F8E71C"></path>
                    <path d="M55.9891046,40.2553033 C55.9891046,43.4991084 54.9313724,46.4977423 53.1236117,48.9305962 C52.0658795,50.1564528 50.8927582,51.2880127 49.642711,52.325276 C49.642711,52.325276 49.6234795,52.325276 49.6234795,52.3441353 C47.161848,54.0603346 44.1425031,55.0787385 40.8731488,55.0787385 C36.7191457,55.0787385 32.9497725,53.4379766 30.2189001,50.7599514 C28.4496024,49.0437522 27.1226292,46.8937883 26.3918324,44.4986531 C27.6034166,44.8004024 28.8919268,44.951277 30.1996686,44.951277 C31.5266418,44.951277 32.815152,44.781543 34.0459678,44.4797937 C34.5267551,44.3666377 34.9883111,44.2157631 35.4306355,44.0648884 C35.7191079,43.9705918 36.0075803,43.8574358 36.2960528,43.7254204 C36.2383583,43.6499831 36.1806638,43.5934051 36.1229693,43.5179678 C39.5461756,42.8013131 42.1039646,39.8215386 42.1039646,36.2571248 C42.1039646,32.1646497 38.7192213,28.8265478 34.5267551,28.8265478 C32.0458922,28.8265478 29.8342701,29.9958265 28.4496024,31.8063224 C28.9688528,31.0708084 29.5650292,30.3730131 30.2189001,29.7317958 C32.9497725,27.0726299 36.7191457,25.4130087 40.8731488,25.4130087 C49.2196181,25.431868 55.9891046,32.070353 55.9891046,40.2553033 Z" id="SVGID_9_" stroke="#F8E71C" fill-opacity="0.4" fill="#F8E71C"></path>
                    <path d="M34.6421441,28.8265478 C32.1228182,28.8265478 29.8919646,30.0146858 28.4880654,31.8629004 C28.4688339,31.8817597 28.4688339,31.900619 28.4496024,31.9194784 C28.3726764,32.0326344 28.2957505,32.1457903 28.2188245,32.2589463 C28.1418985,32.353243 28.084204,32.4475397 28.0265095,32.5606957 C27.891889,32.7681483 27.7765001,32.9944603 27.6803426,33.201913 C27.2187867,34.1637389 26.9687772,35.2387209 26.9687772,36.3702808 C26.9687772,40.5381933 30.411215,43.9140138 34.6613756,43.9140138 C35.219089,43.9140138 35.7575709,43.8574358 36.2768213,43.7442798 C39.7384906,43.0087658 42.3347425,39.9912726 42.3347425,36.3702808 C42.3347425,32.2023683 38.8923047,28.8265478 34.6421441,28.8265478 Z" id="SVGID_11_" stroke="#F8E71C" fill-opacity="0.4" fill="#F8E71C"></path>
                    <mask id="mask-2" fill="white">
                        <use xlink:href="#path-1"></use>
                    </mask>
                    <use id="SVGID_13_" stroke="#F8E71C" fill-opacity="0.4" fill="#F8E71C" xlink:href="#path-1"></use>
                </g>
            </g>
            <rect id="Rectangle-11-Copy-2" x="0" y="0" width="70" height="70"></rect>
        </g>
    </g>
</svg>