<?xml version="1.0" encoding="UTF-8"?>
<svg width="49px" height="65px" viewBox="0 0 49 65" version="1.1" xmlns="http://www.w3.org/2000/svg" xmlns:xlink="http://www.w3.org/1999/xlink">
    <!-- Generator: Sketch 48.2 (47327) - http://www.bohemiancoding.com/sketch -->
    <title>Group 35</title>
    <desc>Created with Sketch.</desc>
    <defs></defs>
    <g id="Page-1" stroke="none" stroke-width="1" fill="none" fill-rule="evenodd">
        <g id="Group-35" transform="translate(-10.000000, -3.000000)">
            <g id="100-cube-flat" transform="translate(34.500000, 35.500000) rotate(-45.000000) translate(-34.500000, -35.500000) translate(12.000000, 13.000000)" fill="#F0FF67" fill-opacity="0.5" fill-rule="nonzero" stroke="#E3E44E">
                <polygon id="Fill-872" points="12 12 36 12 36 36 12 36"></polygon>
                <polygon id="Fill-876" points="0 45 33 45 33 33 0 33"></polygon>
                <polyline id="Fill-873" points="12 12 0 12 0 45 12 34.5 12 12"></polyline>
                <polyline id="Fill-874" points="34.5 12 45 0 12 0 12 12 34.5 12"></polyline>
                <polyline id="Fill-875" points="12 0 0 12 12 12 12 0"></polyline>
                <polyline id="Fill-877" points="33 10.5 33 33 45 33 45 0 33 10.5"></polyline>
                <polyline id="Fill-878" points="33 45 45 33 33 33 33 45"></polyline>
            </g>
            <rect id="Rectangle-11-Copy-3" x="0" y="0" width="70" height="70"></rect>
        </g>
    </g>
</svg>