<?xml version="1.0" encoding="UTF-8"?>
<svg width="1599px" height="570px" viewBox="0 0 1599 570" version="1.1" xmlns="http://www.w3.org/2000/svg" xmlns:xlink="http://www.w3.org/1999/xlink">
    <!-- Generator: Sketch 48.1 (47250) - http://www.bohemiancoding.com/sketch -->
    <title>Group 4</title>
    <desc>Created with Sketch.</desc>
    <defs>
        <linearGradient x1="100%" y1="50%" x2="0%" y2="50%" id="linearGradient-1">
            <stop stop-color="#646EEB" stop-opacity="0.3" offset="0%"></stop>
            <stop stop-color="#2EFFE2" offset="47.8754783%"></stop>
            <stop stop-color="#481EFF" stop-opacity="0.6" offset="100%"></stop>
        </linearGradient>
        <linearGradient x1="100%" y1="50%" x2="0%" y2="50%" id="linearGradient-2">
            <stop stop-color="#646EEB" offset="0%"></stop>
            <stop stop-color="#9DECE1" offset="100%"></stop>
        </linearGradient>
    </defs>
    <g id="Artboard" stroke="none" stroke-width="1" fill="none" fill-rule="evenodd" transform="translate(0.000000, -3479.000000)" opacity="0.86011096">
        <g id="Group-4" transform="translate(-19.000000, 3480.000000)" stroke-width="2">
            <g id="Blue" transform="translate(808.500000, 288.000000) scale(-1, 1) translate(-808.500000, -288.000000) ">
                <path d="M12,288.39801 C145.028286,288.39801 163.652246,6 280.717138,6 C397.78203,6 387.139767,148.597015 546.77371,148.597015 C706.407654,148.597015 690.44426,288.39801 810.169717,288.39801 C929.895175,288.39801 993.748752,145.800995 1078.88686,145.800995 C1164.02496,145.800995 1187.97005,285.60199 1342.28286,285.60199 C1496.59567,285.60199 1440.72379,568 1611,568" id="Lineage" stroke="url(#linearGradient-1)"></path>
                <path d="M7.99176277,297.73913 C3.57803407,297.73913 0,294.001681 0,289.391304 C0,284.780927 3.57803407,281.043478 7.99176277,281.043478 C12.4054915,281.043478 15.9835255,284.780927 15.9835255,289.391304 C15.9835255,294.001681 12.4054915,297.73913 7.99176277,297.73913 Z M274.383855,16.6956522 C269.970126,16.6956522 266.392092,12.9582031 266.392092,8.34782609 C266.392092,3.73744905 269.970126,0 274.383855,0 C278.797584,0 282.375618,3.73744905 282.375618,8.34782609 C282.375618,12.9582031 278.797584,16.6956522 274.383855,16.6956522 Z M540.775947,158.608696 C536.362219,158.608696 532.784185,154.871247 532.784185,150.26087 C532.784185,145.650493 536.362219,141.913043 540.775947,141.913043 C545.189676,141.913043 548.76771,145.650493 548.76771,150.26087 C548.76771,154.871247 545.189676,158.608696 540.775947,158.608696 Z M807.16804,297.73913 C802.754311,297.73913 799.176277,294.001681 799.176277,289.391304 C799.176277,284.780927 802.754311,281.043478 807.16804,281.043478 C811.581768,281.043478 815.159802,284.780927 815.159802,289.391304 C815.159802,294.001681 811.581768,297.73913 807.16804,297.73913 Z M1073.56013,155.826087 C1069.1464,155.826087 1065.56837,152.088638 1065.56837,147.478261 C1065.56837,142.867884 1069.1464,139.130435 1073.56013,139.130435 C1077.97386,139.130435 1081.55189,142.867884 1081.55189,147.478261 C1081.55189,152.088638 1077.97386,155.826087 1073.56013,155.826087 Z M1339.95222,294.956522 C1335.5385,294.956522 1331.96046,291.219073 1331.96046,286.608696 C1331.96046,281.998319 1335.5385,278.26087 1339.95222,278.26087 C1344.36595,278.26087 1347.94399,281.998319 1347.94399,286.608696 C1347.94399,291.219073 1344.36595,294.956522 1339.95222,294.956522 Z M1609.00824,576 C1604.59451,576 1601.01647,572.262551 1601.01647,567.652174 C1601.01647,563.041797 1604.59451,559.304348 1609.00824,559.304348 C1613.42197,559.304348 1617,563.041797 1617,567.652174 C1617,572.262551 1613.42197,576 1609.00824,576 Z" id="Dots" stroke="#70FEC3" fill="url(#linearGradient-2)"></path>
            </g>
        </g>
    </g>
</svg>