<?xml version="1.0" encoding="UTF-8"?>
<svg width="40px" height="29px" viewBox="0 0 40 29" version="1.1" xmlns="http://www.w3.org/2000/svg" xmlns:xlink="http://www.w3.org/1999/xlink">
    <!-- Generator: Sketch 48.1 (47250) - http://www.bohemiancoding.com/sketch -->
    <title>Group 7</title>
    <desc>Created with Sketch.</desc>
    <defs></defs>
    <g id="Artboard" stroke="none" stroke-width="1" fill="none" fill-rule="evenodd" transform="translate(-1341.000000, -74.000000)">
        <g id="Group-7" transform="translate(1341.000000, 74.000000)" fill-rule="nonzero">
            <rect id="Rectangle-path" fill="#E25950" x="0" y="0" width="40" height="29" rx="2"></rect>
            <path d="M23.8095238,5.8 C24.3355093,5.8 24.7619048,6.23279141 24.7619048,6.76666667 C24.7619048,7.30054192 24.3355093,7.73333333 23.8095238,7.73333333 C23.2835383,7.73333333 22.8571429,7.30054192 22.8571429,6.76666667 C22.8571429,6.23279141 23.2835383,5.8 23.8095238,5.8 Z M25.7142857,9.66666667 C26.2402712,9.66666667 26.6666667,10.0994581 26.6666667,10.6333333 C26.6666667,11.1672086 26.2402712,11.6 25.7142857,11.6 C25.1883002,11.6 24.7619048,11.1672086 24.7619048,10.6333333 C24.7619048,10.0994581 25.1883002,9.66666667 25.7142857,9.66666667 Z M25.7142857,13.5333333 C26.2402712,13.5333333 26.6666667,13.9661247 26.6666667,14.5 C26.6666667,15.0338753 26.2402712,15.4666667 25.7142857,15.4666667 C25.1883002,15.4666667 24.7619048,15.0338753 24.7619048,14.5 C24.7619048,13.9661247 25.1883002,13.5333333 25.7142857,13.5333333 Z M23.8095238,17.4 C24.3355093,17.4 24.7619048,17.8327914 24.7619048,18.3666667 C24.7619048,18.9005419 24.3355093,19.3333333 23.8095238,19.3333333 C23.2835383,19.3333333 22.8571429,18.9005419 22.8571429,18.3666667 C22.8571429,17.8327914 23.2835383,17.4 23.8095238,17.4 Z M12.3257143,16.6034667 L7.64380952,19.3333333 L8.80380952,14.0031333 L5.65904762,10.005 L10.3828571,9.7382 L12.3257143,5.60666667 L14.2704762,9.7382 L18.992381,10.005 L15.847619,14.0031333 L17.16,19.3333333 L12.3257143,16.6034667 Z" id="Shape" fill="#FCD669"></path>
        </g>
    </g>
</svg>