<?xml version="1.0" encoding="UTF-8"?>
<svg width="42px" height="42px" viewBox="0 0 42 42" version="1.1" xmlns="http://www.w3.org/2000/svg" xmlns:xlink="http://www.w3.org/1999/xlink">
    <!-- Generator: Sketch 48.1 (47250) - http://www.bohemiancoding.com/sketch -->
    <title>telegram</title>
    <desc>Created with Sketch.</desc>
    <defs></defs>
    <g id="Artboard" stroke="none" stroke-width="1" fill="none" fill-rule="evenodd" transform="translate(-780.000000, -5073.000000)">
        <g id="Group-21" transform="translate(568.000000, 5074.000000)" fill-rule="nonzero" stroke="#5DA0FF">
            <g id="Group-15" transform="translate(152.000000, 0.000000)">
                <g id="telegram" transform="translate(61.000000, 0.000000)">
                    <path d="M40,20 C40,31.05 31.05,40 20,40 C8.95,40 0,31.05 0,20 C0,8.95 8.95,0 20,0 C31.05,0 40,8.95 40,20 Z" id="path2995-1-0"></path>
                    <path d="M13.8728525,22.7133848 L8.93333333,21.1666667 C7.86666667,20.85 7.85,20.1166667 9.16666667,19.5833333 L28.4333333,12.15 C29.3166667,11.75 30.1666667,12.35 29.8333333,13.7 L26.55,29.1666667 C26.3166667,30.2666667 25.65,30.5166667 24.7333333,30.0166667 L19.7372291,26.3315237 C18.5632671,27.4731413 17.5119954,28.4948762 17.3333333,28.6666667 C17.05,28.9333333 16.8333333,29.1666667 16.3333333,29.1666667 C15.6833333,29.1666667 15.8,28.9166667 15.5666667,28.3 L13.8728525,22.7133848 Z" id="Combined-Shape" fill-opacity="0.5" fill="#5DA0FF"></path>
                </g>
            </g>
        </g>
    </g>
</svg>