<?xml version="1.0" encoding="UTF-8"?>
<svg width="42px" height="42px" viewBox="0 0 42 42" version="1.1" xmlns="http://www.w3.org/2000/svg" xmlns:xlink="http://www.w3.org/1999/xlink">
    <!-- Generator: Sketch 48.1 (47250) - http://www.bohemiancoding.com/sketch -->
    <title>reddit-1</title>
    <desc>Created with Sketch.</desc>
    <defs></defs>
    <g id="Artboard" stroke="none" stroke-width="1" fill="none" fill-rule="evenodd" transform="translate(-840.000000, -5073.000000)">
        <g id="Group-21" transform="translate(568.000000, 5074.000000)" fill-rule="nonzero">
            <g id="Group-15" transform="translate(152.000000, 0.000000)">
                <g id="reddit-1" transform="translate(121.000000, 0.000000)">
                    <g id="Group">
                        <ellipse id="Oval" stroke="#FF4300" cx="19.9966129" cy="20.0049689" rx="19.9817123" ry="19.9900621"></ellipse>
                        <path d="M33.3227213,20.0049689 C33.2631189,18.3950311 31.9121306,17.1378882 30.2978983,17.1925466 C29.5826693,17.2173913 28.9022083,17.510559 28.3856539,18.0024845 C26.1108281,16.4521739 23.4386528,15.6024845 20.6919745,15.5428571 L21.9883272,9.3068323 L26.2648011,10.2062112 C26.3840059,11.3043478 27.3674459,12.0993789 28.4651238,11.9801242 C29.5628018,11.8608696 30.3575008,10.8770186 30.2382959,9.77888199 C30.1190911,8.68074534 29.1356511,7.88571429 28.0379731,8.00496894 C27.4071808,8.06956522 26.8409578,8.43726708 26.5280451,8.98385093 L21.6307127,8.00496894 C21.2979325,7.93043478 20.9651523,8.13913043 20.8906493,8.47701863 L20.8906493,8.48695652 L19.4154893,15.4236025 C16.6340429,15.468323 13.9270995,16.3229814 11.6224725,17.8832298 C10.4502915,16.7801242 8.60261638,16.8347826 7.49997156,18.0124224 C6.39732673,19.1850932 6.45196229,21.0335404 7.62911014,22.136646 C7.8575861,22.3503106 8.12083013,22.5341615 8.41387538,22.663354 C8.3940079,22.9565217 8.3940079,23.2496894 8.41387538,23.5428571 C8.41387538,28.0198758 13.6290874,31.6621118 20.0611822,31.6621118 C26.493277,31.6621118 31.708489,28.0248447 31.708489,23.5428571 C31.7283565,23.2496894 31.7283565,22.9565217 31.708489,22.663354 C32.7117965,22.1614907 33.3425888,21.1279503 33.3227213,20.0049689 Z M13.341009,22.0074534 C13.341009,20.9043478 14.2400122,20.0049689 15.342657,20.0049689 C16.4453019,20.0049689 17.3443051,20.9043478 17.3443051,22.0074534 C17.3443051,23.110559 16.4453019,24.0099379 15.342657,24.0099379 C14.2350454,24 13.341009,23.110559 13.341009,22.0074534 Z M24.9485809,27.5031056 C23.5280565,28.5714286 21.7896525,29.1180124 20.0115135,29.0434783 C18.2333746,29.1180124 16.4949706,28.5714286 15.0744461,27.5031056 C14.8857051,27.2745342 14.9204732,26.931677 15.1489492,26.7428571 C15.3476239,26.578882 15.6307354,26.578882 15.834377,26.7428571 C17.0363592,27.6223602 18.5015855,28.0695652 19.991646,28 C21.4817066,28.0795031 22.9518997,27.6521739 24.1687825,26.7826087 C24.3873247,26.5689441 24.7449393,26.573913 24.9585146,26.7925466 C25.17209,27.0111801 25.1671231,27.3689441 24.9485809,27.5826087 L24.9485809,27.5826087 L24.9485809,27.5031056 L24.9485809,27.5031056 Z M24.5909663,24.0795031 C23.4883215,24.0795031 22.5893183,23.1801242 22.5893183,22.0770186 C22.5893183,20.973913 23.4883215,20.0745342 24.5909663,20.0745342 C25.6936112,20.0745342 26.5926144,20.973913 26.5926144,22.0770186 C26.6373162,23.1801242 25.7780479,24.1093168 24.6754031,24.1540373 L24.5760657,24.1540373 L24.5909663,24.0795031 Z" id="Shape" stroke="#FF470D" fill-opacity="0.5" fill="#FF470D"></path>
                    </g>
                </g>
            </g>
        </g>
    </g>
</svg>