<?xml version="1.0" encoding="UTF-8"?>
<svg width="590px" height="590px" viewBox="0 0 590 590" version="1.1" xmlns="http://www.w3.org/2000/svg" xmlns:xlink="http://www.w3.org/1999/xlink">
    <!-- Generator: Sketch 48.1 (47250) - http://www.bohemiancoding.com/sketch -->
    <title>Group 3</title>
    <desc>Created with Sketch.</desc>
    <defs>
        <filter x="-52.4%" y="-49.4%" width="204.8%" height="198.7%" filterUnits="objectBoundingBox" id="filter-1">
            <feGaussianBlur stdDeviation="10.968192" in="SourceGraphic"></feGaussianBlur>
        </filter>
        <path d="M59.3157872,54.8075974 C56.9348979,54.8075974 54.8013738,55.9295214 53.4717863,57.6882131 C53.4717863,57.7185353 53.4408657,57.7185353 53.4408657,57.7488576 C53.3481037,57.8398244 53.2862625,57.9611135 53.2244212,58.0520803 C53.1625799,58.1430471 53.1007386,58.2340139 53.0388973,58.3249807 C52.9152148,58.5372366 52.8224529,58.7191703 52.6987703,58.9314262 C52.2658814,59.8410943 52.0185162,60.8720515 52.0185162,61.9636532 C52.0185162,65.9055483 55.296104,69.119709 59.3157872,69.119709 C59.8414381,69.119709 60.3670889,69.0590645 60.8618192,68.9680976 C64.1703276,68.2706854 66.6439788,65.3900697 66.6439788,61.9636532 C66.6130581,58.021758 63.366391,54.8075974 59.3157872,54.8075974 Z" id="path-2"></path>
        <linearGradient x1="76.1029437%" y1="-30.4534821%" x2="36.9551808%" y2="104.450621%" id="linearGradient-4">
            <stop stop-color="#FCF53C" stop-opacity="0.55" offset="0%"></stop>
            <stop stop-color="#B3FA2C" offset="49.1948342%"></stop>
            <stop stop-color="#F8E71C" stop-opacity="0.55" offset="100%"></stop>
        </linearGradient>
    </defs>
    <g id="h5分享" stroke="none" stroke-width="1" fill="none" fill-rule="evenodd" transform="translate(-80.000000, -3272.000000)">
        <g id="Group-3" transform="translate(81.000000, 3273.000000)">
            <g id="Group">
                <path d="M319.301968,280.223856 L300.265671,299.633029 C298.020153,301.922532 294.354571,301.947555 292.078365,299.688921 C289.802158,297.430286 289.77728,293.743293 292.022798,291.453791 L320.969965,261.939616 C324.605588,258.23278 330.880835,260.822197 330.880835,266.029236 L330.880835,325.057584 C330.880835,328.273677 328.288817,330.880835 325.091401,330.880835 L267.197068,330.880835 C263.999652,330.880835 261.407634,328.273677 261.407634,325.057584 L261.407634,266.029236 C261.407634,263.056337 263.634008,260.560759 266.572387,260.239983 L294.843776,257.153658 C298.022524,256.806641 300.879088,259.117265 301.22409,262.314582 C301.569092,265.511898 299.271886,268.385147 296.093138,268.732164 L272.986501,271.254664 L272.986501,319.234333 L319.301968,319.234333 L319.301968,280.223856 Z" id="Rectangle-2" stroke="#F8E71C" stroke-width="7" fill-opacity="0.55" fill="#F8E71C" fill-rule="nonzero" filter="url(#filter-1)" transform="translate(296.144235, 294.000000) rotate(45.000000) translate(-296.144235, -294.000000) "></path>
                <g id="Group-7" transform="translate(246.914062, 246.914062)">
                    <g id="Clipped" transform="translate(0.694979, 0.265501)">
                        <path d="M81.9187747,13.266087 L72.9208686,20.3614983 C67.8189631,24.3943602 61.1091843,25.6375733 54.7704532,24.030493 L54.6776912,24.0001707 C51.6474686,14.2667219 42.3712767,7.17131065 31.4562909,7.17131065 C24.7465121,7.17131065 18.6860668,9.83967044 14.2644153,14.1454328 C23.0458769,5.53390805 35.1667677,0.197188467 48.5554046,0.197188467 C61.480232,0.197188467 73.230075,5.17004081 81.9187747,13.266087 Z" id="SVGID_1_" stroke="#F8E71C" stroke-width="2" fill-opacity="0.4" fill="#F8E71C"></path>
                        <ellipse id="SVGID_3_" stroke="#F8E71C" stroke-width="2" fill-opacity="0.4" fill="#F8E71C" cx="84.299664" cy="30.2465584" rx="7.32819158" ry="7.18637808"></ellipse>
                        <path d="M31.4562909,7.17131065 C24.7465121,7.17131065 18.6860668,9.83967044 14.2644153,14.1454328 C5.88492197,22.3627681 0.535651319,33.5820081 0.102762365,46.014139 C0.0718417251,46.5902621 0.0718417251,47.1663853 0.0718417251,47.7728307 C0.0718417251,55.4443651 1.9270801,62.6913877 5.2046679,69.0893867 C7.05990627,72.6977369 9.3480336,76.0331866 12.0381292,79.0350914 C8.97698593,75.0325517 7.15266819,70.0900216 7.15266819,64.7229798 C7.15266819,58.1430471 9.87368448,52.1695599 14.2953359,47.8637975 C17.0472729,45.1651154 20.4485432,43.103201 24.2827025,41.9509548 C26.9418775,31.216871 36.8055616,23.2421139 48.5863252,23.2421139 C50.6889287,23.2421139 52.7606116,23.5150144 54.7086119,23.9698484 C51.6474686,14.2667219 42.4021973,7.17131065 31.4562909,7.17131065 Z" id="SVGID_5_" stroke="#F8E71C" stroke-width="2" fill-opacity="0.4" fill="#F8E71C"></path>
                        <path d="M65.7163596,88.5562843 C59.0375014,88.5562843 52.9770561,85.9182468 48.5863252,81.6124844 C45.7416264,78.8531578 43.6081023,75.396419 42.433118,71.5454906 C41.660102,71.363557 40.887086,71.1209788 40.1449906,70.8784007 C32.7549578,68.3010077 26.9727982,62.388165 24.6537502,54.989531 C24.5300676,54.5953415 24.4373057,54.201152 24.3136232,53.8069625 C24.1280993,53.0489057 23.9425755,52.2908489 23.8188929,51.5024699 C23.6333691,50.2895791 23.5406072,49.046366 23.5406072,47.8031529 C23.5406072,46.6205844 23.6333691,45.4380158 23.7879723,44.2857696 C23.9116549,43.4973905 24.066258,42.7393338 24.2208612,41.981277 C20.4176226,43.1335233 16.9854316,45.1954377 14.2334947,47.8941197 C9.8118432,52.1998821 7.09082691,58.1733694 7.09082691,64.7533021 C7.09082691,70.1203439 8.91514465,75.0931963 11.976288,79.0654137 C13.4913993,80.7937831 15.1611138,82.4311857 16.9545109,83.9169769 C25.4267662,91.0427105 36.4654345,95.3484729 48.524484,95.3484729 C60.4289302,95.3484729 71.3129953,91.1639995 79.75433,84.1595551 C75.8274087,86.9188817 70.9728683,88.5562843 65.7163596,88.5562843 Z" id="SVGID_7_" stroke="#F8E71C" stroke-width="2" fill-opacity="0.4" fill="#F8E71C"></path>
                        <path d="M90.0199823,64.7229798 C90.0199823,69.9384103 88.3193471,74.7596513 85.412807,78.6712242 C83.7121718,80.6421717 81.8260128,82.461508 79.8161712,84.1292328 C79.8161712,84.1292328 79.7852506,84.1292328 79.7852506,84.1595551 C75.8274087,86.9188817 70.9728683,88.5562843 65.7163596,88.5562843 C59.0375014,88.5562843 52.9770561,85.9182468 48.5863252,81.6124844 C45.7416264,78.8531578 43.6081023,75.396419 42.433118,71.5454906 C44.3811183,72.030647 46.4528011,72.2732251 48.5554046,72.2732251 C50.6889287,72.2732251 52.7606116,72.0003247 54.7395325,71.5151684 C55.5125485,71.3332347 56.2546439,71.0906566 56.9658186,70.8480784 C57.4296282,70.6964671 57.8934378,70.5145334 58.3572474,70.3022775 C58.2644854,70.1809885 58.1717235,70.0900216 58.0789616,69.9687326 C63.5828354,68.8164863 67.6952805,64.0255676 67.6952805,58.2946585 C67.6952805,51.7147258 62.2532479,46.347684 55.5125485,46.347684 C51.523786,46.347684 47.9679125,48.2276647 45.7416264,51.1386027 C46.5764837,49.9560341 47.5350235,48.8341101 48.5863252,47.8031529 C52.9770561,43.5277128 59.0375014,40.859353 65.7163596,40.859353 C79.1359172,40.8896753 90.0199823,51.5631145 90.0199823,64.7229798 Z" id="SVGID_9_" stroke="#F8E71C" stroke-width="2" fill-opacity="0.4" fill="#F8E71C"></path>
                        <path d="M55.6980724,46.347684 C51.6474686,46.347684 48.0606744,48.257987 45.8034677,51.2295695 C45.772547,51.2598918 45.772547,51.290214 45.7416264,51.3205363 C45.6179438,51.5024699 45.4942613,51.6844035 45.3705787,51.8663372 C45.2468962,52.0179485 45.1541343,52.1695599 45.0613723,52.3514935 C44.8449279,52.6850385 44.659404,53.0489057 44.5048008,53.3824507 C43.7627055,54.9288865 43.3607372,56.6572559 43.3607372,58.4765921 C43.3607372,65.1778139 48.8955316,70.6055002 55.728993,70.6055002 C56.6256915,70.6055002 57.4914694,70.5145334 58.3263267,70.3325998 C63.8920418,69.1500313 68.0663282,64.298468 68.0663282,58.4765921 C68.0663282,51.7753704 62.5315337,46.347684 55.6980724,46.347684 Z" id="SVGID_11_" stroke="#F8E71C" stroke-width="2" fill-opacity="0.4" fill="#F8E71C"></path>
                        <mask id="mask-3" fill="white">
                            <use xlink:href="#path-2"></use>
                        </mask>
                        <use id="SVGID_13_" stroke="#F8E71C" stroke-width="2" fill-opacity="0.4" fill="#F8E71C" xlink:href="#path-2"></use>
                    </g>
                </g>
                <circle id="Oval" stroke-opacity="0.05" stroke="#F8E71C" cx="294" cy="294" r="294"></circle>
                <circle id="Oval" stroke-opacity="0.15" stroke="#F8E71C" cx="294" cy="294" r="215.332031"></circle>
                <circle id="Oval" stroke="url(#linearGradient-4)" stroke-width="3" cx="294.428847" cy="294.428847" r="69.9020471"></circle>
                <circle id="Oval" stroke-opacity="0.6" stroke="#F8E71C" stroke-width="2" cx="294.428847" cy="294.428847" r="102.494413"></circle>
                <circle id="Oval" stroke-opacity="0.3" stroke="#F8E71C" cx="294" cy="294" r="147.523339"></circle>
            </g>
        </g>
    </g>
</svg>