<?xml version="1.0" encoding="UTF-8"?>
<svg width="42px" height="42px" viewBox="0 0 42 42" version="1.1" xmlns="http://www.w3.org/2000/svg" xmlns:xlink="http://www.w3.org/1999/xlink">
    <!-- Generator: Sketch 48.1 (47250) - http://www.bohemiancoding.com/sketch -->
    <title>twitter-3</title>
    <desc>Created with Sketch.</desc>
    <defs></defs>
    <g id="Artboard" stroke="none" stroke-width="1" fill="none" fill-rule="evenodd" transform="translate(-719.000000, -5073.000000)">
        <g id="Group-21" transform="translate(568.000000, 5074.000000)" fill-rule="nonzero" stroke="#5ADCFF">
            <g id="Group-15" transform="translate(152.000000, 0.000000)">
                <g id="twitter-3">
                    <circle id="Oval" cx="19.9962034" cy="19.9851525" r="19.9661017"></circle>
                    <path d="M30,14.9065626 C29.2706325,15.2302126 28.4872359,15.449007 27.6635668,15.5473517 C28.5041955,15.0439721 29.1481874,14.2462937 29.4522524,13.2969241 C28.6537236,13.7712041 27.7798056,14.1050969 26.8684613,14.2840984 C26.1268073,13.4935609 25.0692219,13 23.8991676,13 C21.6533081,13 19.831911,14.820662 19.831911,17.0678342 C19.831911,17.3862335 19.8677729,17.6968618 19.9367139,17.9950985 C16.5558744,17.8251876 13.5585423,16.2057304 11.5522698,13.7449619 C11.2019466,14.345951 11.0014244,15.0447072 11.0014244,15.7902466 C11.0014244,17.2013582 11.7196605,18.4463917 12.8110076,19.1757067 C12.1649482,19.1556866 11.5330676,18.9813015 10.9681878,18.6671289 L10.9681878,18.7185328 C10.9681878,20.6896259 12.3701632,22.3331836 14.2312027,22.7069772 C13.8893331,22.8006487 13.5305563,22.8495848 13.159388,22.8495848 C12.8969607,22.8495848 12.6423568,22.8247492 12.3936336,22.7779659 C12.9112949,24.3935377 14.4136102,25.5695252 16.1931597,25.6027618 C14.8009505,26.6941089 13.0467091,27.3446641 11.1414067,27.3446641 C10.8132412,27.3446641 10.4889087,27.3250792 10.1705094,27.286697 C11.971009,28.4412094 14.1088101,29.1151825 16.406126,29.1151825 C23.8880887,29.1151825 27.9800234,22.916688 27.9800234,17.5412851 C27.9800234,17.3648108 27.9761379,17.1896492 27.9676318,17.0151177 C28.7648724,16.4384701 29.4530688,15.7244754 30,14.9065626 L30,14.9065626 Z" id="Shape" fill-opacity="0.5" fill="#4299FF"></path>
                </g>
            </g>
        </g>
    </g>
</svg>