<?xml version="1.0" encoding="UTF-8"?>
<svg width="358px" height="86px" viewBox="0 0 358 86" version="1.1" xmlns="http://www.w3.org/2000/svg" xmlns:xlink="http://www.w3.org/1999/xlink">
    <!-- Generator: Sketch 48.1 (47250) - http://www.bohemiancoding.com/sketch -->
    <title>Group 4</title>
    <desc>Created with Sketch.</desc>
    <defs>
        <linearGradient x1="50%" y1="0%" x2="50%" y2="100%" id="linearGradient-1">
            <stop stop-color="#7661FF" offset="0%"></stop>
            <stop stop-color="#70FEC3" offset="100%"></stop>
        </linearGradient>
        <path d="M52.6363154,48.3580728 C50.5242876,48.3580728 48.6316912,49.347707 47.4522471,50.8990255 C47.4522471,50.9257724 47.4248181,50.9257724 47.4248181,50.9525192 C47.3425313,51.0327598 47.2876735,51.1397473 47.2328156,51.2199879 C47.1779577,51.3002285 47.1230999,51.3804692 47.068242,51.4607098 C46.9585263,51.6479379 46.8762395,51.8084191 46.7665237,51.9956472 C46.3825187,52.7980533 46.1630872,53.7074469 46.1630872,54.6703343 C46.1630872,58.1474274 49.0705541,60.9825957 52.6363154,60.9825957 C53.1026073,60.9825957 53.5688992,60.929102 54.0077621,60.8488614 C56.942658,60.2336833 59.1369726,57.6927306 59.1369726,54.6703343 C59.1095437,51.1932411 56.2295057,48.3580728 52.6363154,48.3580728 Z" id="path-2"></path>
    </defs>
    <g id="h5分享" stroke="none" stroke-width="1" fill="none" fill-rule="evenodd" transform="translate(-196.000000, -74.000000)">
        <g id="Group-4" transform="translate(196.000000, 74.000000)">
            <g id="Group-7" transform="translate(136.251163, 0.000000)">
                <g id="Clipped" transform="translate(0.689210, 0.549462)">
                    <path d="M72.6868656,11.71486 L64.705046,17.9736277 C60.1792721,21.5309615 54.2271936,22.6275832 48.6042623,21.2099991 L48.5219755,21.1832522 C45.83394,12.5975067 37.6052601,6.33873899 27.9228466,6.33873899 C21.9707681,6.33873899 16.5946972,8.6924636 12.6723598,12.4905192 C20.4621768,4.89440797 31.2143186,0.186958736 43.0910467,0.186958736 C54.5563408,0.186958736 64.9793354,4.57344552 72.6868656,11.71486 Z" id="SVGID_1_" stroke="#7661FF" fill-opacity="0.4" fill="#7661FF"></path>
                    <ellipse id="SVGID_3_" stroke="#5571FF" fill-opacity="0.4" fill="#4362FF" cx="74.7988935" cy="26.6931076" rx="6.50065716" ry="6.33900834"></ellipse>
                    <path d="M27.9228466,6.33873899 C21.9707681,6.33873899 16.5946972,8.6924636 12.6723598,12.4905192 C5.2391189,19.7389212 0.49391346,29.6352633 0.109908396,40.6014803 C0.0824794626,41.1096708 0.0824794626,41.6178614 0.0824794626,42.1527988 C0.0824794626,48.9197571 1.72821545,55.3122591 4.63568237,60.9558489 C6.28141836,64.1387265 8.31115942,67.0808822 10.6974766,69.7288224 C7.98201222,66.1982355 6.36370516,61.8384956 6.36370516,57.1042995 C6.36370516,51.3002285 8.77745128,46.031095 12.6997887,42.2330394 C15.1409638,39.8525679 18.1581464,38.0337807 21.5593341,37.0173996 C23.9182224,27.5490074 32.6680521,20.5145804 43.1184756,20.5145804 C44.9836431,20.5145804 46.8213816,20.7553023 48.5494044,21.1565053 C45.83394,12.5975067 37.632689,6.33873899 27.9228466,6.33873899 Z" id="SVGID_5_" stroke="#7661FF" fill-opacity="0.4" fill="#7661FF"></path>
                    <path d="M58.3141046,78.1273398 C52.389455,78.1273398 47.0133841,75.8003621 43.1184756,72.0023064 C40.5950138,69.5683412 38.7024174,66.5191979 37.6601179,63.1223454 C36.9743946,62.9618642 36.2886713,62.7478892 35.6303769,62.5339142 C29.0748618,60.2604302 23.9456513,55.0447904 21.8884813,48.518554 C21.7787656,48.1708447 21.6964788,47.8231354 21.5867631,47.475426 C21.4221895,46.8067543 21.2576159,46.1380825 21.1479001,45.4426639 C20.9833265,44.3727891 20.9010397,43.2761674 20.9010397,42.1795457 C20.9010397,41.1364177 20.9833265,40.0932897 21.1204712,39.0769087 C21.2301869,38.38149 21.3673316,37.7128183 21.5044763,37.0441465 C18.1307175,38.0605276 15.0861059,39.8793148 12.6449309,42.2597863 C8.72259342,46.0578419 6.3088473,51.3269754 6.3088473,57.1310464 C6.3088473,61.8652425 7.92715435,66.2517292 10.6426187,69.7555693 C11.9866365,71.2801409 13.4677989,72.7244719 15.058677,74.0350686 C22.5742047,80.3205832 32.3663338,84.1186388 43.0636178,84.1186388 C53.623757,84.1186388 63.2787415,80.4275707 70.7668403,74.2490436 C67.2833658,76.6830088 62.9770233,78.1273398 58.3141046,78.1273398 Z" id="SVGID_7_" stroke="url(#linearGradient-1)" fill-opacity="0.2" fill="#70FEC3"></path>
                    <path d="M79.8732461,57.1042995 C79.8732461,61.7047612 78.3646548,65.9575137 75.786335,69.40786 C74.2777437,71.1464066 72.6045788,72.7512188 70.8216981,74.2222967 C70.8216981,74.2222967 70.7942692,74.2222967 70.7942692,74.2490436 C67.2833658,76.6830088 62.9770233,78.1273398 58.3141046,78.1273398 C52.389455,78.1273398 47.0133841,75.8003621 43.1184756,72.0023064 C40.5950138,69.5683412 38.7024174,66.5191979 37.6601179,63.1223454 C39.3881407,63.5502953 41.2258792,63.7642703 43.0910467,63.7642703 C44.9836431,63.7642703 46.8213816,63.5235484 48.5768333,63.0955985 C49.2625567,62.9351173 49.9208511,62.7211423 50.5517165,62.5071674 C50.9631505,62.373433 51.3745845,62.2129518 51.7860185,62.0257237 C51.7037317,61.9187362 51.6214449,61.8384956 51.5391581,61.7315081 C56.4215082,60.715127 60.0695563,56.4891215 60.0695563,51.4339629 C60.0695563,45.629892 55.2420641,40.8956959 49.2625567,40.8956959 C45.7242243,40.8956959 42.569897,42.5540018 40.5950138,45.1217014 C41.335595,44.0785735 42.1858919,43.0889393 43.1184756,42.1795457 C47.0133841,38.4082369 52.389455,36.0545123 58.3141046,36.0545123 C70.2182616,36.0812591 79.8732461,45.4961576 79.8732461,57.1042995 Z" id="SVGID_9_" stroke="#70FEC3" fill-opacity="0.2" fill="#70FEC3"></path>
                    <path d="M49.4271303,40.8956959 C45.83394,40.8956959 42.6521838,42.5807487 40.6498716,45.201942 C40.6224427,45.2286889 40.6224427,45.2554358 40.5950138,45.2821827 C40.485298,45.4426639 40.3755823,45.6031451 40.2658666,45.7636263 C40.1561508,45.8973607 40.073864,46.031095 39.9915772,46.1915763 C39.7995747,46.4857918 39.6350011,46.8067543 39.4978564,47.1009699 C38.8395621,48.4650603 38.4829859,49.9896319 38.4829859,51.5944441 C38.4829859,57.5055025 43.392765,62.2931924 49.4545592,62.2931924 C50.2499983,62.2931924 51.0180084,62.2129518 51.7585896,62.0524706 C56.6957976,61.0093426 60.3987035,56.7298433 60.3987035,51.5944441 C60.3987035,45.6833857 55.4889245,40.8956959 49.4271303,40.8956959 Z" id="SVGID_11_" stroke="#70FEC3" fill-opacity="0.2" fill="#70FEC3"></path>
                    <mask id="mask-3" fill="white">
                        <use xlink:href="#path-2"></use>
                    </mask>
                    <use id="SVGID_13_" stroke="#70FEC3" fill-opacity="0.2" fill="#70FEC3" xlink:href="#path-2"></use>
                </g>
            </g>
            <path d="M19.0896413,57.1761896 C19.0896413,57.6725947 18.7078485,57.9207972 18.2412128,58.0035314 C16.4595129,58.3344681 14.8050774,58.5413036 11.1992562,58.5413036 C5.98142094,58.5413036 0,55.8110755 0,45.7588722 L0,40.0088465 C0,29.873909 5.98142094,27.2264151 11.1992562,27.2264151 C13.871806,27.2264151 16.4595129,27.5987189 18.3260556,27.8882886 C18.7078485,27.9296557 19.0047984,28.0537569 19.0047984,28.4260608 L19.0047984,30.5357824 C19.0047984,30.783985 18.9199556,30.9908204 18.4957413,30.9908204 L18.3684771,30.9908204 C16.8413058,30.8667192 13.7021203,30.6185166 11.2416777,30.6185166 C7.08437799,30.6185166 3.86034968,32.9764409 3.86034968,40.0088465 L3.86034968,45.7588722 C3.86034968,52.7085436 7.08437799,55.1492021 11.2416777,55.1492021 C13.6596989,55.1492021 16.7140415,54.9423666 18.2412128,54.8182653 L18.4108985,54.8182653 C18.8775342,54.8182653 19.0896413,55.0251008 19.0896413,55.4801388 L19.0896413,57.1761896 Z M33.9795615,37.7336564 C33.9795615,38.1886944 33.8947187,38.3955299 33.0887116,38.3955299 C30.2040547,38.3955299 28.8041476,38.4782641 27.1921335,38.8092008 L27.1921335,57.4243921 C27.1921335,57.838063 26.8951835,58.2517339 26.4285478,58.2517339 L24.2226337,58.2517339 C23.7984195,58.2517339 23.4590481,57.8794301 23.4590481,57.4243921 L23.4590481,37.3199855 C23.4590481,36.8649475 23.7559981,36.5753778 24.2226337,36.3685424 C26.640655,35.3343651 29.5677333,35.2102638 33.0887116,35.2102638 C33.6401901,35.2102638 33.9795615,35.2516309 33.9795615,35.8307702 L33.9795615,37.7336564 Z M56.3356525,58.2517339 C56.3356525,64.7463674 53.4509956,66.4424181 47.6816818,66.4424181 C44.5424964,66.4424181 41.6578394,65.9873801 40.6821467,65.7391776 C40.0882467,65.5737092 39.8761396,65.3668737 39.8761396,64.8704686 L39.8761396,63.7121901 C39.8761396,63.2985191 40.215511,63.0089495 40.6397252,63.0089495 L40.7669895,63.0089495 C42.0396323,63.1744179 45.2212392,63.5053546 47.6816818,63.5053546 C51.4996101,63.5053546 52.68741,62.5952786 52.68741,58.2517339 L52.68741,58.0448985 C51.6692958,58.3344681 49.3361174,58.5413036 47.9786318,58.5413036 C43.1001679,58.5413036 38.4762326,56.8866199 38.4762326,49.9783156 L38.4762326,36.3271753 C38.4762326,35.8721373 38.8580254,35.4998335 39.3246611,35.4998335 L41.3608895,35.4998335 C41.8275251,35.4998335 42.209318,35.8721373 42.209318,36.3271753 L42.209318,49.9783156 C42.209318,54.4045944 44.4152321,55.4387717 47.9786318,55.4387717 C49.2088531,55.4387717 51.3723458,55.1905692 52.6025671,54.9009995 L52.6025671,36.3271753 C52.6025671,35.8721373 52.9843599,35.4998335 53.4509956,35.4998335 L55.487224,35.4998335 C55.9538597,35.4998335 56.3356525,35.8721373 56.3356525,36.3271753 L56.3356525,58.2517339 Z M80.0492292,48.4063661 C80.0492292,54.9009995 76.9948865,58.5413036 70.8013585,58.5413036 C69.4862943,58.5413036 67.4924873,58.3758352 65.8380517,58.0862656 L65.8380517,65.5737092 C65.8380517,65.9873801 65.4986803,66.3596839 65.0320447,66.3596839 L62.868552,66.3596839 C62.4443377,66.3596839 62.1049663,66.0287472 62.1049663,65.5737092 L62.1049663,37.11315 C62.1049663,36.5753778 62.2322306,36.3271753 62.9958163,36.1617069 C65.2441518,35.6239347 68.2136516,35.2102638 70.8013585,35.2102638 C77.1221508,35.2102638 80.0492292,39.2228717 80.0492292,45.4279355 L80.0492292,48.4063661 Z M76.3161437,48.4063661 L76.3161437,45.4279355 C76.3161437,41.0843908 75.0010796,38.2714286 70.8013585,38.2714286 C69.0196586,38.2714286 67.0258517,38.4782641 65.8380517,38.6850995 L65.8380517,55.0664679 C67.2379588,55.3146704 69.4438729,55.4801388 70.8013585,55.4801388 C74.9586581,55.4801388 76.3161437,52.8326449 76.3161437,48.4063661 Z M96.2542135,57.5898605 C96.2542135,57.9621643 96.0421064,58.2103669 95.405785,58.293101 C94.599778,58.4172023 92.8604995,58.5413036 91.3333282,58.5413036 C87.3457143,58.5413036 85.0549573,57.2589237 85.0549573,52.7912778 L85.0549573,31.4458585 C85.0549573,31.0321875 85.4367501,30.7426179 85.9033858,30.6598837 L87.9820356,30.328947 L88.0668785,30.328947 C88.4910928,30.328947 88.7880427,30.7012508 88.7880427,31.1149217 L88.7880427,35.4998335 L95.405785,35.4998335 C95.8724207,35.4998335 96.2117921,35.7894031 96.2117921,36.2444411 L96.2117921,37.6509222 C96.2117921,38.0645931 95.8724207,38.3955299 95.405785,38.3955299 L88.7880427,38.3955299 L88.7880427,52.7912778 C88.7880427,55.1905692 89.5940498,55.6042401 91.9272282,55.6042401 L95.3633636,55.6042401 C95.9572636,55.6042401 96.2542135,55.7697084 96.2542135,56.1833794 L96.2542135,57.5898605 Z M118.313355,48.4477332 C118.313355,54.5286957 115.089326,58.5413036 108.853377,58.5413036 C102.617427,58.5413036 99.4358204,54.5286957 99.4358204,48.4477332 L99.4358204,45.3038342 C99.4358204,39.2228717 102.617427,35.2102638 108.853377,35.2102638 C115.089326,35.2102638 118.313355,39.2228717 118.313355,45.3038342 L118.313355,48.4477332 Z M114.580269,48.4477332 L114.580269,45.3038342 C114.580269,41.0843908 112.840991,38.3955299 108.853377,38.3955299 C104.908184,38.3955299 103.168906,41.0430238 103.168906,45.3038342 L103.168906,48.4477332 C103.168906,52.6671766 104.865763,55.3560375 108.853377,55.3560375 C112.798569,55.3560375 114.580269,52.7085436 114.580269,48.4477332 Z" id="Crypto" fill="#FFFFFF"></path>
            <path d="M255.542454,57.0305774 C255.542454,57.4846574 255.246789,57.8561775 254.782172,57.9387375 C252.712514,58.2689775 250.347191,58.5579375 246.376828,58.5579375 C241.097089,58.5579375 235.437209,55.1729773 235.437209,45.7198565 L235.437209,40.1883361 C235.437209,30.1572953 241.350517,27.3089751 246.756969,27.3089751 C250.685095,27.3089751 253.177131,27.6392151 254.782172,27.8868951 C255.162313,27.9281751 255.500216,28.0932952 255.500216,28.5060952 L255.500216,30.5700954 C255.500216,30.8590554 255.331265,30.9828954 254.951124,30.9828954 L254.782172,30.9828954 C252.290135,30.7764954 250.347191,30.6939354 246.756969,30.6939354 C242.828844,30.6939354 239.280859,32.7579355 239.280859,40.1883361 L239.280859,45.7198565 C239.280859,52.531057 242.448702,55.2142573 246.376828,55.2142573 C248.95334,55.2142573 250.685095,55.0491372 251.698805,54.9665772 L251.698805,43.1604963 C251.698805,42.7064163 251.99447,42.3348963 252.459087,42.3348963 L254.739934,42.3348963 C255.162313,42.3348963 255.542454,42.7064163 255.542454,43.1604963 L255.542454,57.0305774 Z M278.815543,56.6590574 C278.815543,57.1956974 278.688829,57.4433774 277.928547,57.6084974 C275.689937,58.1451375 272.733284,58.5579375 270.156771,58.5579375 C263.863323,58.5579375 260.948907,54.5537772 260.948907,48.3617767 L260.948907,45.4721765 C260.948907,39.280176 263.821085,35.2760157 270.156771,35.2760157 C272.691046,35.2760157 275.689937,35.6888157 277.928547,36.2254558 C278.688829,36.3905758 278.815543,36.5969758 278.815543,37.1748959 L278.815543,56.6590574 Z M275.098607,55.0904172 L275.098607,38.743536 C273.958183,38.537136 271.930763,38.330736 270.156771,38.330736 C265.975218,38.330736 264.665843,41.0964962 264.665843,45.4721765 L264.665843,48.3617767 C264.665843,52.6961771 265.975218,55.5032173 270.156771,55.5032173 C271.930763,55.5032173 273.915945,55.2968173 275.098607,55.0904172 Z M288.699214,57.4433774 C288.699214,57.8561775 288.403548,58.2689775 287.938931,58.2689775 L285.74256,58.2689775 C285.320181,58.2689775 284.982278,57.8974575 284.982278,57.4433774 L284.982278,28.0107352 C284.982278,27.5979351 285.277943,27.2264151 285.74256,27.2264151 L287.938931,27.2264151 C288.36131,27.2264151 288.699214,27.5566551 288.699214,28.0107352 L288.699214,57.4433774 Z M311.972302,56.6590574 C311.972302,57.1956974 311.845588,57.4433774 311.085306,57.6084974 C308.846697,58.1451375 305.890043,58.5579375 303.31353,58.5579375 C297.020082,58.5579375 294.105666,54.5537772 294.105666,48.3617767 L294.105666,45.4721765 C294.105666,39.280176 296.977844,35.2760157 303.31353,35.2760157 C305.847805,35.2760157 308.846697,35.6888157 311.085306,36.2254558 C311.845588,36.3905758 311.972302,36.5969758 311.972302,37.1748959 L311.972302,56.6590574 Z M308.255366,55.0904172 L308.255366,38.743536 C307.114942,38.537136 305.087523,38.330736 303.31353,38.330736 C299.131977,38.330736 297.822602,41.0964962 297.822602,45.4721765 L297.822602,48.3617767 C297.822602,52.6961771 299.131977,55.5032173 303.31353,55.5032173 C305.087523,55.5032173 307.072704,55.2968173 308.255366,55.0904172 Z M335.794483,57.8148975 C335.794483,58.0625775 335.667769,58.2689775 335.24539,58.2689775 L332.330974,58.2689775 C332.035309,58.2689775 331.908595,58.1864175 331.739644,57.9387375 L325.699623,49.3112168 L319.659601,57.8561775 C319.406174,58.2276975 319.321698,58.2689775 318.941557,58.2689775 L316.407282,58.2689775 C316.069379,58.2689775 315.900428,58.1038575 315.900428,57.8561775 C315.900428,57.7323375 315.942665,57.5259374 316.111617,57.3195374 L323.714441,46.7105766 L316.533996,36.5969758 C316.407282,36.3905758 316.322807,36.2254558 316.322807,36.0603358 C316.322807,35.7713758 316.576234,35.5649757 316.956375,35.5649757 L319.701839,35.5649757 C320.039743,35.5649757 320.250932,35.6888157 320.546598,36.1428958 L325.910812,43.9035364 L331.317265,36.1428958 C331.697406,35.6062557 331.82412,35.5649757 332.204261,35.5649757 L334.654059,35.5649757 C334.991963,35.5649757 335.203152,35.7713758 335.203152,36.0603358 C335.203152,36.2254558 335.118676,36.3905758 334.991963,36.5969758 L327.895994,46.4628966 L335.625531,57.3195374 C335.752245,57.4846574 335.794483,57.6497774 335.794483,57.8148975 Z M357.335817,58.2689775 C357.335817,64.749938 354.463639,66.4424181 348.719283,66.4424181 C345.593678,66.4424181 342.7215,65.9883381 341.750028,65.7406581 C341.158698,65.5755381 340.947508,65.369138 340.947508,64.873778 L340.947508,63.7179379 C340.947508,63.3051379 341.285411,63.0161779 341.70779,63.0161779 L341.834504,63.0161779 C343.101641,63.1812979 346.269485,63.5115379 348.719283,63.5115379 C352.520695,63.5115379 353.703357,62.6033778 353.703357,58.2689775 L353.703357,58.0625775 C352.689647,58.3515375 350.366562,58.5579375 349.014949,58.5579375 C344.157589,58.5579375 339.553657,56.9067374 339.553657,50.0129769 L339.553657,36.3905758 C339.553657,35.9364958 339.933798,35.5649757 340.398415,35.5649757 L342.425835,35.5649757 C342.890452,35.5649757 343.270593,35.9364958 343.270593,36.3905758 L343.270593,50.0129769 C343.270593,54.4299372 345.466964,55.4619373 349.014949,55.4619373 C350.239848,55.4619373 352.393982,55.2142573 353.618881,54.9252972 L353.618881,36.3905758 C353.618881,35.9364958 353.999022,35.5649757 354.463639,35.5649757 L356.491059,35.5649757 C356.955676,35.5649757 357.335817,35.9364958 357.335817,36.3905758 L357.335817,58.2689775 Z" id="Galaxy" fill="#FFFFFF"></path>
        </g>
    </g>
</svg>