<?xml version="1.0" encoding="UTF-8"?>
<svg width="90px" height="39px" viewBox="0 0 90 39" version="1.1" xmlns="http://www.w3.org/2000/svg" xmlns:xlink="http://www.w3.org/1999/xlink">
    <!-- Generator: Sketch 48.1 (47250) - http://www.bohemiancoding.com/sketch -->
    <title>NEO-smarg-economy-logo</title>
    <desc>Created with Sketch.</desc>
    <defs>
        <polygon id="path-1" points="0.0181472274 0.0180864929 1.80564912 0.0180864929 11.3964588 15.2830865 11.4418269 15.2830865 11.4418269 0.0180864929 13.011562 0.00904324645 13.011562 17.3811197 11.0335142 17.3811197 1.63325046 2.37837382 1.58788239 2.37837382 1.58788239 17.3630332 0.0181472274 17.3811197"></polygon>
        <linearGradient x1="49.9980431%" y1="-0.158424098%" x2="49.9980431%" y2="99.8471069%" id="linearGradient-3">
            <stop stop-color="#58BF00" offset="0%"></stop>
            <stop stop-color="#58BF00" offset="22.78%"></stop>
            <stop stop-color="#58BF00" offset="41.73%"></stop>
            <stop stop-color="#29B800" offset="60.53%"></stop>
            <stop stop-color="#00AE1D" offset="77.74%"></stop>
            <stop stop-color="#00A62C" offset="99.43%"></stop>
        </linearGradient>
        <polygon id="path-4" points="0.00907361368 17.3811197 0.00907361368 0.0180864929 10.3620668 0.0180864929 9.69969303 1.46500592 1.57880878 1.46500592 1.57880878 7.68675948 10.0263431 7.68675948 9.36396932 9.13367891 1.57880878 9.13367891 1.57880878 15.9342002 10.7250114 15.9342002 10.0626376 17.3811197"></polygon>
        <path d="M15.5884683,9.06133294 C15.5884683,10.4087767 15.4160696,11.6386582 15.0803459,12.7509775 C14.7446222,13.8632968 14.2455735,14.8218809 13.5831997,15.6086434 C12.9208259,16.4044491 12.1132743,17.0193898 11.1423976,17.4444224 C10.1805946,17.8784982 9.06454007,18.0955361 7.81238138,18.0955361 C6.56022269,18.0955361 5.44416821,17.8784982 4.48236516,17.4444224 C3.52056211,17.0103466 2.70393688,16.3954058 2.04156308,15.6086434 C1.37918928,14.8128377 0.880140527,13.8632968 0.544416821,12.7509775 C0.208693115,11.6386582 0.0362944547,10.4087767 0.0362944547,9.06133294 C0.0362944547,7.71388922 0.208693115,6.4840077 0.544416821,5.37168839 C0.880140527,4.25936908 1.37918928,3.30078495 2.04156308,2.51402251 C2.70393688,1.71821682 3.51148849,1.10327607 4.48236516,0.678243483 C5.44416821,0.244167654 6.56022269,0.0271297393 7.81238138,0.0271297393 C9.06454007,0.0271297393 10.1805946,0.244167654 11.1423976,0.678243483 C12.1042007,1.11231931 12.9208259,1.72726007 13.5831997,2.51402251 C14.2455735,3.3098282 14.7446222,4.25936908 15.0803459,5.37168839 C15.4160696,6.4840077 15.5884683,7.71388922 15.5884683,9.06133294 Z M1.73306021,9.06133294 C1.73306021,10.0108738 1.84194358,10.933285 2.06878392,11.8466528 C2.29562426,12.7600207 2.6494952,13.5739129 3.13947033,14.2883294 C3.62944547,15.0027459 4.25552482,15.5724704 5.01770837,16.0065462 C5.77989192,16.440622 6.71447412,16.65766 7.80330777,16.65766 C8.88306779,16.65766 9.80857639,16.440622 10.5798336,16.0065462 C11.3510907,15.5724704 11.9862437,15.0027459 12.4762188,14.2883294 C12.966194,13.5739129 13.3200649,12.7600207 13.5469052,11.8466528 C13.7737456,10.933285 13.8826289,10.0018306 13.8826289,9.06133294 C13.8826289,8.11179206 13.7737456,7.18938092 13.5469052,6.27601303 C13.3200649,5.36264514 12.966194,4.54875296 12.4762188,3.83433649 C11.9862437,3.11992002 11.3510907,2.5501955 10.5798336,2.11611967 C9.80857639,1.68204384 8.88306779,1.46500592 7.80330777,1.46500592 C6.70540051,1.46500592 5.77989192,1.68204384 5.01770837,2.11611967 C4.25552482,2.5501955 3.62944547,3.11992002 3.13947033,3.83433649 C2.6494952,4.54875296 2.29562426,5.36264514 2.06878392,6.27601303 C1.85101719,7.18938092 1.73306021,8.11179206 1.73306021,9.06133294 Z" id="path-6"></path>
        <linearGradient x1="129.20328%" y1="110.80622%" x2="132.61672%" y2="110.80622%" id="linearGradient-8">
            <stop stop-color="#58BF00" offset="0%"></stop>
            <stop stop-color="#58BF00" offset="22.78%"></stop>
            <stop stop-color="#58BF00" offset="41.73%"></stop>
            <stop stop-color="#29B800" offset="60.53%"></stop>
            <stop stop-color="#00AE1D" offset="77.74%"></stop>
            <stop stop-color="#00A62C" offset="99.43%"></stop>
        </linearGradient>
        <linearGradient x1="0.0964705882%" y1="50.1160448%" x2="100.491765%" y2="50.1160448%" id="linearGradient-9">
            <stop stop-color="#58BF00" offset="0%"></stop>
            <stop stop-color="#58BF00" offset="22.78%"></stop>
            <stop stop-color="#58BF00" offset="41.73%"></stop>
            <stop stop-color="#29B800" offset="60.53%"></stop>
            <stop stop-color="#00AE1D" offset="77.74%"></stop>
            <stop stop-color="#00A62C" offset="99.43%"></stop>
        </linearGradient>
        <linearGradient x1="135.7199%" y1="110.75082%" x2="142.0481%" y2="110.75082%" id="linearGradient-10">
            <stop stop-color="#58BF00" offset="0%"></stop>
            <stop stop-color="#58BF00" offset="22.78%"></stop>
            <stop stop-color="#58BF00" offset="41.73%"></stop>
            <stop stop-color="#29B800" offset="60.53%"></stop>
            <stop stop-color="#00AE1D" offset="77.74%"></stop>
            <stop stop-color="#00A62C" offset="99.43%"></stop>
        </linearGradient>
        <linearGradient x1="-0.636507937%" y1="50.0155894%" x2="99.8111111%" y2="50.0155894%" id="linearGradient-11">
            <stop stop-color="#58BF00" offset="0%"></stop>
            <stop stop-color="#58BF00" offset="22.78%"></stop>
            <stop stop-color="#58BF00" offset="41.73%"></stop>
            <stop stop-color="#29B800" offset="60.53%"></stop>
            <stop stop-color="#00AE1D" offset="77.74%"></stop>
            <stop stop-color="#00A62C" offset="99.43%"></stop>
        </linearGradient>
        <linearGradient x1="145.07394%" y1="110.80622%" x2="150.07212%" y2="110.80622%" id="linearGradient-12">
            <stop stop-color="#58BF00" offset="0%"></stop>
            <stop stop-color="#58BF00" offset="22.78%"></stop>
            <stop stop-color="#58BF00" offset="41.73%"></stop>
            <stop stop-color="#29B800" offset="60.53%"></stop>
            <stop stop-color="#00AE1D" offset="77.74%"></stop>
            <stop stop-color="#00A62C" offset="99.43%"></stop>
        </linearGradient>
        <linearGradient x1="-0.1212%" y1="50.4891791%" x2="99.8424%" y2="50.4891791%" id="linearGradient-13">
            <stop stop-color="#58BF00" offset="0%"></stop>
            <stop stop-color="#58BF00" offset="22.78%"></stop>
            <stop stop-color="#58BF00" offset="41.73%"></stop>
            <stop stop-color="#29B800" offset="60.53%"></stop>
            <stop stop-color="#00AE1D" offset="77.74%"></stop>
            <stop stop-color="#00A62C" offset="99.43%"></stop>
        </linearGradient>
        <linearGradient x1="153.59636%" y1="110.75082%" x2="155.76846%" y2="110.75082%" id="linearGradient-14">
            <stop stop-color="#58BF00" offset="0%"></stop>
            <stop stop-color="#58BF00" offset="22.78%"></stop>
            <stop stop-color="#58BF00" offset="41.73%"></stop>
            <stop stop-color="#29B800" offset="60.53%"></stop>
            <stop stop-color="#00AE1D" offset="77.74%"></stop>
            <stop stop-color="#00A62C" offset="99.43%"></stop>
        </linearGradient>
        <linearGradient x1="-0.168518519%" y1="50.0157088%" x2="100.391667%" y2="50.0157088%" id="linearGradient-15">
            <stop stop-color="#58BF00" offset="0%"></stop>
            <stop stop-color="#58BF00" offset="22.78%"></stop>
            <stop stop-color="#58BF00" offset="41.73%"></stop>
            <stop stop-color="#29B800" offset="60.53%"></stop>
            <stop stop-color="#00AE1D" offset="77.74%"></stop>
            <stop stop-color="#00A62C" offset="99.43%"></stop>
        </linearGradient>
        <linearGradient x1="158.20664%" y1="109.89186%" x2="160.16824%" y2="109.89186%" id="linearGradient-16">
            <stop stop-color="#58BF00" offset="0%"></stop>
            <stop stop-color="#58BF00" offset="22.78%"></stop>
            <stop stop-color="#58BF00" offset="41.73%"></stop>
            <stop stop-color="#29B800" offset="60.53%"></stop>
            <stop stop-color="#00AE1D" offset="77.74%"></stop>
            <stop stop-color="#00A62C" offset="99.43%"></stop>
        </linearGradient>
        <linearGradient x1="0.33877551%" y1="50.0268012%" x2="100.420408%" y2="50.0268012%" id="linearGradient-17">
            <stop stop-color="#58BF00" offset="0%"></stop>
            <stop stop-color="#58BF00" offset="22.78%"></stop>
            <stop stop-color="#58BF00" offset="41.73%"></stop>
            <stop stop-color="#29B800" offset="60.53%"></stop>
            <stop stop-color="#00AE1D" offset="77.74%"></stop>
            <stop stop-color="#00A62C" offset="99.43%"></stop>
        </linearGradient>
        <linearGradient x1="167.60488%" y1="110.80622%" x2="172.54782%" y2="110.80622%" id="linearGradient-18">
            <stop stop-color="#58BF00" offset="0%"></stop>
            <stop stop-color="#58BF00" offset="22.78%"></stop>
            <stop stop-color="#58BF00" offset="41.73%"></stop>
            <stop stop-color="#29B800" offset="60.53%"></stop>
            <stop stop-color="#00AE1D" offset="77.74%"></stop>
            <stop stop-color="#00A62C" offset="99.43%"></stop>
        </linearGradient>
        <linearGradient x1="0.503643725%" y1="50.1160448%" x2="100.563158%" y2="50.1160448%" id="linearGradient-19">
            <stop stop-color="#58BF00" offset="0%"></stop>
            <stop stop-color="#58BF00" offset="22.78%"></stop>
            <stop stop-color="#58BF00" offset="41.73%"></stop>
            <stop stop-color="#29B800" offset="60.53%"></stop>
            <stop stop-color="#00AE1D" offset="77.74%"></stop>
            <stop stop-color="#00A62C" offset="99.43%"></stop>
        </linearGradient>
        <linearGradient x1="175.07468%" y1="110.80622%" x2="179.56312%" y2="110.80622%" id="linearGradient-20">
            <stop stop-color="#58BF00" offset="0%"></stop>
            <stop stop-color="#58BF00" offset="22.78%"></stop>
            <stop stop-color="#58BF00" offset="41.73%"></stop>
            <stop stop-color="#29B800" offset="60.53%"></stop>
            <stop stop-color="#00AE1D" offset="77.74%"></stop>
            <stop stop-color="#00A62C" offset="99.43%"></stop>
        </linearGradient>
        <linearGradient x1="-0.11875%" y1="50.3037453%" x2="100.069643%" y2="50.3037453%" id="linearGradient-21">
            <stop stop-color="#58BF00" offset="0%"></stop>
            <stop stop-color="#58BF00" offset="22.78%"></stop>
            <stop stop-color="#58BF00" offset="41.73%"></stop>
            <stop stop-color="#29B800" offset="60.53%"></stop>
            <stop stop-color="#00AE1D" offset="77.74%"></stop>
            <stop stop-color="#00A62C" offset="99.43%"></stop>
        </linearGradient>
        <linearGradient x1="182.1784%" y1="110.80622%" x2="187.53132%" y2="110.80622%" id="linearGradient-22">
            <stop stop-color="#58BF00" offset="0%"></stop>
            <stop stop-color="#58BF00" offset="22.78%"></stop>
            <stop stop-color="#58BF00" offset="41.73%"></stop>
            <stop stop-color="#29B800" offset="60.53%"></stop>
            <stop stop-color="#00AE1D" offset="77.74%"></stop>
            <stop stop-color="#00A62C" offset="99.43%"></stop>
        </linearGradient>
        <linearGradient x1="0.340740741%" y1="50.1169173%" x2="99.4688889%" y2="50.1169173%" id="linearGradient-23">
            <stop stop-color="#58BF00" offset="0%"></stop>
            <stop stop-color="#58BF00" offset="22.78%"></stop>
            <stop stop-color="#58BF00" offset="41.73%"></stop>
            <stop stop-color="#29B800" offset="60.53%"></stop>
            <stop stop-color="#00AE1D" offset="77.74%"></stop>
            <stop stop-color="#00A62C" offset="99.43%"></stop>
        </linearGradient>
        <linearGradient x1="190.55688%" y1="110.75082%" x2="194.28058%" y2="110.75082%" id="linearGradient-24">
            <stop stop-color="#58BF00" offset="0%"></stop>
            <stop stop-color="#58BF00" offset="22.78%"></stop>
            <stop stop-color="#58BF00" offset="41.73%"></stop>
            <stop stop-color="#29B800" offset="60.53%"></stop>
            <stop stop-color="#00AE1D" offset="77.74%"></stop>
            <stop stop-color="#00A62C" offset="99.43%"></stop>
        </linearGradient>
        <linearGradient x1="-0.0834224599%" y1="49.8248092%" x2="99.4807487%" y2="49.8248092%" id="linearGradient-25">
            <stop stop-color="#58BF00" offset="0%"></stop>
            <stop stop-color="#58BF00" offset="22.78%"></stop>
            <stop stop-color="#58BF00" offset="41.73%"></stop>
            <stop stop-color="#29B800" offset="60.53%"></stop>
            <stop stop-color="#00AE1D" offset="77.74%"></stop>
            <stop stop-color="#00A62C" offset="99.43%"></stop>
        </linearGradient>
        <linearGradient x1="197.3064%" y1="110.80622%" x2="202.65934%" y2="110.80622%" id="linearGradient-26">
            <stop stop-color="#58BF00" offset="0%"></stop>
            <stop stop-color="#58BF00" offset="22.78%"></stop>
            <stop stop-color="#58BF00" offset="41.73%"></stop>
            <stop stop-color="#29B800" offset="60.53%"></stop>
            <stop stop-color="#00AE1D" offset="77.74%"></stop>
            <stop stop-color="#00A62C" offset="99.43%"></stop>
        </linearGradient>
        <linearGradient x1="0.488888889%" y1="50.1169173%" x2="99.6174074%" y2="50.1169173%" id="linearGradient-27">
            <stop stop-color="#58BF00" offset="0%"></stop>
            <stop stop-color="#58BF00" offset="22.78%"></stop>
            <stop stop-color="#58BF00" offset="41.73%"></stop>
            <stop stop-color="#29B800" offset="60.53%"></stop>
            <stop stop-color="#00AE1D" offset="77.74%"></stop>
            <stop stop-color="#00A62C" offset="99.43%"></stop>
        </linearGradient>
        <linearGradient x1="205.68488%" y1="110.75082%" x2="212.01308%" y2="110.75082%" id="linearGradient-28">
            <stop stop-color="#58BF00" offset="0%"></stop>
            <stop stop-color="#58BF00" offset="22.78%"></stop>
            <stop stop-color="#58BF00" offset="41.73%"></stop>
            <stop stop-color="#29B800" offset="60.53%"></stop>
            <stop stop-color="#00AE1D" offset="77.74%"></stop>
            <stop stop-color="#00A62C" offset="99.43%"></stop>
        </linearGradient>
        <linearGradient x1="-0.557460317%" y1="50.0155894%" x2="99.8901587%" y2="50.0155894%" id="linearGradient-29">
            <stop stop-color="#58BF00" offset="0%"></stop>
            <stop stop-color="#58BF00" offset="22.78%"></stop>
            <stop stop-color="#58BF00" offset="41.73%"></stop>
            <stop stop-color="#29B800" offset="60.53%"></stop>
            <stop stop-color="#00AE1D" offset="77.74%"></stop>
            <stop stop-color="#00A62C" offset="99.43%"></stop>
        </linearGradient>
        <linearGradient x1="214.60624%" y1="112.3024%" x2="219.78182%" y2="112.3024%" id="linearGradient-30">
            <stop stop-color="#58BF00" offset="0%"></stop>
            <stop stop-color="#58BF00" offset="22.78%"></stop>
            <stop stop-color="#58BF00" offset="41.73%"></stop>
            <stop stop-color="#29B800" offset="60.53%"></stop>
            <stop stop-color="#00AE1D" offset="77.74%"></stop>
            <stop stop-color="#00A62C" offset="99.43%"></stop>
        </linearGradient>
        <linearGradient x1="0.120930233%" y1="50.0295567%" x2="100.422868%" y2="50.0295567%" id="linearGradient-31">
            <stop stop-color="#58BF00" offset="0%"></stop>
            <stop stop-color="#58BF00" offset="22.78%"></stop>
            <stop stop-color="#58BF00" offset="41.73%"></stop>
            <stop stop-color="#29B800" offset="60.53%"></stop>
            <stop stop-color="#00AE1D" offset="77.74%"></stop>
            <stop stop-color="#00A62C" offset="99.43%"></stop>
        </linearGradient>
        <path d="M1.22493785,0.53355154 C1.18864339,0.452162322 1.13420171,0.388859597 1.0616128,0.343643365 C0.989023891,0.298427133 0.907361368,0.271297393 0.816625231,0.271297393 C0.762183549,0.271297393 0.716815481,0.28034064 0.671447412,0.298427133 C0.626079344,0.316513626 0.580711276,0.343643365 0.544416821,0.379816351 C0.508122366,0.415989336 0.480901525,0.452162322 0.453680684,0.497378555 C0.426459843,0.542594787 0.417386229,0.587811019 0.417386229,0.642070498 C0.417386229,0.732502962 0.44460707,0.804848934 0.499048753,0.859108412 C0.553490435,0.913367891 0.626079344,0.958584123 0.707741867,0.994757109 C0.78940439,1.03093009 0.880140527,1.06710308 0.979950278,1.10327607 C1.07976003,1.13944905 1.17049616,1.17562204 1.25215869,1.22988152 C1.33382121,1.284141 1.40641012,1.34744372 1.4608518,1.42883294 C1.51529348,1.51022216 1.54251433,1.62778436 1.54251433,1.76343306 C1.54251433,1.87195201 1.5243671,1.97142773 1.48807264,2.05281694 C1.45177819,2.14324941 1.39733651,2.21559538 1.3247476,2.2788981 C1.25215869,2.34220083 1.17956978,2.38741706 1.08883364,2.42359005 C0.998097505,2.45976303 0.898287755,2.47784953 0.798478004,2.47784953 C0.607932117,2.47784953 0.435533457,2.42359005 0.290355638,2.31507109 C0.145177819,2.20655213 0.0453680684,2.05281694 -2.27373675e-13,1.86290877 L0.217766728,1.7905628 C0.263134797,1.93525474 0.326650093,2.0437737 0.426459843,2.13420616 C0.51719598,2.22463863 0.644226571,2.26081161 0.798478004,2.26081161 C0.943655823,2.26081161 1.07068641,2.20655213 1.17049616,2.10707642 C1.27030592,2.00760071 1.3247476,1.88099526 1.3247476,1.73630332 C1.3247476,1.66395735 1.31567398,1.60969787 1.28845314,1.55543839 C1.2612323,1.50117891 1.23401146,1.46500592 1.18864339,1.42883294 C1.14327532,1.39265995 1.09790726,1.36553021 1.04346557,1.34744372 C0.989023891,1.32031398 0.934582209,1.30222749 0.871066913,1.284141 C0.78940439,1.25701126 0.707741867,1.22083827 0.626079344,1.18466528 C0.544416821,1.1484923 0.471827911,1.11231931 0.408312616,1.05805983 C0.34479732,1.0128436 0.290355638,0.949540877 0.254061183,0.886238152 C0.217766728,0.81389218 0.190545887,0.732502962 0.190545887,0.642070498 C0.190545887,0.551638033 0.208693115,0.479292062 0.244987569,0.40694609 C0.281282024,0.334600118 0.326650093,0.271297393 0.381091775,0.217037915 C0.435533457,0.162778436 0.508122366,0.12660545 0.580711276,0.0994757109 C0.662373799,0.0723459716 0.734962708,0.0542594787 0.825698845,0.0542594787 C0.943655823,0.0542594787 1.0616128,0.0904324645 1.17049616,0.162778436 C1.28845314,0.235124408 1.37011567,0.325556872 1.41548373,0.425032583 L1.22493785,0.53355154 Z" id="path-32"></path>
        <path d="M0.281282024,0.397902844 L0.290355638,0.397902844 C0.34479732,0.289383886 0.426459843,0.207994668 0.526269594,0.144691943 C0.635152958,0.081389218 0.744036322,0.0542594787 0.871066913,0.0542594787 C1.02531835,0.0542594787 1.15234894,0.0904324645 1.27030592,0.162778436 C1.37918928,0.235124408 1.46992542,0.334600118 1.53344071,0.479292062 C1.59695601,0.334600118 1.68769214,0.235124408 1.80564912,0.162778436 C1.9236061,0.0904324645 2.05971031,0.0542594787 2.21396174,0.0542594787 C2.36821317,0.0542594787 2.48617015,0.081389218 2.57690629,0.12660545 C2.66764242,0.171821682 2.74023133,0.235124408 2.79467301,0.325556872 C2.8491147,0.40694609 2.88540915,0.506421801 2.90355638,0.614940758 C2.92170361,0.723459716 2.93077722,0.841021919 2.93077722,0.96762737 L2.93077722,2.42359005 L2.70393688,2.42359005 L2.70393688,0.94049763 C2.70393688,0.850065166 2.69486326,0.768675948 2.68578965,0.68728673 C2.67671604,0.605897512 2.6494952,0.53355154 2.62227435,0.470248815 C2.5859799,0.40694609 2.54061183,0.361729858 2.46802292,0.325556872 C2.40450763,0.289383886 2.31377149,0.271297393 2.20488812,0.271297393 C2.08693115,0.271297393 1.9871214,0.298427133 1.90545887,0.343643365 C1.82379635,0.388859597 1.76935467,0.452162322 1.7239866,0.53355154 C1.67861853,0.614940758 1.65139769,0.696329976 1.63325046,0.795805687 C1.61510324,0.895281398 1.60602962,0.994757109 1.60602962,1.09423282 L1.60602962,2.42359005 L1.37918928,2.42359005 L1.37918928,0.994757109 C1.37918928,0.904324645 1.37011567,0.81389218 1.36104205,0.732502962 C1.35196844,0.642070498 1.3247476,0.569724526 1.28845314,0.497378555 C1.25215869,0.425032583 1.19771701,0.370773104 1.13420171,0.334600118 C1.07068641,0.289383886 0.979950278,0.271297393 0.8619933,0.271297393 C0.744036322,0.271297393 0.644226571,0.298427133 0.571637662,0.352686611 C0.499048753,0.40694609 0.435533457,0.479292062 0.399239002,0.569724526 C0.353870934,0.660156991 0.326650093,0.750589455 0.317576479,0.859108412 C0.299429252,0.958584123 0.299429252,1.05805983 0.299429252,1.15753555 L0.299429252,2.43263329 L0.0725889095,2.43263329 L0.0725889095,0.117562204 L0.299429252,0.117562204 L0.299429252,0.397902844 L0.281282024,0.397902844 Z" id="path-34"></path>
        <path d="M2.30469788,2.42359005 L2.07785753,2.42359005 L2.07785753,2.00760071 L2.06878392,2.00760071 C2.02341585,2.07994668 1.96897417,2.14324941 1.90545887,2.20655213 C1.84194358,2.26081161 1.76935467,2.31507109 1.68769214,2.35124408 C1.60602962,2.38741706 1.5243671,2.42359005 1.44270458,2.44167654 C1.35196844,2.45976303 1.27030592,2.46880628 1.18864339,2.46880628 C1.00717112,2.46880628 0.852919686,2.43263329 0.707741867,2.36933057 C0.562564048,2.30602784 0.44460707,2.21559538 0.34479732,2.10707642 C0.244987569,1.99855746 0.17239866,1.86290877 0.117956978,1.71821682 C0.0635152958,1.57352488 0.0362944547,1.41074645 0.0362944547,1.23892476 C0.0362944547,1.06710308 0.0635152958,0.913367891 0.117956978,0.768675948 C0.17239866,0.623984005 0.244987569,0.497378555 0.34479732,0.388859597 C0.44460707,0.28034064 0.562564048,0.198951422 0.698668254,0.135648697 C0.843846072,0.0723459716 0.998097505,0.0452162322 1.17049616,0.0452162322 C1.35196844,0.0452162322 1.5243671,0.081389218 1.67861853,0.162778436 C1.84194358,0.244167654 1.96897417,0.352686611 2.05971031,0.497378555 L2.06878392,0.497378555 L2.06878392,0.0994757109 L2.29562426,0.0994757109 L2.29562426,2.42359005 L2.30469788,2.42359005 Z M1.16142255,0.271297393 C1.02531835,0.271297393 0.907361368,0.298427133 0.798478004,0.352686611 C0.68959464,0.40694609 0.589784889,0.479292062 0.51719598,0.569724526 C0.435533457,0.660156991 0.381091775,0.768675948 0.335723706,0.886238152 C0.290355638,1.00380036 0.27220841,1.13040581 0.27220841,1.24796801 C0.27220841,1.38361671 0.290355638,1.51022216 0.335723706,1.62778436 C0.381091775,1.74534656 0.435533457,1.85386552 0.51719598,1.95334123 C0.598858503,2.0437737 0.68959464,2.12516291 0.807551618,2.17942239 C0.925508596,2.23368187 1.04346557,2.26081161 1.18864339,2.26081161 C1.33382121,2.26081161 1.46992542,2.23368187 1.57880878,2.17942239 C1.69676576,2.12516291 1.7875019,2.05281694 1.86916442,1.95334123 C1.95082694,1.85386552 2.00526862,1.74534656 2.04156308,1.61874111 C2.07785753,1.49213566 2.10507837,1.35648697 2.10507837,1.22083827 C2.10507837,1.08518957 2.08693115,0.958584123 2.04156308,0.841021919 C1.99619501,0.723459716 1.93267971,0.623984005 1.85101719,0.53355154 C1.76935467,0.443119076 1.66954492,0.379816351 1.56066155,0.334600118 C1.42455735,0.298427133 1.29752676,0.271297393 1.16142255,0.271297393 Z" id="path-36"></path>
        <path d="M0.226840342,0.415989336 L0.235913956,0.415989336 C0.281282024,0.307470379 0.34479732,0.226081161 0.426459843,0.162778436 C0.508122366,0.0994757109 0.607932117,0.0633027251 0.734962708,0.0633027251 C0.780330777,0.0633027251 0.825698845,0.0723459716 0.8619933,0.081389218 C0.898287755,0.0904324645 0.943655823,0.108518957 0.979950278,0.117562204 L0.8619933,0.316513626 C0.834772459,0.298427133 0.807551618,0.289383886 0.780330777,0.28034064 C0.753109936,0.271297393 0.725889095,0.271297393 0.698668254,0.271297393 C0.571637662,0.271297393 0.471827911,0.307470379 0.408312616,0.379816351 C0.34479732,0.452162322 0.299429252,0.53355154 0.263134797,0.633027251 C0.235913956,0.732502962 0.217766728,0.841021919 0.217766728,0.949540877 L0.217766728,1.23892476 L0.217766728,2.42359005 L0,2.42359005 L0,0.108518957 L0.226840342,0.108518957 L0.226840342,0.415989336 Z" id="path-38"></path>
        <polygon id="path-40" points="0.489975139 3.14704976 0.263134797 3.14704976 0.263134797 1.03997334 0 1.03997334 0 0.831978673 0.254061183 0.831978673 0.254061183 0.00904324645 0.480901525 0.00904324645 0.480901525 0.831978673 0.889214141 0.831978673 0.889214141 1.03997334 0.480901525 1.03997334 0.480901525 3.14704976"></polygon>
        <path d="M0.317576479,1.29318424 C0.317576479,1.43787618 0.335723706,1.57352488 0.381091775,1.69108709 C0.426459843,1.80864929 0.489975139,1.91716825 0.571637662,1.99855746 C0.653300185,2.07994668 0.753109936,2.15229265 0.871066913,2.19750889 C0.989023891,2.24272512 1.11605448,2.26985486 1.24308507,2.26985486 C1.42455735,2.26985486 1.58788239,2.22463863 1.7239866,2.12516291 C1.86916442,2.0256872 1.97804778,1.89908175 2.05971031,1.74534656 L2.25025619,1.85386552 C2.14137283,2.05281694 1.99619501,2.20655213 1.82379635,2.31507109 C1.64232408,2.42359005 1.44270458,2.47784953 1.20679062,2.47784953 C1.03439196,2.47784953 0.880140527,2.44167654 0.744036322,2.37837382 C0.607932117,2.31507109 0.489975139,2.22463863 0.390165388,2.11611967 C0.290355638,2.00760071 0.217766728,1.88099526 0.163325046,1.72726007 C0.108883364,1.58256813 0.0816625231,1.42883294 0.0816625231,1.25701126 C0.0816625231,1.09423282 0.108883364,0.94049763 0.163325046,0.795805687 C0.217766728,0.651113744 0.290355638,0.524508294 0.390165388,0.415989336 C0.489975139,0.307470379 0.607932117,0.217037915 0.744036322,0.15373519 C0.880140527,0.0904324645 1.03439196,0.0542594787 1.20679062,0.0542594787 C1.37918928,0.0542594787 1.53344071,0.0904324645 1.67861853,0.15373519 C1.81472274,0.217037915 1.93267971,0.307470379 2.03248946,0.415989336 C2.13229922,0.524508294 2.20488812,0.660156991 2.25025619,0.804848934 C2.30469788,0.949540877 2.3228451,1.11231931 2.3228451,1.27509775 L0.317576479,1.27509775 L0.317576479,1.29318424 Z M2.10507837,1.07614633 C2.09600476,0.96762737 2.05971031,0.868151659 2.01434224,0.768675948 C1.96897417,0.669200237 1.90545887,0.587811019 1.82379635,0.506421801 C1.74213383,0.434075829 1.65139769,0.370773104 1.55158794,0.325556872 C1.45177819,0.28034064 1.34289482,0.262254147 1.21586423,0.262254147 C1.09790726,0.262254147 0.989023891,0.28034064 0.880140527,0.325556872 C0.771257163,0.370773104 0.680521026,0.425032583 0.598858503,0.497378555 C0.51719598,0.569724526 0.453680684,0.660156991 0.399239002,0.750589455 C0.34479732,0.850065166 0.317576479,0.949540877 0.308502865,1.05805983 L2.10507837,1.05805983 L2.10507837,1.07614633 Z" id="path-42"></path>
        <path d="M2.04156308,0.651113744 C1.93267971,0.53355154 1.80564912,0.434075829 1.67861853,0.370773104 C1.54251433,0.307470379 1.39733651,0.271297393 1.22493785,0.271297393 C1.08883364,0.271297393 0.96180305,0.298427133 0.843846072,0.352686611 C0.725889095,0.40694609 0.626079344,0.479292062 0.535343207,0.569724526 C0.453680684,0.660156991 0.381091775,0.768675948 0.335723706,0.886238152 C0.290355638,1.00380036 0.263134797,1.13040581 0.263134797,1.2660545 C0.263134797,1.39265995 0.290355638,1.5192654 0.335723706,1.64587085 C0.381091775,1.76343306 0.453680684,1.87195201 0.535343207,1.96238448 C0.61700573,2.05281694 0.716815481,2.12516291 0.834772459,2.17942239 C0.952729437,2.23368187 1.07976003,2.26081161 1.21586423,2.26081161 C1.37918928,2.26081161 1.54251433,2.22463863 1.68769214,2.15229265 C1.83286996,2.07994668 1.95990056,1.98047097 2.06878392,1.84482227 L2.06878392,2.15229265 C1.95082694,2.25176836 1.82379635,2.33315758 1.67861853,2.38741706 C1.53344071,2.44167654 1.37918928,2.46880628 1.22493785,2.46880628 C1.05253919,2.46880628 0.898287755,2.43263329 0.753109936,2.36933057 C0.607932117,2.30602784 0.480901525,2.21559538 0.372018161,2.10707642 C0.263134797,1.99855746 0.181472274,1.87195201 0.127030592,1.72726007 C0.0635152958,1.58256813 0.0362944547,1.41978969 0.0362944547,1.24796801 C0.0362944547,1.08518957 0.0635152958,0.922411137 0.127030592,0.777719194 C0.190545887,0.633027251 0.27220841,0.506421801 0.381091775,0.397902844 C0.489975139,0.289383886 0.61700573,0.207994668 0.762183549,0.144691943 C0.907361368,0.081389218 1.07068641,0.0542594787 1.23401146,0.0542594787 C1.38826289,0.0542594787 1.5243671,0.081389218 1.6604713,0.12660545 C1.79657551,0.171821682 1.9236061,0.244167654 2.04156308,0.343643365 L2.04156308,0.651113744 L2.04156308,0.651113744 Z" id="path-44"></path>
        <path d="M1.28845314,0.0633027251 C1.4608518,0.0633027251 1.61510324,0.0904324645 1.76935467,0.15373519 C1.91453249,0.217037915 2.05063669,0.298427133 2.15952006,0.40694609 C2.26840342,0.515465047 2.35913956,0.642070498 2.42265485,0.786762441 C2.48617015,0.931454384 2.5224646,1.09423282 2.5224646,1.2660545 C2.5224646,1.43787618 2.48617015,1.59161137 2.42265485,1.74534656 C2.35913956,1.89003851 2.26840342,2.0256872 2.15952006,2.12516291 C2.05063669,2.23368187 1.9236061,2.31507109 1.76935467,2.37837382 C1.62417685,2.44167654 1.4608518,2.46880628 1.28845314,2.46880628 C1.1251281,2.46880628 0.96180305,2.43263329 0.816625231,2.36933057 C0.671447412,2.30602784 0.544416821,2.21559538 0.435533457,2.10707642 C0.326650093,1.99855746 0.235913956,1.87195201 0.17239866,1.72726007 C0.108883364,1.58256813 0.0725889095,1.42883294 0.0725889095,1.2660545 C0.0725889095,1.10327607 0.0998097505,0.94049763 0.163325046,0.795805687 C0.226840342,0.651113744 0.308502865,0.524508294 0.417386229,0.40694609 C0.526269594,0.298427133 0.653300185,0.207994668 0.798478004,0.144691943 C0.96180305,0.0904324645 1.11605448,0.0633027251 1.28845314,0.0633027251 Z M1.27030592,0.271297393 C1.13420171,0.271297393 1.00717112,0.298427133 0.889214141,0.352686611 C0.771257163,0.40694609 0.671447412,0.479292062 0.580711276,0.569724526 C0.499048753,0.660156991 0.426459843,0.768675948 0.381091775,0.886238152 C0.335723706,1.00380036 0.308502865,1.13944905 0.308502865,1.2660545 C0.308502865,1.39265995 0.335723706,1.5192654 0.381091775,1.64587085 C0.426459843,1.76343306 0.499048753,1.87195201 0.580711276,1.96238448 C0.671447412,2.05281694 0.771257163,2.12516291 0.889214141,2.17942239 C1.00717112,2.23368187 1.13420171,2.26081161 1.27030592,2.26081161 C1.41548373,2.26081161 1.54251433,2.23368187 1.66954492,2.18846564 C1.79657551,2.13420616 1.89638526,2.07090344 1.9871214,1.98047097 C2.07785753,1.89003851 2.15044644,1.78151955 2.20488812,1.66395735 C2.25932981,1.54639514 2.28655065,1.41074645 2.28655065,1.27509775 C2.28655065,1.13040581 2.25932981,0.994757109 2.20488812,0.877194905 C2.15044644,0.759632701 2.07785753,0.651113744 1.9871214,0.56068128 C1.89638526,0.470248815 1.7875019,0.397902844 1.66954492,0.352686611 C1.55158794,0.298427133 1.41548373,0.271297393 1.27030592,0.271297393 Z" id="path-46"></path>
        <path d="M0.299429252,0.470248815 L0.308502865,0.470248815 C0.372018161,0.343643365 0.471827911,0.244167654 0.589784889,0.171821682 C0.707741867,0.0994757109 0.843846072,0.0633027251 0.998097505,0.0633027251 C1.15234894,0.0633027251 1.27030592,0.081389218 1.37011567,0.12660545 C1.46992542,0.171821682 1.54251433,0.235124408 1.60602962,0.316513626 C1.6604713,0.397902844 1.70583937,0.497378555 1.73306021,0.623984005 C1.76028105,0.741546209 1.76935467,0.877194905 1.76935467,1.03093009 L1.76935467,2.43263329 L1.54251433,2.43263329 L1.54251433,1.03093009 C1.54251433,0.931454384 1.53344071,0.831978673 1.5243671,0.741546209 C1.51529348,0.651113744 1.48807264,0.569724526 1.45177819,0.497378555 C1.41548373,0.425032583 1.36104205,0.370773104 1.27937953,0.334600118 C1.20679062,0.298427133 1.10698087,0.271297393 0.979950278,0.271297393 C0.834772459,0.271297393 0.716815481,0.298427133 0.626079344,0.361729858 C0.535343207,0.425032583 0.471827911,0.506421801 0.426459843,0.596854265 C0.381091775,0.696329976 0.34479732,0.804848934 0.326650093,0.922411137 C0.308502865,1.03997334 0.299429252,1.15753555 0.299429252,1.27509775 L0.299429252,2.4145468 L0.0725889095,2.4145468 L0.0725889095,0.0994757109 L0.299429252,0.0994757109 L0.299429252,0.470248815 L0.299429252,0.470248815 Z" id="path-48"></path>
        <path d="M1.25215869,0.0633027251 C1.42455735,0.0633027251 1.57880878,0.0904324645 1.73306021,0.15373519 C1.87823803,0.217037915 2.01434224,0.298427133 2.1232256,0.40694609 C2.23210897,0.515465047 2.3228451,0.642070498 2.3863604,0.786762441 C2.44987569,0.931454384 2.48617015,1.09423282 2.48617015,1.2660545 C2.48617015,1.43787618 2.44987569,1.59161137 2.3863604,1.74534656 C2.3228451,1.89003851 2.23210897,2.0256872 2.1232256,2.12516291 C2.01434224,2.23368187 1.88731165,2.31507109 1.73306021,2.37837382 C1.58788239,2.44167654 1.42455735,2.46880628 1.25215869,2.46880628 C1.08883364,2.46880628 0.925508596,2.43263329 0.780330777,2.36933057 C0.635152958,2.30602784 0.508122366,2.21559538 0.399239002,2.10707642 C0.290355638,1.99855746 0.199619501,1.87195201 0.136104205,1.72726007 C0.0725889095,1.58256813 0.0362944547,1.42883294 0.0362944547,1.2660545 C0.0362944547,1.10327607 0.0635152958,0.94049763 0.127030592,0.795805687 C0.190545887,0.651113744 0.27220841,0.524508294 0.381091775,0.40694609 C0.489975139,0.298427133 0.61700573,0.207994668 0.762183549,0.144691943 C0.925508596,0.0904324645 1.08883364,0.0633027251 1.25215869,0.0633027251 Z M1.24308507,0.271297393 C1.10698087,0.271297393 0.979950278,0.298427133 0.8619933,0.352686611 C0.744036322,0.40694609 0.644226571,0.479292062 0.553490435,0.569724526 C0.471827911,0.660156991 0.399239002,0.768675948 0.353870934,0.886238152 C0.308502865,1.00380036 0.281282024,1.13944905 0.281282024,1.2660545 C0.281282024,1.39265995 0.308502865,1.5192654 0.353870934,1.64587085 C0.399239002,1.76343306 0.471827911,1.87195201 0.553490435,1.96238448 C0.644226571,2.05281694 0.744036322,2.12516291 0.8619933,2.17942239 C0.979950278,2.23368187 1.10698087,2.26081161 1.24308507,2.26081161 C1.38826289,2.26081161 1.51529348,2.23368187 1.64232408,2.18846564 C1.76935467,2.13420616 1.86916442,2.07090344 1.95990056,1.98047097 C2.05063669,1.89003851 2.1232256,1.78151955 2.17766728,1.66395735 C2.23210897,1.54639514 2.25932981,1.41074645 2.25932981,1.27509775 C2.25932981,1.13040581 2.23210897,0.994757109 2.17766728,0.877194905 C2.1232256,0.759632701 2.05063669,0.651113744 1.95990056,0.56068128 C1.86916442,0.470248815 1.76028105,0.397902844 1.64232408,0.352686611 C1.51529348,0.298427133 1.38826289,0.271297393 1.24308507,0.271297393 Z" id="path-50"></path>
        <path d="M0.263134797,0.397902844 L0.27220841,0.397902844 C0.326650093,0.289383886 0.408312616,0.207994668 0.508122366,0.144691943 C0.61700573,0.081389218 0.725889095,0.0542594787 0.852919686,0.0542594787 C1.00717112,0.0542594787 1.13420171,0.0904324645 1.25215869,0.162778436 C1.36104205,0.235124408 1.45177819,0.334600118 1.51529348,0.479292062 C1.57880878,0.334600118 1.66954492,0.235124408 1.7875019,0.162778436 C1.90545887,0.0904324645 2.04156308,0.0542594787 2.19581451,0.0542594787 C2.35006594,0.0542594787 2.46802292,0.081389218 2.55875906,0.12660545 C2.6494952,0.171821682 2.7220841,0.235124408 2.77652579,0.325556872 C2.83096747,0.40694609 2.86726192,0.506421801 2.88540915,0.614940758 C2.90355638,0.723459716 2.91262999,0.841021919 2.91262999,0.96762737 L2.91262999,2.42359005 L2.68578965,2.42359005 L2.68578965,0.94049763 C2.68578965,0.850065166 2.67671604,0.768675948 2.66764242,0.68728673 C2.65856881,0.605897512 2.63134797,0.53355154 2.60412713,0.470248815 C2.56783267,0.40694609 2.5224646,0.361729858 2.44987569,0.325556872 C2.3863604,0.289383886 2.29562426,0.271297393 2.1867409,0.271297393 C2.06878392,0.271297393 1.96897417,0.298427133 1.88731165,0.343643365 C1.81472274,0.388859597 1.75120744,0.452162322 1.70583937,0.53355154 C1.6604713,0.614940758 1.63325046,0.696329976 1.61510324,0.795805687 C1.59695601,0.895281398 1.58788239,0.994757109 1.58788239,1.09423282 L1.58788239,2.42359005 L1.36104205,2.42359005 L1.36104205,0.994757109 C1.36104205,0.904324645 1.35196844,0.81389218 1.34289482,0.732502962 C1.33382121,0.642070498 1.30660037,0.569724526 1.27030592,0.497378555 C1.23401146,0.425032583 1.17956978,0.370773104 1.11605448,0.334600118 C1.05253919,0.298427133 0.96180305,0.271297393 0.843846072,0.271297393 C0.725889095,0.271297393 0.626079344,0.298427133 0.553490435,0.352686611 C0.480901525,0.40694609 0.417386229,0.479292062 0.381091775,0.569724526 C0.335723706,0.660156991 0.308502865,0.750589455 0.299429252,0.859108412 C0.281282024,0.958584123 0.281282024,1.05805983 0.281282024,1.15753555 L0.281282024,2.43263329 L0.0544416821,2.43263329 L0.0544416821,0.117562204 L0.281282024,0.117562204 L0.281282024,0.397902844 L0.263134797,0.397902844 Z" id="path-52"></path>
        <polygon id="path-54" points="0 0.0180864929 0.235913956 0.0180864929 1.22493785 2.11611967 2.11415199 0.0180864929 2.34099233 0.0180864929 0.780330777 3.68964455 0.553490435 3.68964455 1.11605448 2.37837382"></polygon>
        <linearGradient x1="-130.929416%" y1="113.061989%" x2="433.407079%" y2="-54.1944304%" id="linearGradient-56">
            <stop stop-color="#BEEB00" offset="0%"></stop>
            <stop stop-color="#58BF00" offset="22.78%"></stop>
            <stop stop-color="#58BF00" offset="41.73%"></stop>
            <stop stop-color="#29B800" offset="60.53%"></stop>
            <stop stop-color="#00AE1D" offset="77.74%"></stop>
            <stop stop-color="#00A62C" offset="99.43%"></stop>
        </linearGradient>
        <linearGradient x1="-19.1524648%" y1="66.149255%" x2="559.093732%" y2="-68.9556529%" id="linearGradient-57">
            <stop stop-color="#BEEB00" offset="0%"></stop>
            <stop stop-color="#58BF00" offset="22.78%"></stop>
            <stop stop-color="#58BF00" offset="41.73%"></stop>
            <stop stop-color="#29B800" offset="60.53%"></stop>
            <stop stop-color="#00AE1D" offset="77.74%"></stop>
            <stop stop-color="#00A62C" offset="99.43%"></stop>
        </linearGradient>
        <linearGradient x1="-24.255578%" y1="153.322071%" x2="213.059364%" y2="-177.009357%" id="linearGradient-58">
            <stop stop-color="#BEEB00" offset="0%"></stop>
            <stop stop-color="#58BF00" offset="22.78%"></stop>
            <stop stop-color="#58BF00" offset="41.73%"></stop>
            <stop stop-color="#29B800" offset="60.53%"></stop>
            <stop stop-color="#00AE1D" offset="77.74%"></stop>
            <stop stop-color="#00A62C" offset="99.43%"></stop>
        </linearGradient>
    </defs>
    <g id="Artboard" stroke="none" stroke-width="1" fill="none" fill-rule="evenodd" transform="translate(-817.000000, -4799.000000)" opacity="0.560688406">
        <g id="Group-28" transform="translate(0.000000, 4681.000000)">
            <g id="Group-17" transform="translate(817.000000, 118.000000)">
                <g id="NEO-smarg-economy-logo">
                    <g id="Clipped" transform="translate(41.557151, 13.022275)">
                        <mask id="mask-2" fill="white">
                            <use xlink:href="#path-1"></use>
                        </mask>
                        <g id="SVGID_1_"></g>
                        <rect id="Rectangle-path" fill="url(#linearGradient-3)" fill-rule="nonzero" mask="url(#mask-2)" x="-77.6519859" y="-15.2469135" width="142.809606" height="53.1381161"></rect>
                    </g>
                    <g id="Clipped" transform="translate(59.704378, 13.022275)">
                        <mask id="mask-5" fill="white">
                            <use xlink:href="#path-4"></use>
                        </mask>
                        <g id="SVGID_4_"></g>
                        <rect id="Rectangle-path" fill="url(#linearGradient-3)" fill-rule="nonzero" mask="url(#mask-5)" x="-95.7992133" y="-15.2469135" width="142.809606" height="53.1381161"></rect>
                    </g>
                    <g id="Clipped" transform="translate(74.040688, 12.660545)">
                        <mask id="mask-7" fill="white">
                            <use xlink:href="#path-6"></use>
                        </mask>
                        <g id="SVGID_7_"></g>
                        <rect id="Rectangle-path" fill="url(#linearGradient-3)" fill-rule="nonzero" mask="url(#mask-7)" x="-110.135523" y="-14.8851836" width="142.809606" height="53.1381161"></rect>
                    </g>
                    <g id="Group" transform="translate(41.466415, 32.465255)">
                        <g id="SVGID_10_-link" transform="translate(0.000000, 0.723460)" fill="url(#linearGradient-9)" fill-rule="nonzero">
                            <path d="M1.22493785,0.53355154 C1.18864339,0.452162322 1.13420171,0.388859597 1.0616128,0.343643365 C0.989023891,0.298427133 0.907361368,0.271297393 0.816625231,0.271297393 C0.762183549,0.271297393 0.716815481,0.28034064 0.671447412,0.298427133 C0.626079344,0.316513626 0.580711276,0.343643365 0.544416821,0.379816351 C0.508122366,0.415989336 0.480901525,0.452162322 0.453680684,0.497378555 C0.426459843,0.542594787 0.417386229,0.587811019 0.417386229,0.642070498 C0.417386229,0.732502962 0.44460707,0.804848934 0.499048753,0.859108412 C0.553490435,0.913367891 0.626079344,0.958584123 0.707741867,0.994757109 C0.78940439,1.03093009 0.880140527,1.06710308 0.979950278,1.10327607 C1.07976003,1.13944905 1.17049616,1.17562204 1.25215869,1.22988152 C1.33382121,1.284141 1.40641012,1.34744372 1.4608518,1.42883294 C1.51529348,1.51022216 1.54251433,1.62778436 1.54251433,1.76343306 C1.54251433,1.87195201 1.5243671,1.97142773 1.48807264,2.05281694 C1.45177819,2.14324941 1.39733651,2.21559538 1.3247476,2.2788981 C1.25215869,2.34220083 1.17956978,2.38741706 1.08883364,2.42359005 C0.998097505,2.45976303 0.898287755,2.47784953 0.798478004,2.47784953 C0.607932117,2.47784953 0.435533457,2.42359005 0.290355638,2.31507109 C0.145177819,2.20655213 0.0453680684,2.05281694 -2.27373675e-13,1.86290877 L0.217766728,1.7905628 C0.263134797,1.93525474 0.326650093,2.0437737 0.426459843,2.13420616 C0.51719598,2.22463863 0.644226571,2.26081161 0.798478004,2.26081161 C0.943655823,2.26081161 1.07068641,2.20655213 1.17049616,2.10707642 C1.27030592,2.00760071 1.3247476,1.88099526 1.3247476,1.73630332 C1.3247476,1.66395735 1.31567398,1.60969787 1.28845314,1.55543839 C1.2612323,1.50117891 1.23401146,1.46500592 1.18864339,1.42883294 C1.14327532,1.39265995 1.09790726,1.36553021 1.04346557,1.34744372 C0.989023891,1.32031398 0.934582209,1.30222749 0.871066913,1.284141 C0.78940439,1.25701126 0.707741867,1.22083827 0.626079344,1.18466528 C0.544416821,1.1484923 0.471827911,1.11231931 0.408312616,1.05805983 C0.34479732,1.0128436 0.290355638,0.949540877 0.254061183,0.886238152 C0.217766728,0.81389218 0.190545887,0.732502962 0.190545887,0.642070498 C0.190545887,0.551638033 0.208693115,0.479292062 0.244987569,0.40694609 C0.281282024,0.334600118 0.326650093,0.271297393 0.381091775,0.217037915 C0.435533457,0.162778436 0.508122366,0.12660545 0.580711276,0.0994757109 C0.662373799,0.0723459716 0.734962708,0.0542594787 0.825698845,0.0542594787 C0.943655823,0.0542594787 1.0616128,0.0904324645 1.17049616,0.162778436 C1.28845314,0.235124408 1.37011567,0.325556872 1.41548373,0.425032583 L1.22493785,0.53355154 Z" id="SVGID_10_"></path>
                        </g>
                        <g id="SVGID_11_-link" transform="translate(2.903556, 0.723460)" fill="url(#linearGradient-11)" fill-rule="nonzero">
                            <path d="M0.281282024,0.397902844 L0.290355638,0.397902844 C0.34479732,0.289383886 0.426459843,0.207994668 0.526269594,0.144691943 C0.635152958,0.081389218 0.744036322,0.0542594787 0.871066913,0.0542594787 C1.02531835,0.0542594787 1.15234894,0.0904324645 1.27030592,0.162778436 C1.37918928,0.235124408 1.46992542,0.334600118 1.53344071,0.479292062 C1.59695601,0.334600118 1.68769214,0.235124408 1.80564912,0.162778436 C1.9236061,0.0904324645 2.05971031,0.0542594787 2.21396174,0.0542594787 C2.36821317,0.0542594787 2.48617015,0.081389218 2.57690629,0.12660545 C2.66764242,0.171821682 2.74023133,0.235124408 2.79467301,0.325556872 C2.8491147,0.40694609 2.88540915,0.506421801 2.90355638,0.614940758 C2.92170361,0.723459716 2.93077722,0.841021919 2.93077722,0.96762737 L2.93077722,2.42359005 L2.70393688,2.42359005 L2.70393688,0.94049763 C2.70393688,0.850065166 2.69486326,0.768675948 2.68578965,0.68728673 C2.67671604,0.605897512 2.6494952,0.53355154 2.62227435,0.470248815 C2.5859799,0.40694609 2.54061183,0.361729858 2.46802292,0.325556872 C2.40450763,0.289383886 2.31377149,0.271297393 2.20488812,0.271297393 C2.08693115,0.271297393 1.9871214,0.298427133 1.90545887,0.343643365 C1.82379635,0.388859597 1.76935467,0.452162322 1.7239866,0.53355154 C1.67861853,0.614940758 1.65139769,0.696329976 1.63325046,0.795805687 C1.61510324,0.895281398 1.60602962,0.994757109 1.60602962,1.09423282 L1.60602962,2.42359005 L1.37918928,2.42359005 L1.37918928,0.994757109 C1.37918928,0.904324645 1.37011567,0.81389218 1.36104205,0.732502962 C1.35196844,0.642070498 1.3247476,0.569724526 1.28845314,0.497378555 C1.25215869,0.425032583 1.19771701,0.370773104 1.13420171,0.334600118 C1.07068641,0.289383886 0.979950278,0.271297393 0.8619933,0.271297393 C0.744036322,0.271297393 0.644226571,0.298427133 0.571637662,0.352686611 C0.499048753,0.40694609 0.435533457,0.479292062 0.399239002,0.569724526 C0.353870934,0.660156991 0.326650093,0.750589455 0.317576479,0.859108412 C0.299429252,0.958584123 0.299429252,1.05805983 0.299429252,1.15753555 L0.299429252,2.43263329 L0.0725889095,2.43263329 L0.0725889095,0.117562204 L0.299429252,0.117562204 L0.299429252,0.397902844 L0.281282024,0.397902844 Z" id="SVGID_11_"></path>
                        </g>
                        <g id="SVGID_12_-link" transform="translate(7.168155, 0.723460)" fill="url(#linearGradient-13)" fill-rule="nonzero">
                            <path d="M2.30469788,2.42359005 L2.07785753,2.42359005 L2.07785753,2.00760071 L2.06878392,2.00760071 C2.02341585,2.07994668 1.96897417,2.14324941 1.90545887,2.20655213 C1.84194358,2.26081161 1.76935467,2.31507109 1.68769214,2.35124408 C1.60602962,2.38741706 1.5243671,2.42359005 1.44270458,2.44167654 C1.35196844,2.45976303 1.27030592,2.46880628 1.18864339,2.46880628 C1.00717112,2.46880628 0.852919686,2.43263329 0.707741867,2.36933057 C0.562564048,2.30602784 0.44460707,2.21559538 0.34479732,2.10707642 C0.244987569,1.99855746 0.17239866,1.86290877 0.117956978,1.71821682 C0.0635152958,1.57352488 0.0362944547,1.41074645 0.0362944547,1.23892476 C0.0362944547,1.06710308 0.0635152958,0.913367891 0.117956978,0.768675948 C0.17239866,0.623984005 0.244987569,0.497378555 0.34479732,0.388859597 C0.44460707,0.28034064 0.562564048,0.198951422 0.698668254,0.135648697 C0.843846072,0.0723459716 0.998097505,0.0452162322 1.17049616,0.0452162322 C1.35196844,0.0452162322 1.5243671,0.081389218 1.67861853,0.162778436 C1.84194358,0.244167654 1.96897417,0.352686611 2.05971031,0.497378555 L2.06878392,0.497378555 L2.06878392,0.0994757109 L2.29562426,0.0994757109 L2.29562426,2.42359005 L2.30469788,2.42359005 Z M1.16142255,0.271297393 C1.02531835,0.271297393 0.907361368,0.298427133 0.798478004,0.352686611 C0.68959464,0.40694609 0.589784889,0.479292062 0.51719598,0.569724526 C0.435533457,0.660156991 0.381091775,0.768675948 0.335723706,0.886238152 C0.290355638,1.00380036 0.27220841,1.13040581 0.27220841,1.24796801 C0.27220841,1.38361671 0.290355638,1.51022216 0.335723706,1.62778436 C0.381091775,1.74534656 0.435533457,1.85386552 0.51719598,1.95334123 C0.598858503,2.0437737 0.68959464,2.12516291 0.807551618,2.17942239 C0.925508596,2.23368187 1.04346557,2.26081161 1.18864339,2.26081161 C1.33382121,2.26081161 1.46992542,2.23368187 1.57880878,2.17942239 C1.69676576,2.12516291 1.7875019,2.05281694 1.86916442,1.95334123 C1.95082694,1.85386552 2.00526862,1.74534656 2.04156308,1.61874111 C2.07785753,1.49213566 2.10507837,1.35648697 2.10507837,1.22083827 C2.10507837,1.08518957 2.08693115,0.958584123 2.04156308,0.841021919 C1.99619501,0.723459716 1.93267971,0.623984005 1.85101719,0.53355154 C1.76935467,0.443119076 1.66954492,0.379816351 1.56066155,0.334600118 C1.42455735,0.298427133 1.29752676,0.271297393 1.16142255,0.271297393 Z" id="SVGID_12_"></path>
                        </g>
                        <g id="SVGID_13_-link" transform="translate(11.069809, 0.723460)" fill="url(#linearGradient-15)" fill-rule="nonzero">
                            <path d="M0.226840342,0.415989336 L0.235913956,0.415989336 C0.281282024,0.307470379 0.34479732,0.226081161 0.426459843,0.162778436 C0.508122366,0.0994757109 0.607932117,0.0633027251 0.734962708,0.0633027251 C0.780330777,0.0633027251 0.825698845,0.0723459716 0.8619933,0.081389218 C0.898287755,0.0904324645 0.943655823,0.108518957 0.979950278,0.117562204 L0.8619933,0.316513626 C0.834772459,0.298427133 0.807551618,0.289383886 0.780330777,0.28034064 C0.753109936,0.271297393 0.725889095,0.271297393 0.698668254,0.271297393 C0.571637662,0.271297393 0.471827911,0.307470379 0.408312616,0.379816351 C0.34479732,0.452162322 0.299429252,0.53355154 0.263134797,0.633027251 C0.235913956,0.732502962 0.217766728,0.841021919 0.217766728,0.949540877 L0.217766728,1.23892476 L0.217766728,2.42359005 L0,2.42359005 L0,0.108518957 L0.226840342,0.108518957 L0.226840342,0.415989336 Z" id="SVGID_13_"></path>
                        </g>
                        <g id="SVGID_14_-link" transform="translate(13.156740, 0.000000)" fill="url(#linearGradient-17)" fill-rule="nonzero">
                            <polygon id="SVGID_14_" points="0.489975139 3.14704976 0.263134797 3.14704976 0.263134797 1.03997334 0 1.03997334 0 0.831978673 0.254061183 0.831978673 0.254061183 0.00904324645 0.480901525 0.00904324645 0.480901525 0.831978673 0.889214141 0.831978673 0.889214141 1.03997334 0.480901525 1.03997334 0.480901525 3.14704976"></polygon>
                        </g>
                        <g id="SVGID_15_-link" transform="translate(17.330602, 0.723460)" fill="url(#linearGradient-19)" fill-rule="nonzero">
                            <path d="M0.317576479,1.29318424 C0.317576479,1.43787618 0.335723706,1.57352488 0.381091775,1.69108709 C0.426459843,1.80864929 0.489975139,1.91716825 0.571637662,1.99855746 C0.653300185,2.07994668 0.753109936,2.15229265 0.871066913,2.19750889 C0.989023891,2.24272512 1.11605448,2.26985486 1.24308507,2.26985486 C1.42455735,2.26985486 1.58788239,2.22463863 1.7239866,2.12516291 C1.86916442,2.0256872 1.97804778,1.89908175 2.05971031,1.74534656 L2.25025619,1.85386552 C2.14137283,2.05281694 1.99619501,2.20655213 1.82379635,2.31507109 C1.64232408,2.42359005 1.44270458,2.47784953 1.20679062,2.47784953 C1.03439196,2.47784953 0.880140527,2.44167654 0.744036322,2.37837382 C0.607932117,2.31507109 0.489975139,2.22463863 0.390165388,2.11611967 C0.290355638,2.00760071 0.217766728,1.88099526 0.163325046,1.72726007 C0.108883364,1.58256813 0.0816625231,1.42883294 0.0816625231,1.25701126 C0.0816625231,1.09423282 0.108883364,0.94049763 0.163325046,0.795805687 C0.217766728,0.651113744 0.290355638,0.524508294 0.390165388,0.415989336 C0.489975139,0.307470379 0.607932117,0.217037915 0.744036322,0.15373519 C0.880140527,0.0904324645 1.03439196,0.0542594787 1.20679062,0.0542594787 C1.37918928,0.0542594787 1.53344071,0.0904324645 1.67861853,0.15373519 C1.81472274,0.217037915 1.93267971,0.307470379 2.03248946,0.415989336 C2.13229922,0.524508294 2.20488812,0.660156991 2.25025619,0.804848934 C2.30469788,0.949540877 2.3228451,1.11231931 2.3228451,1.27509775 L0.317576479,1.27509775 L0.317576479,1.29318424 Z M2.10507837,1.07614633 C2.09600476,0.96762737 2.05971031,0.868151659 2.01434224,0.768675948 C1.96897417,0.669200237 1.90545887,0.587811019 1.82379635,0.506421801 C1.74213383,0.434075829 1.65139769,0.370773104 1.55158794,0.325556872 C1.45177819,0.28034064 1.34289482,0.262254147 1.21586423,0.262254147 C1.09790726,0.262254147 0.989023891,0.28034064 0.880140527,0.325556872 C0.771257163,0.370773104 0.680521026,0.425032583 0.598858503,0.497378555 C0.51719598,0.569724526 0.453680684,0.660156991 0.399239002,0.750589455 C0.34479732,0.850065166 0.317576479,0.949540877 0.308502865,1.05805983 L2.10507837,1.05805983 L2.10507837,1.07614633 Z" id="SVGID_15_"></path>
                        </g>
                        <g id="SVGID_16_-link" transform="translate(20.778575, 0.723460)" fill="url(#linearGradient-21)" fill-rule="nonzero">
                            <path d="M2.04156308,0.651113744 C1.93267971,0.53355154 1.80564912,0.434075829 1.67861853,0.370773104 C1.54251433,0.307470379 1.39733651,0.271297393 1.22493785,0.271297393 C1.08883364,0.271297393 0.96180305,0.298427133 0.843846072,0.352686611 C0.725889095,0.40694609 0.626079344,0.479292062 0.535343207,0.569724526 C0.453680684,0.660156991 0.381091775,0.768675948 0.335723706,0.886238152 C0.290355638,1.00380036 0.263134797,1.13040581 0.263134797,1.2660545 C0.263134797,1.39265995 0.290355638,1.5192654 0.335723706,1.64587085 C0.381091775,1.76343306 0.453680684,1.87195201 0.535343207,1.96238448 C0.61700573,2.05281694 0.716815481,2.12516291 0.834772459,2.17942239 C0.952729437,2.23368187 1.07976003,2.26081161 1.21586423,2.26081161 C1.37918928,2.26081161 1.54251433,2.22463863 1.68769214,2.15229265 C1.83286996,2.07994668 1.95990056,1.98047097 2.06878392,1.84482227 L2.06878392,2.15229265 C1.95082694,2.25176836 1.82379635,2.33315758 1.67861853,2.38741706 C1.53344071,2.44167654 1.37918928,2.46880628 1.22493785,2.46880628 C1.05253919,2.46880628 0.898287755,2.43263329 0.753109936,2.36933057 C0.607932117,2.30602784 0.480901525,2.21559538 0.372018161,2.10707642 C0.263134797,1.99855746 0.181472274,1.87195201 0.127030592,1.72726007 C0.0635152958,1.58256813 0.0362944547,1.41978969 0.0362944547,1.24796801 C0.0362944547,1.08518957 0.0635152958,0.922411137 0.127030592,0.777719194 C0.190545887,0.633027251 0.27220841,0.506421801 0.381091775,0.397902844 C0.489975139,0.289383886 0.61700573,0.207994668 0.762183549,0.144691943 C0.907361368,0.081389218 1.07068641,0.0542594787 1.23401146,0.0542594787 C1.38826289,0.0542594787 1.5243671,0.081389218 1.6604713,0.12660545 C1.79657551,0.171821682 1.9236061,0.244167654 2.04156308,0.343643365 L2.04156308,0.651113744 L2.04156308,0.651113744 Z" id="SVGID_16_"></path>
                        </g>
                        <g id="SVGID_17_-link" transform="translate(23.954340, 0.723460)" fill="url(#linearGradient-23)" fill-rule="nonzero">
                            <path d="M1.28845314,0.0633027251 C1.4608518,0.0633027251 1.61510324,0.0904324645 1.76935467,0.15373519 C1.91453249,0.217037915 2.05063669,0.298427133 2.15952006,0.40694609 C2.26840342,0.515465047 2.35913956,0.642070498 2.42265485,0.786762441 C2.48617015,0.931454384 2.5224646,1.09423282 2.5224646,1.2660545 C2.5224646,1.43787618 2.48617015,1.59161137 2.42265485,1.74534656 C2.35913956,1.89003851 2.26840342,2.0256872 2.15952006,2.12516291 C2.05063669,2.23368187 1.9236061,2.31507109 1.76935467,2.37837382 C1.62417685,2.44167654 1.4608518,2.46880628 1.28845314,2.46880628 C1.1251281,2.46880628 0.96180305,2.43263329 0.816625231,2.36933057 C0.671447412,2.30602784 0.544416821,2.21559538 0.435533457,2.10707642 C0.326650093,1.99855746 0.235913956,1.87195201 0.17239866,1.72726007 C0.108883364,1.58256813 0.0725889095,1.42883294 0.0725889095,1.2660545 C0.0725889095,1.10327607 0.0998097505,0.94049763 0.163325046,0.795805687 C0.226840342,0.651113744 0.308502865,0.524508294 0.417386229,0.40694609 C0.526269594,0.298427133 0.653300185,0.207994668 0.798478004,0.144691943 C0.96180305,0.0904324645 1.11605448,0.0633027251 1.28845314,0.0633027251 Z M1.27030592,0.271297393 C1.13420171,0.271297393 1.00717112,0.298427133 0.889214141,0.352686611 C0.771257163,0.40694609 0.671447412,0.479292062 0.580711276,0.569724526 C0.499048753,0.660156991 0.426459843,0.768675948 0.381091775,0.886238152 C0.335723706,1.00380036 0.308502865,1.13944905 0.308502865,1.2660545 C0.308502865,1.39265995 0.335723706,1.5192654 0.381091775,1.64587085 C0.426459843,1.76343306 0.499048753,1.87195201 0.580711276,1.96238448 C0.671447412,2.05281694 0.771257163,2.12516291 0.889214141,2.17942239 C1.00717112,2.23368187 1.13420171,2.26081161 1.27030592,2.26081161 C1.41548373,2.26081161 1.54251433,2.23368187 1.66954492,2.18846564 C1.79657551,2.13420616 1.89638526,2.07090344 1.9871214,1.98047097 C2.07785753,1.89003851 2.15044644,1.78151955 2.20488812,1.66395735 C2.25932981,1.54639514 2.28655065,1.41074645 2.28655065,1.27509775 C2.28655065,1.13040581 2.25932981,0.994757109 2.20488812,0.877194905 C2.15044644,0.759632701 2.07785753,0.651113744 1.9871214,0.56068128 C1.89638526,0.470248815 1.7875019,0.397902844 1.66954492,0.352686611 C1.55158794,0.298427133 1.41548373,0.271297393 1.27030592,0.271297393 Z" id="SVGID_17_"></path>
                        </g>
                        <g id="SVGID_18_-link" transform="translate(27.765258, 0.723460)" fill="url(#linearGradient-25)" fill-rule="nonzero">
                            <path d="M0.299429252,0.470248815 L0.308502865,0.470248815 C0.372018161,0.343643365 0.471827911,0.244167654 0.589784889,0.171821682 C0.707741867,0.0994757109 0.843846072,0.0633027251 0.998097505,0.0633027251 C1.15234894,0.0633027251 1.27030592,0.081389218 1.37011567,0.12660545 C1.46992542,0.171821682 1.54251433,0.235124408 1.60602962,0.316513626 C1.6604713,0.397902844 1.70583937,0.497378555 1.73306021,0.623984005 C1.76028105,0.741546209 1.76935467,0.877194905 1.76935467,1.03093009 L1.76935467,2.43263329 L1.54251433,2.43263329 L1.54251433,1.03093009 C1.54251433,0.931454384 1.53344071,0.831978673 1.5243671,0.741546209 C1.51529348,0.651113744 1.48807264,0.569724526 1.45177819,0.497378555 C1.41548373,0.425032583 1.36104205,0.370773104 1.27937953,0.334600118 C1.20679062,0.298427133 1.10698087,0.271297393 0.979950278,0.271297393 C0.834772459,0.271297393 0.716815481,0.298427133 0.626079344,0.361729858 C0.535343207,0.425032583 0.471827911,0.506421801 0.426459843,0.596854265 C0.381091775,0.696329976 0.34479732,0.804848934 0.326650093,0.922411137 C0.308502865,1.03997334 0.299429252,1.15753555 0.299429252,1.27509775 L0.299429252,2.4145468 L0.0725889095,2.4145468 L0.0725889095,0.0994757109 L0.299429252,0.0994757109 L0.299429252,0.470248815 L0.299429252,0.470248815 Z" id="SVGID_18_"></path>
                        </g>
                        <g id="SVGID_19_-link" transform="translate(30.850287, 0.723460)" fill="url(#linearGradient-27)" fill-rule="nonzero">
                            <path d="M1.25215869,0.0633027251 C1.42455735,0.0633027251 1.57880878,0.0904324645 1.73306021,0.15373519 C1.87823803,0.217037915 2.01434224,0.298427133 2.1232256,0.40694609 C2.23210897,0.515465047 2.3228451,0.642070498 2.3863604,0.786762441 C2.44987569,0.931454384 2.48617015,1.09423282 2.48617015,1.2660545 C2.48617015,1.43787618 2.44987569,1.59161137 2.3863604,1.74534656 C2.3228451,1.89003851 2.23210897,2.0256872 2.1232256,2.12516291 C2.01434224,2.23368187 1.88731165,2.31507109 1.73306021,2.37837382 C1.58788239,2.44167654 1.42455735,2.46880628 1.25215869,2.46880628 C1.08883364,2.46880628 0.925508596,2.43263329 0.780330777,2.36933057 C0.635152958,2.30602784 0.508122366,2.21559538 0.399239002,2.10707642 C0.290355638,1.99855746 0.199619501,1.87195201 0.136104205,1.72726007 C0.0725889095,1.58256813 0.0362944547,1.42883294 0.0362944547,1.2660545 C0.0362944547,1.10327607 0.0635152958,0.94049763 0.127030592,0.795805687 C0.190545887,0.651113744 0.27220841,0.524508294 0.381091775,0.40694609 C0.489975139,0.298427133 0.61700573,0.207994668 0.762183549,0.144691943 C0.925508596,0.0904324645 1.08883364,0.0633027251 1.25215869,0.0633027251 Z M1.24308507,0.271297393 C1.10698087,0.271297393 0.979950278,0.298427133 0.8619933,0.352686611 C0.744036322,0.40694609 0.644226571,0.479292062 0.553490435,0.569724526 C0.471827911,0.660156991 0.399239002,0.768675948 0.353870934,0.886238152 C0.308502865,1.00380036 0.281282024,1.13944905 0.281282024,1.2660545 C0.281282024,1.39265995 0.308502865,1.5192654 0.353870934,1.64587085 C0.399239002,1.76343306 0.471827911,1.87195201 0.553490435,1.96238448 C0.644226571,2.05281694 0.744036322,2.12516291 0.8619933,2.17942239 C0.979950278,2.23368187 1.10698087,2.26081161 1.24308507,2.26081161 C1.38826289,2.26081161 1.51529348,2.23368187 1.64232408,2.18846564 C1.76935467,2.13420616 1.86916442,2.07090344 1.95990056,1.98047097 C2.05063669,1.89003851 2.1232256,1.78151955 2.17766728,1.66395735 C2.23210897,1.54639514 2.25932981,1.41074645 2.25932981,1.27509775 C2.25932981,1.13040581 2.23210897,0.994757109 2.17766728,0.877194905 C2.1232256,0.759632701 2.05063669,0.651113744 1.95990056,0.56068128 C1.86916442,0.470248815 1.76028105,0.397902844 1.64232408,0.352686611 C1.51529348,0.298427133 1.38826289,0.271297393 1.24308507,0.271297393 Z" id="SVGID_19_"></path>
                        </g>
                        <g id="SVGID_20_-link" transform="translate(34.661204, 0.723460)" fill="url(#linearGradient-29)" fill-rule="nonzero">
                            <path d="M0.263134797,0.397902844 L0.27220841,0.397902844 C0.326650093,0.289383886 0.408312616,0.207994668 0.508122366,0.144691943 C0.61700573,0.081389218 0.725889095,0.0542594787 0.852919686,0.0542594787 C1.00717112,0.0542594787 1.13420171,0.0904324645 1.25215869,0.162778436 C1.36104205,0.235124408 1.45177819,0.334600118 1.51529348,0.479292062 C1.57880878,0.334600118 1.66954492,0.235124408 1.7875019,0.162778436 C1.90545887,0.0904324645 2.04156308,0.0542594787 2.19581451,0.0542594787 C2.35006594,0.0542594787 2.46802292,0.081389218 2.55875906,0.12660545 C2.6494952,0.171821682 2.7220841,0.235124408 2.77652579,0.325556872 C2.83096747,0.40694609 2.86726192,0.506421801 2.88540915,0.614940758 C2.90355638,0.723459716 2.91262999,0.841021919 2.91262999,0.96762737 L2.91262999,2.42359005 L2.68578965,2.42359005 L2.68578965,0.94049763 C2.68578965,0.850065166 2.67671604,0.768675948 2.66764242,0.68728673 C2.65856881,0.605897512 2.63134797,0.53355154 2.60412713,0.470248815 C2.56783267,0.40694609 2.5224646,0.361729858 2.44987569,0.325556872 C2.3863604,0.289383886 2.29562426,0.271297393 2.1867409,0.271297393 C2.06878392,0.271297393 1.96897417,0.298427133 1.88731165,0.343643365 C1.81472274,0.388859597 1.75120744,0.452162322 1.70583937,0.53355154 C1.6604713,0.614940758 1.63325046,0.696329976 1.61510324,0.795805687 C1.59695601,0.895281398 1.58788239,0.994757109 1.58788239,1.09423282 L1.58788239,2.42359005 L1.36104205,2.42359005 L1.36104205,0.994757109 C1.36104205,0.904324645 1.35196844,0.81389218 1.34289482,0.732502962 C1.33382121,0.642070498 1.30660037,0.569724526 1.27030592,0.497378555 C1.23401146,0.425032583 1.17956978,0.370773104 1.11605448,0.334600118 C1.05253919,0.298427133 0.96180305,0.271297393 0.843846072,0.271297393 C0.725889095,0.271297393 0.626079344,0.298427133 0.553490435,0.352686611 C0.480901525,0.40694609 0.417386229,0.479292062 0.381091775,0.569724526 C0.335723706,0.660156991 0.308502865,0.750589455 0.299429252,0.859108412 C0.281282024,0.958584123 0.281282024,1.05805983 0.281282024,1.15753555 L0.281282024,2.43263329 L0.0544416821,2.43263329 L0.0544416821,0.117562204 L0.281282024,0.117562204 L0.281282024,0.397902844 L0.263134797,0.397902844 Z" id="SVGID_20_"></path>
                        </g>
                        <g id="SVGID_21_-link" transform="translate(38.744330, 0.813892)" fill="url(#linearGradient-31)" fill-rule="nonzero">
                            <polygon id="SVGID_21_" points="0 0.0180864929 0.235913956 0.0180864929 1.22493785 2.11611967 2.11415199 0.0180864929 2.34099233 0.0180864929 0.780330777 3.68964455 0.553490435 3.68964455 1.11605448 2.37837382"></polygon>
                        </g>
                        <g id="SVGID_35_-Clipped" transform="translate(0.000000, 0.723460)">
                            <mask id="mask-33" fill="white">
                                <use xlink:href="#path-32"></use>
                            </mask>
                            <g id="SVGID_10_"></g>
                        </g>
                        <g id="SVGID_36_-Clipped" transform="translate(2.903556, 0.723460)">
                            <mask id="mask-35" fill="white">
                                <use xlink:href="#path-34"></use>
                            </mask>
                            <g id="SVGID_11_"></g>
                        </g>
                        <g id="SVGID_37_-Clipped" transform="translate(7.168155, 0.723460)">
                            <mask id="mask-37" fill="white">
                                <use xlink:href="#path-36"></use>
                            </mask>
                            <g id="SVGID_12_"></g>
                        </g>
                        <g id="SVGID_38_-Clipped" transform="translate(11.069809, 0.723460)">
                            <mask id="mask-39" fill="white">
                                <use xlink:href="#path-38"></use>
                            </mask>
                            <g id="SVGID_13_"></g>
                        </g>
                        <g id="SVGID_39_-Clipped" transform="translate(13.156740, 0.000000)">
                            <mask id="mask-41" fill="white">
                                <use xlink:href="#path-40"></use>
                            </mask>
                            <g id="SVGID_14_"></g>
                        </g>
                        <g id="SVGID_40_-Clipped" transform="translate(17.330602, 0.723460)">
                            <mask id="mask-43" fill="white">
                                <use xlink:href="#path-42"></use>
                            </mask>
                            <g id="SVGID_15_"></g>
                        </g>
                        <g id="SVGID_41_-Clipped" transform="translate(20.778575, 0.723460)">
                            <mask id="mask-45" fill="white">
                                <use xlink:href="#path-44"></use>
                            </mask>
                            <g id="SVGID_16_"></g>
                        </g>
                        <g id="SVGID_42_-Clipped" transform="translate(23.954340, 0.723460)">
                            <mask id="mask-47" fill="white">
                                <use xlink:href="#path-46"></use>
                            </mask>
                            <g id="SVGID_17_"></g>
                        </g>
                        <g id="SVGID_43_-Clipped" transform="translate(27.765258, 0.723460)">
                            <mask id="mask-49" fill="white">
                                <use xlink:href="#path-48"></use>
                            </mask>
                            <g id="SVGID_18_"></g>
                        </g>
                        <g id="SVGID_44_-Clipped" transform="translate(30.850287, 0.723460)">
                            <mask id="mask-51" fill="white">
                                <use xlink:href="#path-50"></use>
                            </mask>
                            <g id="SVGID_19_"></g>
                        </g>
                        <g id="SVGID_45_-Clipped" transform="translate(34.661204, 0.723460)">
                            <mask id="mask-53" fill="white">
                                <use xlink:href="#path-52"></use>
                            </mask>
                            <g id="SVGID_20_"></g>
                        </g>
                        <g id="Clipped" transform="translate(38.744330, 0.813892)">
                            <mask id="mask-55" fill="white">
                                <use xlink:href="#path-54"></use>
                            </mask>
                            <g id="SVGID_21_"></g>
                            <rect id="Rectangle-path" fill="url(#linearGradient-3)" fill-rule="nonzero" mask="url(#mask-55)" x="-116.30558" y="-35.5037855" width="142.809606" height="53.1381161"></rect>
                        </g>
                    </g>
                    <polygon id="Shape" fill="url(#linearGradient-56)" fill-rule="nonzero" points="32.1750341 6.57444017 32.1750341 31.5790166 18.9729262 25.3753495 18.9729262 11.2950148"></polygon>
                    <polygon id="Shape" fill="url(#linearGradient-57)" fill-rule="nonzero" points="0.0725889095 32.0402222 12.9571203 38.0991973 12.9571203 13.2031398 0.0725889095 7.14416469"></polygon>
                    <polygon id="Shape" fill="url(#linearGradient-58)" fill-rule="nonzero" points="31.6396909 6.08610486 31.8574576 6.01375889 31.9754146 5.96854265 19.2632818 0 19.1453249 0.0361729858 18.8096012 0.15373519 18.6553497 0.217037915 0.580711276 6.68295912 13.2837704 12.660545 18.6553497 10.7343335 18.9729262 10.6258146"></polygon>
                </g>
            </g>
        </g>
    </g>
</svg>