<?xml version="1.0" encoding="UTF-8"?>
<svg width="299px" height="73px" viewBox="0 0 299 73" version="1.1" xmlns="http://www.w3.org/2000/svg" xmlns:xlink="http://www.w3.org/1999/xlink">
    <!-- Generator: Sketch 48.2 (47327) - http://www.bohemiancoding.com/sketch -->
    <title>Group 22</title>
    <desc>Created with Sketch.</desc>
    <defs>
        <linearGradient x1="50%" y1="0%" x2="50%" y2="100%" id="linearGradient-1">
            <stop stop-color="#7661FF" offset="0%"></stop>
            <stop stop-color="#70FEC3" offset="100%"></stop>
        </linearGradient>
        <path d="M44.8807765,41.5344828 C43.113514,41.5344828 41.5298632,42.3672532 40.5429503,43.6726772 C40.5429503,43.6951845 40.5199989,43.6951845 40.5199989,43.7176918 C40.4511445,43.7852137 40.4052416,43.875243 40.3593387,43.9427649 C40.3134357,44.0102868 40.2675328,44.0778088 40.2216299,44.1453307 C40.129824,44.3028819 40.0609697,44.4379257 39.9691638,44.5954769 C39.6478433,45.2706962 39.4642317,46.0359447 39.4642317,46.8462079 C39.4642317,49.7721582 41.8970866,52.157933 44.8807765,52.157933 C45.2709514,52.157933 45.6611262,52.1129184 46.0283496,52.0453965 C48.484156,51.5277283 50.3202729,49.3895339 50.3202729,46.8462079 C50.2973214,43.9202576 47.887418,41.5344828 44.8807765,41.5344828 Z" id="path-2"></path>
    </defs>
    <g id="Artboard" stroke="none" stroke-width="1" fill="none" fill-rule="evenodd" transform="translate(-651.000000, -4956.000000)">
        <g id="Group-22" transform="translate(651.000000, 4956.000000)">
            <g id="Group-7" transform="translate(113.000000, 0.000000)">
                <g id="Clipped" transform="translate(0.576704, 0.462369)">
                    <path d="M61.6582948,10.6994683 L54.9794195,15.9661788 C51.1924284,18.959651 46.2119613,19.8824507 41.5069117,18.6895633 L41.4380573,18.6670559 C39.1888141,11.4422095 32.3033757,6.17549898 24.2015099,6.17549898 C19.2210427,6.17549898 14.7225563,8.15614224 11.4404973,11.3521802 C17.9587124,4.96010424 26.9556852,0.998817708 36.893668,0.998817708 C46.4873788,0.998817708 55.2089341,4.69001652 61.6582948,10.6994683 Z" id="SVGID_1_" stroke="#7661FF" fill-opacity="0.4" fill="#7661FF"></path>
                    <ellipse id="SVGID_3_" stroke="#5571FF" fill-opacity="0.4" fill="#4362FF" cx="63.4255573" cy="23.3035618" rx="5.43949634" ry="5.33423244"></ellipse>
                    <path d="M24.2015099,6.17549898 C19.2210427,6.17549898 14.7225563,8.15614224 11.4404973,11.3521802 C5.22065132,17.4516612 1.25004851,25.7793659 0.928728051,35.0073629 C0.905776589,35.4350018 0.905776589,35.8626407 0.905776589,36.3127869 C0.905776589,42.0071363 2.28286427,47.3863833 4.71571917,52.1354257 C6.09280685,54.8137956 7.79121499,57.2895997 9.78799213,59.5178233 C7.51579746,56.5468584 6.16166124,52.8781669 6.16166124,48.8943731 C6.16166124,44.0102868 8.18138984,39.5763468 11.4634488,36.3803088 C13.5061289,34.3771582 16.0307896,32.8466612 18.8767708,31.9913834 C20.8505965,24.0237957 28.1721127,18.1043732 36.9166194,18.1043732 C38.4773188,18.1043732 40.0150667,18.306939 41.4610088,18.6445486 C39.1888141,11.4422095 32.3263272,6.17549898 24.2015099,6.17549898 Z" id="SVGID_5_" stroke="#7661FF" fill-opacity="0.4" fill="#7661FF"></path>
                    <path d="M49.631729,66.5851186 C44.6742134,66.5851186 40.175727,64.6269827 36.9166194,61.4309447 C34.805085,59.3827795 33.2214342,56.8169462 32.3492786,53.9585178 C31.7754921,53.8234739 31.2017056,53.6434155 30.6508705,53.463357 C25.1654712,51.5502356 20.873548,47.1613102 19.1521884,41.6695266 C19.0603825,41.3769316 18.9915281,41.0843366 18.8997223,40.7917415 C18.7620135,40.2290588 18.6243048,39.666376 18.5324989,39.081186 C18.3947901,38.1808936 18.3259358,37.2580939 18.3259358,36.3352942 C18.3259358,35.4575091 18.3947901,34.579724 18.5095474,33.7244462 C18.6013533,33.1392562 18.7161106,32.5765734 18.8308679,32.0138907 C16.0078382,32.8691685 13.4602259,34.3996655 11.4175459,36.4028161 C8.13548691,39.5988541 6.11575832,44.0327942 6.11575832,48.9168804 C6.11575832,52.9006742 7.46989454,56.5918731 9.74208921,59.5403306 C10.8667108,60.8232473 12.1060897,62.038642 13.4372745,63.1415002 C19.7259749,68.430718 27.9196466,71.626756 36.8707165,71.626756 C45.7070291,71.626756 53.7859435,68.5207473 60.0516925,63.3215587 C57.1368569,65.3697239 53.5334775,66.5851186 49.631729,66.5851186 Z" id="SVGID_7_" stroke="url(#linearGradient-1)" fill-opacity="0.2" fill="#70FEC3"></path>
                    <path d="M67.6715777,48.8943731 C67.6715777,52.7656304 66.4092473,56.3442926 64.2518099,59.2477356 C62.9894795,60.7107108 61.5894404,62.0611493 60.0975954,63.2990514 C60.0975954,63.2990514 60.074644,63.2990514 60.074644,63.3215587 C57.1368569,65.3697239 53.5334775,66.5851186 49.631729,66.5851186 C44.6742134,66.5851186 40.175727,64.6269827 36.9166194,61.4309447 C34.805085,59.3827795 33.2214342,56.8169462 32.3492786,53.9585178 C33.7952207,54.3186348 35.3329686,54.4986932 36.893668,54.4986932 C38.4773188,54.4986932 40.0150667,54.2961274 41.4839603,53.9360105 C42.0577468,53.8009666 42.6085819,53.6209082 43.1364655,53.4408497 C43.4807374,53.3283131 43.8250093,53.1932693 44.1692812,53.0357181 C44.1004269,52.9456889 44.0315725,52.8781669 43.9627181,52.7881377 C48.0480782,51.9328599 51.1006226,48.376705 51.1006226,44.1228234 C51.1006226,39.2387372 47.0611654,35.2549433 42.0577468,35.2549433 C39.0970083,35.2549433 36.4575902,36.6503965 34.805085,38.8110983 C35.4247745,37.9333132 36.1362698,37.1005427 36.9166194,36.3352942 C40.175727,33.1617635 44.6742134,31.1811202 49.631729,31.1811202 C59.5926633,31.2036275 67.6715777,39.1262006 67.6715777,48.8943731 Z" id="SVGID_9_" stroke="#70FEC3" fill-opacity="0.2" fill="#70FEC3"></path>
                    <path d="M42.1954556,35.2549433 C39.1888141,35.2549433 36.5264446,36.6729038 34.8509879,38.8786202 C34.8280365,38.9011275 34.8280365,38.9236348 34.805085,38.9461421 C34.7132792,39.081186 34.6214733,39.2162298 34.5296675,39.3512737 C34.4378616,39.4638103 34.3690072,39.5763468 34.3001529,39.7113907 C34.1394926,39.9589711 34.0017839,40.2290588 33.8870265,40.4766392 C33.3361915,41.624512 33.0378225,42.9074287 33.0378225,44.2578673 C33.0378225,49.2319827 37.1461341,53.2607912 42.218407,53.2607912 C42.8839994,53.2607912 43.5266403,53.1932693 44.1463298,53.0582254 C48.2775928,52.1804403 51.3760401,48.5792707 51.3760401,44.2578673 C51.3760401,39.2837518 47.2677285,35.2549433 42.1954556,35.2549433 Z" id="SVGID_11_" stroke="#70FEC3" fill-opacity="0.2" fill="#70FEC3"></path>
                    <mask id="mask-3" fill="white">
                        <use xlink:href="#path-2"></use>
                    </mask>
                    <use id="SVGID_13_" stroke="#70FEC3" fill-opacity="0.2" fill="#70FEC3" xlink:href="#path-2"></use>
                </g>
            </g>
            <path d="M15.9734672,48.2025316 C15.9734672,48.6202532 15.6539978,48.8291139 15.2635353,48.8987342 C13.7726784,49.1772152 12.3883112,49.3512658 9.37110075,49.3512658 C5.00501972,49.3512658 0,47.0537975 0,38.5949367 L0,33.7563291 C0,25.2278481 5.00501972,23 9.37110075,23 C11.6073862,23 13.7726784,23.3132911 15.3345285,23.556962 C15.6539978,23.5917722 15.902474,23.6962025 15.902474,24.0094937 L15.902474,25.7848101 C15.902474,25.9936709 15.8314808,26.1677215 15.4765149,26.1677215 L15.3700251,26.1677215 C14.0921477,26.0632911 11.4653998,25.8544304 9.40659735,25.8544304 C5.92793116,25.8544304 3.23019003,27.8386076 3.23019003,33.7563291 L3.23019003,38.5949367 C3.23019003,44.443038 5.92793116,46.4968354 9.40659735,46.4968354 C11.4299032,46.4968354 13.9856579,46.3227848 15.2635353,46.2183544 L15.4055217,46.2183544 C15.7959842,46.2183544 15.9734672,46.3924051 15.9734672,46.7753165 L15.9734672,48.2025316 Z M28.4327716,31.8417722 C28.4327716,32.2246835 28.3617784,32.3987342 27.6873431,32.3987342 C25.2735748,32.3987342 24.1021872,32.4683544 22.7533166,32.7468354 L22.7533166,48.4113924 C22.7533166,48.7594937 22.5048404,49.1075949 22.1143779,49.1075949 L20.268555,49.1075949 C19.9135891,49.1075949 19.6296163,48.7943038 19.6296163,48.4113924 L19.6296163,31.4936709 C19.6296163,31.1107595 19.8780925,30.8670886 20.268555,30.693038 C22.2918609,29.8227848 24.7411259,29.7183544 27.6873431,29.7183544 C28.1487989,29.7183544 28.4327716,29.7531646 28.4327716,30.2405063 L28.4327716,31.8417722 Z M47.1394765,49.1075949 C47.1394765,54.5727848 44.7257081,56 39.8981714,56 C37.2714234,56 34.8576551,55.6170886 34.0412334,55.4082278 C33.5442811,55.2689873 33.3667981,55.0949367 33.3667981,54.6772152 L33.3667981,53.7025316 C33.3667981,53.3544304 33.6507709,53.1107595 34.0057368,53.1107595 L34.1122266,53.1107595 C35.1771244,53.25 37.8393689,53.528481 39.8981714,53.528481 C43.0928648,53.528481 44.0867695,52.7626582 44.0867695,49.1075949 L44.0867695,48.9335443 C43.2348512,49.1772152 41.2825385,49.3512658 40.1466475,49.3512658 C36.0645393,49.3512658 32.1954105,47.9588608 32.1954105,42.1455696 L32.1954105,30.6582278 C32.1954105,30.2753165 32.5148799,29.9620253 32.9053424,29.9620253 L34.6091789,29.9620253 C34.9996414,29.9620253 35.3191108,30.2753165 35.3191108,30.6582278 L35.3191108,42.1455696 C35.3191108,45.8702532 37.1649337,46.7405063 40.1466475,46.7405063 C41.1760488,46.7405063 42.986375,46.5316456 44.0157763,46.2879747 L44.0157763,30.6582278 C44.0157763,30.2753165 44.3352456,29.9620253 44.7257081,29.9620253 L46.4295446,29.9620253 C46.8200072,29.9620253 47.1394765,30.2753165 47.1394765,30.6582278 L47.1394765,49.1075949 Z M66.9820724,40.8227848 C66.9820724,46.2879747 64.4263177,49.3512658 59.243815,49.3512658 C58.1434206,49.3512658 56.4750807,49.2120253 55.0907135,48.9683544 L55.0907135,55.2689873 C55.0907135,55.6170886 54.8067408,55.9303797 54.4162782,55.9303797 L52.605952,55.9303797 C52.250986,55.9303797 51.9670133,55.6518987 51.9670133,55.2689873 L51.9670133,31.3196203 C51.9670133,30.8670886 52.073503,30.6582278 52.7124417,30.5189873 C54.5937612,30.0664557 57.0785228,29.7183544 59.243815,29.7183544 C64.5328075,29.7183544 66.9820724,33.0949367 66.9820724,38.3164557 L66.9820724,40.8227848 Z M63.8583722,40.8227848 L63.8583722,38.3164557 C63.8583722,34.6613924 62.7579778,32.2943038 59.243815,32.2943038 C57.752958,32.2943038 56.0846181,32.4683544 55.0907135,32.6424051 L55.0907135,46.4272152 C56.2621011,46.6360759 58.107924,46.7753165 59.243815,46.7753165 C62.7224812,46.7753165 63.8583722,44.5474684 63.8583722,40.8227848 Z M80.5417712,48.5506329 C80.5417712,48.8639241 80.3642883,49.0727848 79.8318394,49.1424051 C79.1574041,49.2468354 77.7020437,49.3512658 76.4241664,49.3512658 C73.0874866,49.3512658 71.1706705,48.2721519 71.1706705,44.5126582 L71.1706705,26.5506329 C71.1706705,26.2025316 71.4901398,25.9588608 71.8806024,25.8892405 L73.6199355,25.6107595 L73.6909286,25.6107595 C74.0458946,25.6107595 74.2943707,25.9240506 74.2943707,26.2721519 L74.2943707,29.9620253 L79.8318394,29.9620253 C80.2223019,29.9620253 80.5062747,30.2056962 80.5062747,30.5886076 L80.5062747,31.7721519 C80.5062747,32.1202532 80.2223019,32.3987342 79.8318394,32.3987342 L74.2943707,32.3987342 L74.2943707,44.5126582 C74.2943707,46.5316456 74.968806,46.8797468 76.9211187,46.8797468 L79.7963428,46.8797468 C80.2932951,46.8797468 80.5417712,47.0189873 80.5417712,47.3670886 L80.5417712,48.5506329 Z M99,40.8575949 C99,45.9746835 96.3022589,49.3512658 91.0842596,49.3512658 C85.8662603,49.3512658 83.2040158,45.9746835 83.2040158,40.8575949 L83.2040158,38.2120253 C83.2040158,33.0949367 85.8662603,29.7183544 91.0842596,29.7183544 C96.3022589,29.7183544 99,33.0949367 99,38.2120253 L99,40.8575949 Z M95.8762997,40.8575949 L95.8762997,38.2120253 C95.8762997,34.6613924 94.4209394,32.3987342 91.0842596,32.3987342 C87.7830764,32.3987342 86.327716,34.6265823 86.327716,38.2120253 L86.327716,40.8575949 C86.327716,44.4082278 87.7475798,46.6708861 91.0842596,46.6708861 C94.3854428,46.6708861 95.8762997,44.443038 95.8762997,40.8575949 Z" id="Crypto" fill="#FFFFFF"></path>
            <path d="M213.823285,48.08 C213.823285,48.4621053 213.575884,48.7747368 213.18711,48.8442105 C211.455301,49.1221053 209.476091,49.3652632 206.153846,49.3652632 C201.735967,49.3652632 197,46.5168421 197,38.5621053 L197,33.9073684 C197,25.4663158 201.948025,23.0694737 206.471933,23.0694737 C209.758836,23.0694737 211.844075,23.3473684 213.18711,23.5557895 C213.505198,23.5905263 213.787942,23.7294737 213.787942,24.0768421 L213.787942,25.8136842 C213.787942,26.0568421 213.64657,26.1610526 213.328482,26.1610526 L213.18711,26.1610526 C211.101871,25.9873684 209.476091,25.9178947 206.471933,25.9178947 C203.185031,25.9178947 200.216216,27.6547368 200.216216,33.9073684 L200.216216,38.5621053 C200.216216,44.2936842 202.866944,46.5515789 206.153846,46.5515789 C208.309771,46.5515789 209.758836,46.4126316 210.607069,46.3431579 L210.607069,36.4084211 C210.607069,36.0263158 210.85447,35.7136842 211.243243,35.7136842 L213.151767,35.7136842 C213.505198,35.7136842 213.823285,36.0263158 213.823285,36.4084211 L213.823285,48.08 Z M233.297297,47.7673684 C233.297297,48.2189474 233.191268,48.4273684 232.555094,48.5663158 C230.681913,49.0178947 228.2079,49.3652632 226.051975,49.3652632 C220.785863,49.3652632 218.347193,45.9957895 218.347193,40.7852632 L218.347193,38.3536842 C218.347193,33.1431579 220.75052,29.7736842 226.051975,29.7736842 C228.172557,29.7736842 230.681913,30.1210526 232.555094,30.5726316 C233.191268,30.7115789 233.297297,30.8852632 233.297297,31.3715789 L233.297297,47.7673684 Z M230.18711,46.4473684 L230.18711,32.6915789 C229.232848,32.5178947 227.536383,32.3442105 226.051975,32.3442105 C222.553015,32.3442105 221.45738,34.6715789 221.45738,38.3536842 L221.45738,40.7852632 C221.45738,44.4326316 222.553015,46.7947368 226.051975,46.7947368 C227.536383,46.7947368 229.197505,46.6210526 230.18711,46.4473684 Z M241.567568,48.4273684 C241.567568,48.7747368 241.320166,49.1221053 240.931393,49.1221053 L239.093555,49.1221053 C238.740125,49.1221053 238.45738,48.8094737 238.45738,48.4273684 L238.45738,23.66 C238.45738,23.3126316 238.704782,23 239.093555,23 L240.931393,23 C241.284823,23 241.567568,23.2778947 241.567568,23.66 L241.567568,48.4273684 Z M261.04158,47.7673684 C261.04158,48.2189474 260.935551,48.4273684 260.299376,48.5663158 C258.426195,49.0178947 255.952183,49.3652632 253.796258,49.3652632 C248.530146,49.3652632 246.091476,45.9957895 246.091476,40.7852632 L246.091476,38.3536842 C246.091476,33.1431579 248.494802,29.7736842 253.796258,29.7736842 C255.91684,29.7736842 258.426195,30.1210526 260.299376,30.5726316 C260.935551,30.7115789 261.04158,30.8852632 261.04158,31.3715789 L261.04158,47.7673684 Z M257.931393,46.4473684 L257.931393,32.6915789 C256.977131,32.5178947 255.280665,32.3442105 253.796258,32.3442105 C250.297297,32.3442105 249.201663,34.6715789 249.201663,38.3536842 L249.201663,40.7852632 C249.201663,44.4326316 250.297297,46.7947368 253.796258,46.7947368 C255.280665,46.7947368 256.941788,46.6210526 257.931393,46.4473684 Z M280.975052,48.74 C280.975052,48.9484211 280.869023,49.1221053 280.515593,49.1221053 L278.076923,49.1221053 C277.829522,49.1221053 277.723493,49.0526316 277.582121,48.8442105 L272.528067,41.5842105 L267.474012,48.7747368 C267.261954,49.0873684 267.191268,49.1221053 266.873181,49.1221053 L264.752599,49.1221053 C264.469854,49.1221053 264.328482,48.9831579 264.328482,48.7747368 C264.328482,48.6705263 264.363825,48.4968421 264.505198,48.3231579 L270.866944,39.3957895 L264.858628,30.8852632 C264.752599,30.7115789 264.681913,30.5726316 264.681913,30.4336842 C264.681913,30.1905263 264.893971,30.0168421 265.212058,30.0168421 L267.509356,30.0168421 C267.7921,30.0168421 267.968815,30.1210526 268.216216,30.5031579 L272.704782,37.0336842 L277.22869,30.5031579 C277.546778,30.0515789 277.652807,30.0168421 277.970894,30.0168421 L280.02079,30.0168421 C280.303534,30.0168421 280.480249,30.1905263 280.480249,30.4336842 C280.480249,30.5726316 280.409563,30.7115789 280.303534,30.8852632 L274.365904,39.1873684 L280.83368,48.3231579 C280.939709,48.4621053 280.975052,48.6010526 280.975052,48.74 Z M299,49.1221053 C299,54.5757895 296.596674,56 291.790021,56 C289.174636,56 286.77131,55.6178947 285.95842,55.4094737 C285.463617,55.2705263 285.286902,55.0968421 285.286902,54.68 L285.286902,53.7073684 C285.286902,53.36 285.569647,53.1168421 285.923077,53.1168421 L286.029106,53.1168421 C287.089397,53.2557895 289.740125,53.5336842 291.790021,53.5336842 C294.970894,53.5336842 295.960499,52.7694737 295.960499,49.1221053 L295.960499,48.9484211 C295.112266,49.1915789 293.168399,49.3652632 292.037422,49.3652632 C287.972973,49.3652632 284.120582,47.9757895 284.120582,42.1747368 L284.120582,30.7115789 C284.120582,30.3294737 284.438669,30.0168421 284.827443,30.0168421 L286.523909,30.0168421 C286.912682,30.0168421 287.230769,30.3294737 287.230769,30.7115789 L287.230769,42.1747368 C287.230769,45.8915789 289.068607,46.76 292.037422,46.76 C293.06237,46.76 294.864865,46.5515789 295.889813,46.3084211 L295.889813,30.7115789 C295.889813,30.3294737 296.2079,30.0168421 296.596674,30.0168421 L298.293139,30.0168421 C298.681913,30.0168421 299,30.3294737 299,30.7115789 L299,49.1221053 Z" id="Galaxy" fill="#FFFFFF"></path>
        </g>
    </g>
</svg>