<?xml version="1.0" encoding="UTF-8"?>
<svg width="111px" height="31px" viewBox="0 0 111 31" version="1.1" xmlns="http://www.w3.org/2000/svg" xmlns:xlink="http://www.w3.org/1999/xlink">
    <!-- Generator: Sketch 48.1 (47250) - http://www.bohemiancoding.com/sketch -->
    <title>onchain-fff</title>
    <desc>Created with Sketch.</desc>
    <defs></defs>
    <g id="Artboard" stroke="none" stroke-width="1" fill="none" fill-rule="evenodd" transform="translate(-1164.000000, -4803.000000)" opacity="0.560688406">
        <g id="Group-28" transform="translate(0.000000, 4681.000000)" fill-rule="nonzero">
            <g id="Group-17" transform="translate(817.000000, 118.000000)">
                <g id="onchain-fff" transform="translate(330.000000, 0.000000)">
                    <g id="onchain" transform="translate(17.469370, 4.819052)" fill="#FCFDFF">
                        <g id="Group">
                            <path d="M7.94226006,5.90154046 C9.38663479,5.90154046 10.7445631,6.2611712 12.0160451,6.98402899 C13.2875271,7.70688678 14.2780584,8.6850824 14.991241,9.91861584 C15.7044235,11.1557456 16.0610148,12.4899756 16.0610148,13.921306 C16.0610148,15.3634253 15.7008216,16.7120405 14.9840371,17.9671518 C14.2672526,19.2222631 13.2875271,20.204055 12.0520645,20.9089313 C10.8166018,21.6138075 9.44786763,21.9734383 7.95666778,21.9734383 C5.7630912,21.9734383 3.88648463,21.1930396 2.33405193,19.6358385 C0.781619244,18.075041 0.007203864,16.1833833 0.007203864,13.9536728 C0.007203864,11.5657246 0.882473339,9.57696663 2.63661422,7.98380245 C4.17463919,6.59562779 5.9431878,5.90154046 7.94226006,5.90154046 Z M8.0034929,9.5122331 C6.81125341,9.5122331 5.81712018,9.92580845 5.0210932,10.7565555 C4.22866817,11.5837062 3.82885371,12.6446169 3.82885371,13.9392875 C3.82885371,15.2699213 4.2214643,16.3452172 5.00668548,17.1687716 C5.79190665,17.992326 6.78603988,18.4059013 7.98908517,18.4059013 C9.19213046,18.4059013 10.1934676,17.9887297 10.9894945,17.1543863 C11.7891234,16.320043 12.1889379,15.2483434 12.1889379,13.9356912 C12.1889379,12.623039 11.7963273,11.558532 11.0111061,10.7385739 C10.2294869,9.92221214 9.22454785,9.5122331 8.0034929,9.5122331 Z" id="Shape"></path>
                            <path d="M18.910143,6.29713427 L22.7498025,6.29713427 L22.7498025,7.86512431 C23.62147,7.13147759 24.4102931,6.62080194 25.1162718,6.33669366 C25.8222505,6.04898906 26.5462388,5.90513677 27.2882368,5.90513677 C28.8046502,5.90513677 30.0941418,6.43379396 31.1531098,7.49110833 C32.0427871,8.39018519 32.4894266,9.72081893 32.4894266,11.4794133 L32.4894266,21.5814408 L28.6893884,21.5814408 L28.6893884,14.8851164 C28.6893884,13.0617885 28.6065439,11.8498329 28.444457,11.2528459 C28.28237,10.6558589 27.9942155,10.1991278 27.5871972,9.88624907 C27.1801789,9.57337033 26.6759084,9.4151328 26.0779877,9.4151328 C25.2999704,9.4151328 24.6336129,9.67406693 24.0789154,10.1955315 C23.5206159,10.7133998 23.1352092,11.4326613 22.9190933,12.3497196 C22.8074334,12.8280285 22.7498025,13.8601688 22.7498025,15.4497366 L22.7498025,21.5814408 L18.910143,21.5814408 L18.910143,6.29713427 Z" id="Shape"></path>
                            <path d="M50.8989011,9.38636234 L47.7003854,11.1413604 C47.0988628,10.5156029 46.504544,10.0768534 45.9174291,9.83590077 C45.3303142,9.59135186 44.6423452,9.46907741 43.8535221,9.46907741 C42.4163512,9.46907741 41.2529272,9.89703799 40.3668519,10.7529592 C39.4807766,11.6088803 39.0341371,12.7057541 39.0341371,14.0435804 C39.0341371,15.3418474 39.462767,16.4063544 40.3164249,17.2263125 C41.1700827,18.0498669 42.2938855,18.4598459 43.6842313,18.4598459 C45.4023528,18.4598459 46.7422715,17.8736478 47.7003854,16.7048479 L50.7296103,18.776321 C49.0871293,20.9089313 46.771087,21.9734383 43.7778815,21.9734383 C41.0872383,21.9734383 38.9765061,21.1786543 37.4528889,19.5854902 C35.9292717,17.992326 35.1656621,16.1294387 35.1656621,13.9932321 C35.1656621,12.5151498 35.5366611,11.1521493 36.2786591,9.90423061 C37.0206571,8.65990824 38.0544116,7.68171263 39.3799225,6.96964376 C40.7054335,6.25757489 42.1930314,5.90154046 43.8319105,5.90154046 C45.3519258,5.90154046 46.717058,6.20363028 47.9273072,6.80780993 C49.1375563,7.41198957 50.1280876,8.27150704 50.8989011,9.38636234 Z" id="Shape"></path>
                            <path d="M54.0866109,0.395593815 L57.9010569,0.395593815 L57.9010569,7.83995015 C58.6502587,7.19261482 59.4066644,6.71070963 60.1666721,6.38704196 C60.9266797,6.06337429 61.6938913,5.90154046 62.4755105,5.90154046 C63.9955258,5.90154046 65.2742117,6.42660134 66.31517,7.47672311 C67.2048472,8.38658888 67.6514868,9.72081893 67.6514868,11.4794133 L67.6514868,21.5814408 L63.8622543,21.5814408 L63.8622543,14.8779238 C63.8622543,13.1085405 63.7794099,11.9109701 63.6101191,11.2816163 C63.4408283,10.6558589 63.1526737,10.1847426 62.7456554,9.87546015 C62.3386371,9.56617771 61.8343666,9.41153649 61.232844,9.41153649 C60.4548266,9.41153649 59.7848673,9.67047063 59.2265678,10.1847426 C58.6682684,10.6990145 58.2828617,11.4038908 58.0667457,12.2921787 C57.9550858,12.7525061 57.8974549,13.7990315 57.8974549,15.4389477 L57.8974549,21.5778445 L54.0830089,21.5778445 L54.0830089,0.395593815 L54.0866109,0.395593815 Z" id="Shape"></path>
                            <path d="M82.3725829,6.29713427 L86.2122424,6.29713427 L86.2122424,21.5814408 L82.3725829,21.5814408 L82.3725829,19.9666987 C81.623381,20.6787676 80.8705772,21.1930396 80.1177734,21.5059183 C79.3649696,21.8187971 78.5473311,21.9770346 77.6648577,21.9770346 C75.6873971,21.9770346 73.9764794,21.2110211 72.5357066,19.6789941 C71.0949338,18.1469672 70.3709454,16.2445206 70.3709454,13.968058 C70.3709454,11.6088803 71.0697202,9.67406693 72.4636679,8.16721413 C73.8612175,6.66036132 75.5541256,5.90513677 77.5495959,5.90513677 C78.4680886,5.90513677 79.3289503,6.07775952 80.1357831,6.42660134 C80.9426159,6.77184685 81.6846138,7.29331143 82.3689809,7.98739876 L82.3689809,6.29713427 L82.3725829,6.29713427 Z M78.3348171,9.44390326 C77.1461795,9.44390326 76.1628521,9.86467123 75.3776309,10.7026109 C74.5924097,11.5405505 74.1997992,12.6158464 74.1997992,13.9249023 C74.1997992,15.2447471 74.5996136,16.3308319 75.3992425,17.1831568 C76.1988714,18.0354817 77.1821988,18.4598459 78.3528267,18.4598459 C79.559474,18.4598459 80.5608111,18.039078 81.3532361,17.2011383 C82.1492631,16.3631987 82.5454756,15.266325 82.5454756,13.9069208 C82.5454756,12.576287 82.1492631,11.5009911 81.3532361,10.6774367 C80.5572091,9.8538823 79.5522701,9.44390326 78.3348171,9.44390326 Z" id="Shape"></path>
                            <path d="M91.3089761,0.00359630741 C91.9825374,0.00359630741 92.5588465,0.248145211 93.0415054,0.733646712 C93.5241643,1.21914821 93.7654938,1.81253893 93.7654938,2.50302996 C93.7654938,3.18632837 93.5277663,3.76893017 93.0487093,4.25083536 C92.5732543,4.73274055 92.0005471,4.97369315 91.3377916,4.97369315 C90.6534245,4.97369315 90.0735135,4.72914424 89.5908546,4.23645013 C89.1081957,3.74375601 88.8668662,3.14676898 88.8668662,2.44548904 C88.8668662,1.76938325 89.1045938,1.19397406 89.5836507,0.719261482 C90.0591057,0.240952596 90.6354149,0.00359630741 91.3089761,0.00359630741 Z M89.3891464,6.29713427 L93.2288059,6.29713427 L93.2288059,21.5814408 L89.3891464,21.5814408 L89.3891464,6.29713427 Z" id="Shape"></path>
                            <path d="M96.4309234,6.29713427 L100.270583,6.29713427 L100.270583,7.86512431 C101.14225,7.13147759 101.931074,6.62080194 102.637052,6.33669366 C103.343031,6.04898906 104.067019,5.90513677 104.809017,5.90513677 C106.325431,5.90513677 107.614922,6.43379396 108.67389,7.49110833 C109.563568,8.39018519 110.010207,9.72081893 110.010207,11.4794133 L110.010207,21.5814408 L106.210169,21.5814408 L106.210169,14.8851164 C106.210169,13.0617885 106.127324,11.8498329 105.965237,11.2528459 C105.803151,10.6522625 105.514996,10.1991278 105.107978,9.88624907 C104.700959,9.57337033 104.196689,9.4151328 103.598768,9.4151328 C102.820751,9.4151328 102.154393,9.67406693 101.599696,10.1955315 C101.041396,10.7133998 100.65599,11.4326613 100.439874,12.3497196 C100.328214,12.8280285 100.270583,13.8601688 100.270583,15.4497366 L100.270583,21.5814408 L96.4309234,21.5814408 L96.4309234,6.29713427 Z" id="Shape"></path>
                        </g>
                    </g>
                    <g id="图层_1_xA0_图像_1_" transform="translate(16.208694, 30.712465)" fill="#3481C5">
                        <path d="M1.22465688,2.02472107 C1.22465688,2.02472107 30.0653264,-3.1072096 78.1583224,3.04247607 C67.5686423,1.83411678 41.4150141,-0.219374752 8.56179236,3.51359234 C6.07645928,2.28725151 1.22465688,2.02472107 1.22465688,2.02472107 Z" id="Shape"></path>
                    </g>
                </g>
            </g>
        </g>
    </g>
</svg>