<?xml version="1.0" encoding="UTF-8"?>
<svg width="138px" height="27px" viewBox="0 0 138 27" version="1.1" xmlns="http://www.w3.org/2000/svg" xmlns:xlink="http://www.w3.org/1999/xlink">
    <!-- Generator: Sketch 48.1 (47250) - http://www.bohemiancoding.com/sketch -->
    <title>Page 1</title>
    <desc>Created with Sketch.</desc>
    <defs></defs>
    <g id="Artboard" stroke="none" stroke-width="1" fill="none" fill-rule="evenodd" transform="translate(-970.000000, -4805.000000)" opacity="0.560688406">
        <g id="Group-28" transform="translate(0.000000, 4681.000000)">
            <g id="Group-17" transform="translate(817.000000, 118.000000)">
                <g id="Page-1" transform="translate(153.000000, 6.000000)">
                    <path d="M91.2063892,11.1407001 C90.6100544,11.1407001 90.0548268,11.2568712 89.5390169,11.488091 C89.023207,11.7198721 88.5800385,12.035274 88.2095113,12.4331741 C87.8389842,12.8321967 87.5484188,13.2951977 87.3378152,13.8232993 C87.1266485,14.3525234 87.0207836,14.9064409 87.0207836,15.4850517 C87.0207836,16.0501934 87.1266485,16.5934478 87.3378152,17.1148149 C87.5484188,17.636182 87.8417997,18.0963769 88.2196474,18.4942771 C88.597495,18.8927385 89.0406635,19.2075791 89.5502791,19.438799 C90.0587685,19.67058 90.6100544,19.7867512 91.2063892,19.7867512 C91.8168017,19.7867512 92.3911751,19.6778758 92.9289463,19.4606863 C93.4661544,19.2434967 93.9312843,18.9393192 94.3226465,18.5481535 C94.7151351,18.1575491 95.02372,17.7001603 95.2500907,17.1799157 C95.4747721,16.6585486 95.5868312,16.0934069 95.5868312,15.4850517 C95.5868312,14.8632274 95.4747721,14.2863002 95.2500907,13.7581986 C95.02372,13.2300969 94.7151351,12.7699021 94.3226465,12.3787365 C93.9312843,11.988132 93.4700962,11.6839545 92.9396454,11.4667649 C92.4091947,11.2490142 91.8303164,11.1407001 91.2063892,11.1407001 Z M91.2711469,10.2281673 C92.0133275,10.2281673 92.7070805,10.3622973 93.3535322,10.6305572 C93.9999838,10.8982559 94.5597164,11.264167 95.0321667,11.7271679 C95.5040538,12.19073 95.8785228,12.7446475 96.1544473,13.3889203 C96.4298087,14.0337543 96.5677709,14.725169 96.5677709,15.4637256 C96.5677709,16.2022822 96.4298087,16.8942581 96.1544473,17.5374085 C95.8785228,18.1828037 95.5040538,18.7367212 95.0321667,19.1997221 C94.5597164,19.6638455 93.9999838,20.0291953 93.3535322,20.2963328 C92.7070805,20.5651539 92.0133275,20.6987227 91.2711469,20.6987227 C90.5447335,20.6987227 89.8661845,20.5612254 89.2338106,20.2862309 C88.6019999,20.0117977 88.0495878,19.6346624 87.5777006,19.1565087 C87.1052503,18.6789162 86.7307813,18.1244376 86.4548568,17.4947563 C86.1778061,16.8645138 86.0398439,16.1949865 86.0398439,15.4850517 C86.0398439,14.7610866 86.1738644,14.0808962 86.4441577,13.4439192 C86.7127618,12.8063809 87.0832889,12.2490962 87.5557392,11.7709425 C88.0270633,11.2927888 88.5834172,10.916776 89.2231115,10.6406591 C89.8616796,10.3662258 90.5447335,10.2281673 91.2711469,10.2281673 Z" id="Fill-1" fill="#FFFFFF"></path>
                    <polygon id="Fill-3" fill="#FFFFFF" points="99.3801172 20.4819821 100.360494 20.4819821 100.360494 2.55963744 99.3801172 2.55963744"></polygon>
                    <path d="M108.338372,11.1407001 C107.742037,11.1407001 107.186809,11.2568712 106.670999,11.488091 C106.15519,11.7198721 105.712021,12.035274 105.341494,12.4331741 C104.970967,12.8321967 104.680401,13.2951977 104.469798,13.8232993 C104.258631,14.3525234 104.152766,14.9064409 104.152766,15.4850517 C104.152766,16.0501934 104.258631,16.5934478 104.469798,17.1148149 C104.680401,17.636182 104.973782,18.0963769 105.35163,18.4942771 C105.729478,18.8927385 106.172646,19.2075791 106.682262,19.438799 C107.190751,19.67058 107.742037,19.7867512 108.338372,19.7867512 C108.948784,19.7867512 109.523158,19.6778758 110.060929,19.4606863 C110.598137,19.2434967 111.063267,18.9393192 111.454629,18.5481535 C111.847118,18.1575491 112.155703,17.7001603 112.382073,17.1799157 C112.606755,16.6585486 112.718814,16.0934069 112.718814,15.4850517 C112.718814,14.8632274 112.606755,14.2863002 112.382073,13.7581986 C112.155703,13.2300969 111.847118,12.7699021 111.454629,12.3787365 C111.063267,11.988132 110.602079,11.6839545 110.071065,11.4667649 C109.541177,11.2490142 108.962299,11.1407001 108.338372,11.1407001 M108.40313,10.2281673 C109.14531,10.2281673 109.839063,10.3622973 110.485515,10.6305572 C111.131966,10.8982559 111.691699,11.264167 112.164149,11.7271679 C112.636036,12.19073 113.010505,12.7446475 113.285867,13.3889203 C113.561791,14.0337543 113.699753,14.725169 113.699753,15.4637256 C113.699753,16.2022822 113.561791,16.8942581 113.285867,17.5374085 C113.010505,18.1828037 112.636036,18.7367212 112.164149,19.1997221 C111.691699,19.6638455 111.131966,20.0291953 110.485515,20.2963328 C109.839063,20.5651539 109.14531,20.6987227 108.40313,20.6987227 C107.676716,20.6987227 106.997604,20.5612254 106.365793,20.2862309 C105.733982,20.0117977 105.18157,19.6346624 104.709683,19.1565087 C104.237233,18.6789162 103.862764,18.1244376 103.586839,17.4947563 C103.309789,16.8645138 103.171826,16.1949865 103.171826,15.4850517 C103.171826,14.7610866 103.305847,14.0808962 103.57614,13.4439192 C103.844744,12.8063809 104.215272,12.2490962 104.687722,11.7709425 C105.159046,11.2927888 105.7154,10.916776 106.355094,10.6406591 C106.993662,10.3662258 107.676716,10.2281673 108.40313,10.2281673" id="Fill-5" fill="#FFFFFF"></path>
                    <path d="M120.566782,11.1407001 C119.985088,11.1407001 119.454074,11.2602385 118.97543,11.4993153 C118.495096,11.7378309 118.085151,12.0571613 117.743342,12.4550615 C117.402097,12.8535228 117.136308,13.3097892 116.947666,13.8232993 C116.758461,14.3379319 116.664421,14.8632274 116.664421,15.3986249 C116.664421,15.9777969 116.754519,16.5311532 116.93753,17.0603773 C117.118852,17.5890401 117.384641,18.0559695 117.733206,18.4617267 C118.081772,18.8674839 118.498474,19.1896203 118.985566,19.4286971 C119.47322,19.6672127 120.021127,19.7867512 120.630977,19.7867512 C121.271234,19.7867512 121.838287,19.6672127 122.332136,19.4286971 C122.825984,19.1896203 123.239871,18.8635554 123.574359,18.4505024 C123.908847,18.0380107 124.163373,17.559857 124.336811,17.0171638 C124.511939,16.4739094 124.598095,15.8986659 124.598095,15.2903107 C124.598095,14.7105774 124.503492,14.1678842 124.31485,13.6605475 C124.125645,13.1537719 123.854225,12.7160256 123.498339,12.3461861 C123.141326,11.9769078 122.716177,11.6839545 122.222329,11.4667649 C121.72848,11.2490142 121.176631,11.1407001 120.566782,11.1407001 L120.566782,11.1407001 Z M125.513714,20.0039407 C125.513714,20.7862719 125.466412,21.5248285 125.372373,22.2196105 C125.277207,22.9143925 124.990584,23.5951442 124.511939,24.2618655 C124.046809,24.9134341 123.461737,25.3983223 122.757285,25.7176526 C122.052269,26.0352993 121.300516,26.1952451 120.501461,26.1952451 C119.847689,26.1952451 119.225451,26.1004001 118.637,25.9123936 C118.047986,25.7243872 117.528234,25.4454642 117.079434,25.0761859 C116.628382,24.7069076 116.267991,24.257937 116.000513,23.7298353 C115.73022,23.2006113 115.575364,22.5883276 115.531442,21.8935456 L116.512381,21.8935456 C116.541663,22.415474 116.664421,22.8857706 116.882908,23.3061194 C117.100832,23.7259069 117.387456,24.0805936 117.743342,24.3701797 C118.099229,24.6597657 118.506921,24.884251 118.963604,25.0430743 C119.42254,25.2030201 119.904563,25.2827124 120.414179,25.2827124 C121.052747,25.2827124 121.656402,25.1665412 122.222329,24.9353214 C122.789382,24.7035403 123.261269,24.318548 123.63968,23.7837118 C124.031605,23.2045398 124.279374,22.5961846 124.380171,21.9586464 C124.482094,21.3216694 124.5339,20.662805 124.5339,19.9820534 L124.5339,18.744017 L124.489978,18.744017 C124.039489,19.3523721 123.464552,19.8294034 122.767421,20.1779168 C122.070852,20.5253078 121.335992,20.6987227 120.566782,20.6987227 C119.839805,20.6987227 119.174208,20.5578581 118.572242,20.2750067 C117.96915,19.9921552 117.45334,19.6094078 117.024812,19.1245195 C116.595159,18.6390701 116.264049,18.0778569 116.032047,17.4408798 C115.799483,16.8033416 115.683482,16.1371815 115.683482,15.4418383 C115.683482,14.7178732 115.807366,14.0410501 116.054009,13.4108076 C116.301778,12.7811263 116.646402,12.2305762 117.089007,11.7602795 C117.532176,11.2894216 118.059811,10.916776 118.670223,10.6406591 C119.280636,10.3662258 119.956369,10.2281673 120.696298,10.2281673 C121.525197,10.2281673 122.247669,10.3948477 122.865965,10.7282083 C123.483698,11.0610078 124.024848,11.5464572 124.489978,12.1834342 L124.5339,12.1834342 L124.5339,10.4459181 L125.513714,10.4459181 L125.513714,20.0039407 Z" id="Fill-6" fill="#FFFFFF"></path>
                    <polygon id="Fill-7" fill="#FFFFFF" points="127.476438 10.4457497 128.499611 10.4457497 132.793897 19.5261799 136.652898 10.4457497 137.654673 10.4457497 130.897902 26.3471655 129.895564 26.3471655 132.315252 20.6547797"></polygon>
                    <path d="M45.8168108,18.4803029 C46.6096714,18.4803029 47.3608617,18.3282141 48.0692556,18.0240365 C48.7759602,17.7204201 49.3998874,17.3028775 49.939911,16.7708474 C50.4782453,16.2405008 50.9039574,15.6153093 51.215921,14.8958339 C51.5278846,14.1786034 51.6844295,13.3990782 51.6844295,12.5555747 C51.6844295,11.7541622 51.5413993,10.9920347 51.2559019,10.2742429 C50.9687152,9.55532879 50.5666538,8.92733118 50.046339,8.3896889 C49.5271505,7.85260783 48.9060389,7.42552456 48.1858196,7.10731665 C47.4644742,6.79023118 46.6744292,6.63084662 45.8168108,6.63084662 C44.9591925,6.63084662 44.1708368,6.79023118 43.4489282,7.10731665 C42.7275828,7.42552456 42.1081604,7.85260783 41.5872826,8.3896889 C41.0680941,8.92733118 40.6649064,9.55532879 40.3794091,10.2742429 C40.0939117,10.9920347 39.9503183,11.7541622 39.9503183,12.5555747 C39.9503183,13.3990782 40.1074263,14.1786034 40.41939,14.8958339 C40.7296642,15.6153093 41.1559394,16.2405008 41.6953999,16.7708474 C42.2337342,17.3028775 42.8576615,17.7204201 43.5660553,18.0240365 C44.2744492,18.3282141 45.0239502,18.4803029 45.8168108,18.4803029 M45.8168108,4.92307474 C46.8698288,4.92307474 47.86372,5.12342787 48.7996108,5.52413412 C49.7355017,5.92652401 50.5503236,6.4731457 51.2457659,7.16624404 C51.9406451,7.85878118 52.491931,8.66805066 52.9018759,9.59349129 C53.3112578,10.5206156 53.5156672,11.5077896 53.5156672,12.5555747 C53.5156672,13.6437672 53.3140733,14.6545122 52.9120119,15.5861262 C52.5082612,16.5188626 51.9597909,17.3242036 51.2649117,18.004394 C50.5694693,18.6840233 49.7552106,19.2182983 48.8187566,19.6066578 C47.8828658,19.9955786 46.8833434,20.1903196 45.8168108,20.1903196 C44.7519675,20.1903196 43.7513189,19.9955786 42.8165543,19.6066578 C41.8801004,19.2182983 41.0652785,18.6840233 40.3703993,18.004394 C39.6755201,17.3242036 39.1253604,16.5188626 38.7227359,15.5861262 C38.3206745,14.6545122 38.1185176,13.6437672 38.1185176,12.5555747 C38.1185176,11.5077896 38.3234901,10.5206156 38.733435,9.59349129 C39.1416906,8.66805066 39.6946658,7.85878118 40.3895451,7.16624404 C41.0849874,6.4731457 41.8992462,5.92652401 42.8357001,5.52413412 C43.7715909,5.12342787 44.7654822,4.92307474 45.8168108,4.92307474" id="Fill-8" fill="#FFFFFF"></path>
                    <polygon id="Fill-9" fill="#FFFFFF" points="56.0292266 4.53381724 67.0611382 16.0521577 67.0611382 5.23252772 68.893502 5.23252772 68.893502 20.4818137 57.8615905 8.9629121 57.8615905 20.1894217 56.0292266 20.1894217"></polygon>
                    <polygon id="Fill-10" fill="#FFFFFF" points="78.6958602 20.1902635 76.8651857 20.1902635 76.8651857 6.90354013 71.407512 6.90354013 71.407512 5.23224711 84.153534 5.23224711 84.153534 6.90354013 78.6958602 6.90354013"></polygon>
                    <path d="M3.75313615,3.74104743 L3.75313615,3.74104743 L0,0 L0,12.7715296 C0,16.0405967 1.25123309,19.3085414 3.75313615,21.8020118 C8.7575054,26.790075 16.8713747,26.790075 21.8757439,21.8020118 L3.75313615,3.74104743 Z" id="Fill-11" fill="#32A4BE"></path>
                    <path d="M23.0017411,21.802124 L23.0017411,21.802124 L26.7554404,25.5431714 L26.7554404,12.7716418 L26.7548772,12.7716418 C26.7554404,9.50313596 25.5036442,6.23463007 23.0017411,3.74059846 C17.9973718,-1.24634235 9.88406566,-1.24634235 4.87913331,3.74059846 L23.0017411,21.802124 Z" id="Fill-12" fill="#32A4BE"></path>
                </g>
            </g>
        </g>
    </g>
</svg>