<?xml version="1.0" encoding="UTF-8"?>
<svg width="140px" height="48px" viewBox="0 0 140 48" version="1.1" xmlns="http://www.w3.org/2000/svg" xmlns:xlink="http://www.w3.org/1999/xlink">
    <!-- Generator: Sketch 48.1 (47250) - http://www.bohemiancoding.com/sketch -->
    <title>FFF_logo-03</title>
    <desc>Created with Sketch.</desc>
    <defs>
        <linearGradient x1="-27.3060751%" y1="-7.5605306%" x2="66.1620478%" y2="70.9457004%" id="linearGradient-1">
            <stop stop-color="#FFD8FF" offset="0%"></stop>
            <stop stop-color="#6C88FF" offset="100%"></stop>
        </linearGradient>
        <linearGradient x1="33.3074403%" y1="18.7217822%" x2="119.066894%" y2="128.206766%" id="linearGradient-2">
            <stop stop-color="#69D8FF" offset="0%"></stop>
            <stop stop-color="#6C88FF" offset="100%"></stop>
        </linearGradient>
        <linearGradient x1="49.7551163%" y1="103.9%" x2="49.7551163%" y2="2.12408377%" id="linearGradient-3">
            <stop stop-color="#69D8FF" offset="0%"></stop>
            <stop stop-color="#6C88FF" offset="100%"></stop>
        </linearGradient>
    </defs>
    <g id="Artboard" stroke="none" stroke-width="1" fill="none" fill-rule="evenodd" transform="translate(-511.000000, -4794.000000)" opacity="0.560688406">
        <g id="Group-28" transform="translate(0.000000, 4681.000000)" fill-rule="nonzero">
            <g id="FFF_logo-03" transform="translate(511.000000, 113.000000)">
                <g id="Group">
                    <g transform="translate(52.984615, 30.841629)" fill="#FFFFFF" id="Shape">
                        <polygon points="0.129230769 6.84162896 0.129230769 0.065158371 3.94153846 0.065158371 3.94153846 1.08597285 1.33538462 1.08597285 1.33538462 3.14932127 3.59692308 3.14932127 3.59692308 4.17013575 1.33538462 4.17013575 1.33538462 6.84162896"></polygon>
                        <polygon points="6.35384615 6.84162896 6.35384615 0.065158371 10.1876923 0.065158371 10.1876923 1.08597285 7.56 1.08597285 7.56 2.91040724 9.82153846 2.91040724 9.82153846 3.93122172 7.56 3.93122172 7.56 5.84253394 10.3169231 5.84253394 10.3169231 6.86334842 6.35384615 6.86334842"></polygon>
                        <polygon points="12.88 6.84162896 12.88 0.065158371 16.7138462 0.065158371 16.7138462 1.08597285 14.0861538 1.08597285 14.0861538 2.91040724 16.3476923 2.91040724 16.3476923 3.93122172 14.0861538 3.93122172 14.0861538 5.84253394 16.8430769 5.84253394 16.8430769 6.86334842 12.88 6.86334842"></polygon>
                        <polygon points="20.5907692 0.0868778281 20.5907692 5.84253394 23.2184615 5.84253394 23.2184615 6.86334842 19.3846154 6.86334842 19.3846154 0.0868778281"></polygon>
                        <polygon points="29.4 6.84162896 29.4 0.065158371 33.2123077 0.065158371 33.2123077 1.08597285 30.6061538 1.08597285 30.6061538 3.14932127 32.8676923 3.14932127 32.8676923 4.17013575 30.6061538 4.17013575 30.6061538 6.84162896"></polygon>
                        <path d="M37.6276923,0.0868778281 C39.0923077,0.0868778281 39.9323077,0.65158371 39.9323077,2.04162896 C39.9323077,3.19276018 39.2646154,3.77918552 38.4676923,3.90950226 L38.4676923,3.95294118 C38.7907692,4.10497738 39.0061538,4.3438914 39.3292308,4.90859729 L40.4276923,6.86334842 L39.0061538,6.86334842 L37.8646154,4.66968326 C37.6923077,4.36561086 37.4553846,4.23529412 37.0892308,4.23529412 L36.8307692,4.23529412 L36.8307692,6.86334842 L35.6461538,6.86334842 L35.6461538,0.0868778281 L37.6276923,0.0868778281 Z M36.8092308,3.2361991 L37.4769231,3.2361991 C38.3169231,3.2361991 38.7046154,2.88868778 38.7046154,2.15022624 C38.7046154,1.41176471 38.2738462,1.08597285 37.4769231,1.08597285 L36.8092308,1.08597285 L36.8092308,3.2361991 Z"></path>
                        <polygon points="42.6892308 6.84162896 42.6892308 0.065158371 46.5230769 0.065158371 46.5230769 1.08597285 43.8953846 1.08597285 43.8953846 2.91040724 46.1569231 2.91040724 46.1569231 3.93122172 43.8953846 3.93122172 43.8953846 5.84253394 46.6523077 5.84253394 46.6523077 6.86334842 42.6892308 6.86334842"></polygon>
                        <polygon points="49.1938462 6.84162896 49.1938462 0.065158371 53.0276923 0.065158371 53.0276923 1.08597285 50.4 1.08597285 50.4 2.91040724 52.6615385 2.91040724 52.6615385 3.93122172 50.4 3.93122172 50.4 5.84253394 53.1569231 5.84253394 53.1569231 6.86334842 49.1938462 6.86334842"></polygon>
                        <polygon points="59.5753846 6.79819005 59.5753846 0.021719457 63.3876923 0.021719457 63.3876923 1.04253394 60.7815385 1.04253394 60.7815385 3.10588235 63.0430769 3.10588235 63.0430769 4.12669683 60.7815385 4.12669683 60.7815385 6.79819005"></polygon>
                        <path d="M69.5907692,4.40904977 L69.5907692,0.021719457 L70.7969231,0.021719457 L70.7969231,4.23529412 C70.7969231,6.14660633 69.6553846,6.88506787 68.1692308,6.88506787 C66.5107692,6.88506787 65.7569231,5.90769231 65.7569231,4.47420814 L65.7569231,-5.68434189e-14 L66.9630769,-5.68434189e-14 L66.9630769,4.23529412 C66.9630769,5.29954751 67.4153846,5.82081448 68.3415385,5.82081448 C69.1169231,5.86425339 69.5907692,5.45158371 69.5907692,4.40904977 Z"></path>
                        <path d="M74.7384615,1.52036199 C74.7815385,2.15022624 74.8030769,2.67149321 74.8030769,3.67058824 L74.8030769,6.79819005 L73.6615385,6.79819005 L73.6615385,0.021719457 L75.1476923,0.021719457 L76.8492308,3.30135747 C77.1507692,3.88778281 77.4738462,4.56108597 77.7323077,5.16923077 L77.7753846,5.16923077 C77.7323077,4.3438914 77.7323077,3.51855204 77.7323077,2.86696833 L77.7323077,0.021719457 L78.8523077,0.021719457 L78.8523077,6.79819005 L77.3876923,6.79819005 L75.6,3.38823529 C75.2984615,2.7800905 75.0184615,2.1719457 74.76,1.52036199 L74.7384615,1.52036199 Z"></path>
                        <path d="M81.7815385,0.021719457 L83.7415385,0.021719457 C85.8738462,0.021719457 86.8215385,1.08597285 86.8215385,3.27963801 C86.8215385,5.19095023 86.0676923,6.79819005 83.7415385,6.79819005 L81.76,6.79819005 L81.76,0.021719457 L81.7815385,0.021719457 Z M82.9876923,5.77737557 L83.6769231,5.77737557 C85.0769231,5.77737557 85.5938462,4.9520362 85.5938462,3.40995475 C85.5938462,1.62895928 84.8615385,1.04253394 83.6553846,1.04253394 L82.9661538,1.04253394 L82.9661538,5.77737557 L82.9876923,5.77737557 Z"></path>
                    </g>
                    <g transform="translate(52.984615, 10.859729)" fill="#FFFFFF" id="Shape">
                        <path d="M3.14461538,11.8588235 L3.14461538,13.2054299 C3.14461538,13.9438914 2.56307692,14.5303167 1.83076923,14.5303167 L1.44307692,14.5303167 C0.710769231,14.5303167 0.129230769,13.9438914 0.129230769,13.2054299 L0.129230769,1.49864253 C0.129230769,0.760180995 0.710769231,0.173755656 1.44307692,0.173755656 L9.15384615,0.173755656 C9.88615385,0.173755656 10.4676923,0.760180995 10.4676923,1.49864253 C10.4676923,2.23710407 9.88615385,2.82352941 9.15384615,2.82352941 L4.45846154,2.82352941 C3.72615385,2.82352941 3.14461538,3.40995475 3.14461538,4.14841629 L3.14461538,4.73484163 C3.14461538,5.47330317 3.72615385,6.05972851 4.45846154,6.05972851 L8.31384615,6.05972851 C9.04615385,6.05972851 9.62769231,6.64615385 9.62769231,7.38461538 L9.62769231,7.51493213 C9.62769231,8.25339367 9.04615385,8.839819 8.31384615,8.839819 L4.45846154,8.839819 C3.72615385,8.839819 3.14461538,9.42624434 3.14461538,10.1647059 L3.14461538,11.8588235 Z"></path>
                        <path d="M18.0276923,11.8588235 L18.0276923,13.2054299 C18.0276923,13.9438914 17.4461538,14.5303167 16.7138462,14.5303167 L16.3261538,14.5303167 C15.5938462,14.5303167 15.0123077,13.9438914 15.0123077,13.2054299 L15.0123077,1.49864253 C15.0123077,0.760180995 15.5938462,0.173755656 16.3261538,0.173755656 L24.0369231,0.173755656 C24.7692308,0.173755656 25.3507692,0.760180995 25.3507692,1.49864253 C25.3507692,2.23710407 24.7692308,2.82352941 24.0369231,2.82352941 L19.3415385,2.82352941 C18.6092308,2.82352941 18.0276923,3.40995475 18.0276923,4.14841629 L18.0276923,4.73484163 C18.0276923,5.47330317 18.6092308,6.05972851 19.3415385,6.05972851 L23.1969231,6.05972851 C23.9292308,6.05972851 24.5107692,6.64615385 24.5107692,7.38461538 L24.5107692,7.51493213 C24.5107692,8.25339367 23.9292308,8.839819 23.1969231,8.839819 L19.3415385,8.839819 C18.6092308,8.839819 18.0276923,9.42624434 18.0276923,10.1647059 L18.0276923,11.8588235 Z"></path>
                        <path d="M31.9630769,11.8588235 L31.9630769,13.2054299 C31.9630769,13.9438914 31.3815385,14.5303167 30.6492308,14.5303167 L30.2615385,14.5303167 C29.5292308,14.5303167 28.9476923,13.9438914 28.9476923,13.2054299 L28.9476923,1.49864253 C28.9476923,0.760180995 29.5292308,0.173755656 30.2615385,0.173755656 L37.9723077,0.173755656 C38.7046154,0.173755656 39.2861538,0.760180995 39.2861538,1.49864253 C39.2861538,2.23710407 38.7046154,2.82352941 37.9723077,2.82352941 L33.2769231,2.82352941 C32.5446154,2.82352941 31.9630769,3.40995475 31.9630769,4.14841629 L31.9630769,4.73484163 C31.9630769,5.47330317 32.5446154,6.05972851 33.2769231,6.05972851 L37.1323077,6.05972851 C37.8646154,6.05972851 38.4461538,6.64615385 38.4461538,7.38461538 L38.4461538,7.51493213 C38.4461538,8.25339367 37.8646154,8.839819 37.1323077,8.839819 L33.2769231,8.839819 C32.5446154,8.839819 31.9630769,9.42624434 31.9630769,10.1647059 L31.9630769,11.8588235 Z"></path>
                    </g>
                    <g id="Shape">
                        <path d="M32.2,13.2923077 L14.6030769,13.2923077 C11.0061538,13.2923077 8.05538462,10.3167421 8.05538462,6.68959276 C8.05538462,3.06244344 11.0061538,0.0868778281 14.6030769,0.0868778281 L32.2,0.0868778281 C35.7969231,0.0868778281 38.7476923,3.06244344 38.7476923,6.68959276 C38.7261538,10.3167421 35.7969231,13.2923077 32.2,13.2923077 Z" fill="#6C88FF"></path>
                        <path d="M24.2092308,30.6027149 L6.61230769,30.6027149 C3.01538462,30.6027149 0.0646153846,27.6271493 0.0646153846,24 C0.0646153846,20.3728507 3.01538462,17.3972851 6.61230769,17.3972851 L24.2092308,17.3972851 C27.8061538,17.3972851 30.7569231,20.3728507 30.7569231,24 C30.7353846,27.6488688 27.8061538,30.6027149 24.2092308,30.6027149 Z" fill="#69D8FF"></path>
                        <path d="M21.1507692,41.3321267 L21.1507692,34.7511312 L14.6030769,34.7511312 C11.0061538,34.7511312 8.05538462,37.7266968 8.05538462,41.3538462 C8.05538462,44.9809955 11.0061538,47.9565611 14.6030769,47.9565611 C18.2,47.9348416 21.1507692,44.959276 21.1507692,41.3321267 Z" fill="#FC4F68"></path>
                        <path d="M19.1907692,11.3375566 L23.8215385,6.6678733 L19.1907692,1.99819005 C16.6492308,-0.564705882 12.4923077,-0.564705882 9.95076923,1.99819005 C7.40923077,4.56108597 7.40923077,8.75294118 9.95076923,11.3158371 C12.4923077,13.9004525 16.6492308,13.9004525 19.1907692,11.3375566 Z" fill="url(#linearGradient-1)"></path>
                        <path d="M19.6,19.3520362 L14.9692308,24.0217195 L19.6,28.6696833 C22.1415385,31.2325792 26.2984615,31.2325792 28.84,28.6696833 C31.3815385,26.1067873 31.3815385,21.9149321 28.84,19.3520362 C26.2984615,16.7891403 22.1415385,16.7891403 19.6,19.3520362 Z" fill="url(#linearGradient-2)"></path>
                        <path d="M23.6061538,17.4190045 C23.5846154,17.4190045 23.5630769,17.4190045 23.5415385,17.4190045 L14.4307692,17.4190045 C14.4092308,17.4190045 14.3876923,17.4190045 14.3661538,17.4190045 C14.9046154,17.3972851 15.4,17.1800905 15.7446154,16.8108597 C16.1107692,16.441629 16.3476923,15.920362 16.3476923,15.3339367 C16.3476923,14.2045249 15.4646154,13.2923077 14.3661538,13.2705882 C14.3876923,13.2705882 18.0707692,13.2705882 18.0923077,13.2705882 L23.5630769,13.2705882 C23.5846154,13.2705882 23.6061538,13.2705882 23.6276923,13.2705882 C23.0892308,13.2923077 22.5938462,13.5095023 22.2492308,13.878733 C21.8830769,14.2479638 21.6461538,14.7692308 21.6461538,15.3556561 C21.6246154,16.4633484 22.5076923,17.3972851 23.6061538,17.4190045 Z" fill="url(#linearGradient-3)"></path>
                    </g>
                </g>
            </g>
        </g>
    </g>
</svg>