<?xml version="1.0" encoding="UTF-8"?>
<svg width="136px" height="38px" viewBox="0 0 136 38" version="1.1" xmlns="http://www.w3.org/2000/svg" xmlns:xlink="http://www.w3.org/1999/xlink">
    <!-- Generator: Sketch 48.1 (47250) - http://www.bohemiancoding.com/sketch -->
    <title>Group 18</title>
    <desc>Created with Sketch.</desc>
    <defs>
        <linearGradient x1="1.08329635%" y1="25.5848494%" x2="98.8314134%" y2="74.3659746%" id="linearGradient-1">
            <stop stop-color="#0097E0" offset="0%"></stop>
            <stop stop-color="#00A45C" offset="55.89%"></stop>
            <stop stop-color="#B5D100" offset="99.9%"></stop>
        </linearGradient>
        <linearGradient x1="84.6333333%" y1="13.994%" x2="1.30689655%" y2="98.57%" id="linearGradient-2">
            <stop stop-color="#1B9C42" offset="0%"></stop>
            <stop stop-color="#009946" offset="99.9%"></stop>
        </linearGradient>
        <linearGradient x1="-0.32183908%" y1="50.216%" x2="99.7735632%" y2="50.216%" id="linearGradient-3">
            <stop stop-color="#00916B" offset="0%"></stop>
            <stop stop-color="#009071" offset="99.9%"></stop>
        </linearGradient>
        <linearGradient x1="7.47241379%" y1="7.76326531%" x2="99.1298851%" y2="98.9959184%" id="linearGradient-4">
            <stop stop-color="#009351" offset="0.03205128%"></stop>
            <stop stop-color="#00964B" offset="99.9%"></stop>
        </linearGradient>
        <linearGradient x1="1.05057471%" y1="0.218%" x2="85.7655172%" y2="87.21%" id="linearGradient-5">
            <stop stop-color="#57A435" offset="0%"></stop>
            <stop stop-color="#6DA92F" offset="99.9%"></stop>
        </linearGradient>
        <linearGradient x1="4.87701149%" y1="2.082%" x2="84.0367816%" y2="86.658%" id="linearGradient-6">
            <stop stop-color="#0086B5" offset="0%"></stop>
            <stop stop-color="#0089A8" offset="99.9%"></stop>
        </linearGradient>
        <linearGradient x1="43.2555556%" y1="7.48888889%" x2="62.4333333%" y2="123.276389%" id="linearGradient-7">
            <stop stop-color="#79AC2B" offset="0%"></stop>
            <stop stop-color="#73AC2D" offset="99.9%"></stop>
        </linearGradient>
    </defs>
    <g id="Artboard" stroke="none" stroke-width="1" fill="none" fill-rule="evenodd" transform="translate(-316.000000, -4800.000000)" opacity="0.560688406">
        <g id="Group-28" transform="translate(0.000000, 4681.000000)" fill-rule="nonzero">
            <g id="Group-18" transform="translate(316.000000, 119.000000)">
                <g id="Zeepin-Logo_SL">
                    <g id="Group">
                        <g id="Shape">
                            <path d="M32.7908129,26.625 L32.7908129,19.6038889 L32.7511146,19.6038889 L32.7511146,19.6038889 L32.7511146,11.1233333 C32.7511146,10.1372222 32.2350364,9.23 31.3616734,8.71722222 L16.4748031,0.118333333 L13.9738089,1.57777778 L8.93212216,4.49666667 L1.54823451,8.71722222 C0.674871452,9.23 0.158793283,10.1372222 0.158793283,11.1233333 L0.158793283,26.6644444 C0.158793283,27.6505556 0.674871452,28.5577778 1.54823451,29.0705556 L16.4748031,37.63 L18.9757973,36.21 L24.017484,33.2911111 L31.4013717,29.0705556 C32.2350364,28.5183333 32.7908129,27.6111111 32.7908129,26.625 Z M30.2898187,12.3461111 L30.2898187,16.7244444 L26.4787799,14.555 L30.2898187,12.3461111 Z M29.0591708,18.8544444 L16.4748031,26.1122222 L11.4331164,23.1933333 L17.7451494,19.5644444 L24.0571824,15.9355556 L29.0591708,18.8544444 Z M16.4748031,2.99777778 L29.0591708,10.2161111 L24.017484,13.135 L11.393418,5.87722222 L16.4748031,2.99777778 Z M2.62008917,10.9261111 L8.93212216,7.29722222 L21.5164898,14.5155556 L8.93212216,21.7733333 L2.62008917,18.1444444 L2.62008917,10.9261111 Z M2.62008917,25.3627778 L2.62008917,20.9844444 L6.43112796,23.1538889 L2.62008917,25.3627778 Z M3.85073711,27.5322222 L8.89242384,24.6133333 L13.9341106,27.5322222 L13.9341106,27.5322222 L8.89242384,30.4511111 L3.85073711,27.5322222 Z M16.4748031,34.7505556 L11.4331164,31.8316667 L16.4748031,28.9127778 L16.4748031,28.9127778 L16.4748031,28.9127778 L21.5164898,31.8316667 L16.4748031,34.7505556 Z M24.017484,30.4116667 L18.9757973,27.4927778 L30.329517,20.9844444 L30.329517,26.7827778 L24.017484,30.4116667 Z" fill="url(#linearGradient-1)"></path>
                            <polygon fill="url(#linearGradient-2)" points="24.017484 15.975 26.4787799 14.555 27.4712379 15.1072222 24.9702437 16.5272222"></polygon>
                            <polygon fill="url(#linearGradient-3)" points="9.88488186 25.1655556 12.3858761 23.7455556 11.393418 23.1933333 8.93212216 24.6133333"></polygon>
                            <polygon fill="url(#linearGradient-4)" points="13.0210492 28.045 15.5220434 29.465 16.4748031 28.9522222 13.9738089 27.5322222"></polygon>
                            <polygon fill="url(#linearGradient-5)" points="20.5637301 32.3838889 23.0647243 33.8038889 24.017484 33.2516667 21.5164898 31.8316667"></polygon>
                            <polygon fill="url(#linearGradient-6)" points="5.47836826 6.42944444 7.97936247 7.84944444 8.93212216 7.29722222 6.43112796 5.87722222"></polygon>
                        </g>
                        <polygon id="Shape" fill="url(#linearGradient-7)" points="30.2898187 21.0238889 32.7908129 19.6038889 32.7908129 21.0238889 30.2898187 22.4438889"></polygon>
                    </g>
                    <g id="Group" transform="translate(46.447035, 11.438889)" fill="#FFFFFF">
                        <polygon id="Shape" points="17.1099762 0.315555556 17.1099762 14.5155556 28.5033943 14.5155556 28.5033943 12.0305556 19.5712721 12.0305556 19.5712721 8.48055556 27.7491262 8.48055556 27.7491262 5.99555556 19.5712721 5.99555556 19.5712721 2.80055556 28.7415842 2.80055556 28.7415842 0.315555556"></polygon>
                        <polygon id="Shape" points="34.1802541 0.315555556 34.1802541 14.5155556 45.6133705 14.5155556 45.6133705 12.0305556 36.6812483 12.0305556 36.6812483 8.48055556 44.8591024 8.48055556 44.8591024 5.99555556 36.6812483 5.99555556 36.6812483 2.80055556 45.8118621 2.80055556 45.8118621 0.315555556"></polygon>
                        <path d="M61.6117938,0.315555556 L51.2505321,0.315555556 L51.2505321,14.5155556 L53.7515263,14.5155556 L53.7515263,9.70333333 L61.6117938,9.70333333 C62.3660619,9.70333333 62.9615367,9.11166667 62.9615367,8.36222222 L62.9615367,1.65666667 C62.9615367,0.907222222 62.3660619,0.315555556 61.6117938,0.315555556 Z M60.4605425,7.21833333 L53.7515263,7.21833333 L53.7515263,2.80055556 L60.4605425,2.80055556 L60.4605425,7.21833333 Z" id="Shape"></path>
                        <rect id="Rectangle-path" x="68.0429217" y="0.473333333" width="2.50099421" height="14.0422222"></rect>
                        <path d="M86.2247526,0.473333333 L86.2247526,11.0838889 L78.602675,0.473333333 L75.6649993,0.473333333 L75.6649993,14.5155556 L78.1659935,14.5155556 L78.1659935,3.23444444 L85.7483728,13.8055556 C86.0659593,14.2394444 86.6217358,14.4761111 87.137814,14.4761111 L88.7257468,14.4761111 L88.7257468,14.5155556 L88.7257468,0.473333333 L86.2247526,0.473333333 Z" id="Shape"></path>
                        <path d="M2.50099421,11.9911111 L11.631608,2.80055556 L11.631608,0.276111111 L0,0.276111111 L0,2.76111111 L8.69393224,2.76111111 L1.03215634,10.4527778 C0.357284886,11.1233333 0,12.0305556 0,12.9377778 L0,14.4366667 L11.7904013,14.4366667 L11.7904013,11.9516667 L2.50099421,11.9516667 L2.50099421,11.9911111 Z" id="Shape"></path>
                    </g>
                </g>
            </g>
        </g>
    </g>
</svg>