<?xml version="1.0" encoding="UTF-8"?>
<svg width="39px" height="43px" viewBox="0 0 39 43" version="1.1" xmlns="http://www.w3.org/2000/svg" xmlns:xlink="http://www.w3.org/1999/xlink">
    <!-- Generator: Sketch 48.1 (47250) - http://www.bohemiancoding.com/sketch -->
    <title>Group</title>
    <desc>Created with Sketch.</desc>
    <defs>
        <linearGradient x1="51.3471723%" y1="55.5857315%" x2="183.641079%" y2="296.532814%" id="linearGradient-1">
            <stop stop-color="#5841E0" offset="0%"></stop>
            <stop stop-color="#3925CC" offset="100%"></stop>
        </linearGradient>
        <linearGradient x1="39.0363807%" y1="4.2108477%" x2="67.5299368%" y2="121.355809%" id="linearGradient-2">
            <stop stop-color="#6B5CF7" offset="0%"></stop>
            <stop stop-color="#8CF9D4" offset="100%"></stop>
        </linearGradient>
        <linearGradient x1="4.20512307%" y1="64.0810354%" x2="209.514368%" y2="-36.0543231%" id="linearGradient-3">
            <stop stop-color="#6B5CF7" offset="0%"></stop>
            <stop stop-color="#000000" offset="100%"></stop>
        </linearGradient>
        <linearGradient x1="85.6965334%" y1="113.125847%" x2="3.07008914%" y2="14.6834174%" id="linearGradient-4">
            <stop stop-color="#83B4FF" offset="20.78%"></stop>
            <stop stop-color="#837DFF" offset="50.92%"></stop>
            <stop stop-color="#4D48C1" offset="100%"></stop>
        </linearGradient>
        <linearGradient x1="55.2899951%" y1="28.1690152%" x2="26.8145226%" y2="179.235462%" id="linearGradient-5">
            <stop stop-color="#8CF9D5" offset="0%"></stop>
            <stop stop-color="#1F95D5" offset="71.6%"></stop>
            <stop stop-color="#1F95D5" offset="100%"></stop>
        </linearGradient>
        <linearGradient x1="0.140559524%" y1="49.8017686%" x2="99.8564728%" y2="49.8017686%" id="linearGradient-6">
            <stop stop-color="#8CF9D5" offset="0%"></stop>
            <stop stop-color="#1F47D5" offset="100%"></stop>
        </linearGradient>
        <linearGradient x1="90.126724%" y1="119.027572%" x2="-58.7753627%" y2="-138.859799%" id="linearGradient-7">
            <stop stop-color="#6B5CF7" offset="0%"></stop>
            <stop stop-color="#000000" offset="100%"></stop>
        </linearGradient>
    </defs>
    <g id="h5分享" stroke="none" stroke-width="1" fill="none" fill-rule="evenodd" transform="translate(-59.000000, -332.000000)">
        <g id="Group" transform="translate(59.000000, 332.000000)" fill-rule="nonzero">
            <path d="M36,5.8598446 L32.0074627,9.04938026 C29.7313433,10.8666738 26.7835821,11.4229882 23.9477612,10.6812357 L23.9104478,10.6812357 C22.5671642,6.30489609 18.4626866,3.11536042 13.6119403,3.11536042 C10.6268657,3.11536042 7.94029851,4.30216439 6,6.26780846 C9.88059701,2.41069556 15.2537313,0 21.1865672,0 C26.9328358,-1.05409367e-14 32.1567164,2.22525744 36,5.8598446 Z" id="Shape" fill="url(#linearGradient-1)"></path>
            <ellipse id="Oval" fill="url(#linearGradient-2)" cx="36" cy="14.5" rx="3" ry="3.5"></ellipse>
            <path d="M13.7777778,3 C10.8148148,3 8.14814815,4.21518987 6.22222222,6.2278481 C2.51851852,9.98734177 0.185185185,15.1518987 0,20.8481013 C0,21.1139241 0,21.3797468 0,21.6455696 C0,25.1772152 0.814814815,28.4810127 2.25925926,31.443038 C3.07407407,33.1139241 4.07407407,34.6329114 5.25925926,36 C3.92592593,34.1772152 3.11111111,31.8987342 3.11111111,29.4303797 C3.11111111,26.3924051 4.2962963,23.6582278 6.25925926,21.6835443 C7.48148148,20.4683544 8.96296296,19.4810127 10.6296296,18.9873418 C11.8148148,14.0506329 16.1481481,10.4050633 21.2962963,10.4050633 C22.2222222,10.4050633 23.1111111,10.5189873 24,10.7468354 C22.6666667,6.26582278 18.5925926,3 13.7777778,3 Z" id="Shape" fill="url(#linearGradient-3)"></path>
            <path d="M28.8304297,39.9488372 C25.8943089,39.9488372 23.2183508,38.7581395 21.2857143,36.8232558 C20.0220674,35.5953488 19.0929152,34.0325581 18.57259,32.2837209 C18.2380952,32.2093023 17.9036005,32.0976744 17.5691057,31.9860465 C14.2984901,30.8325581 11.7711963,28.1534884 10.7305459,24.8418605 C10.6562137,24.655814 10.6190476,24.4697674 10.5818815,24.3209302 C10.5075494,23.9860465 10.4332172,23.6139535 10.358885,23.2790698 C10.2845528,22.7209302 10.2473868,22.1627907 10.2473868,21.6046512 C10.2473868,21.0837209 10.2845528,20.5255814 10.358885,20.0418605 C10.3960511,19.6697674 10.4703833,19.3348837 10.5447154,19 C8.87224158,19.5209302 7.34843206,20.4511628 6.15911731,21.6418605 C4.18931475,23.5767442 3,26.255814 3,29.2325581 C3,31.6511628 3.81765389,33.8837209 5.15563298,35.6697674 C5.82462253,36.4511628 6.56794425,37.1953488 7.34843206,37.8651163 C11.0650407,41.0651163 15.9337979,43 21.2485482,43 C26.4889663,43 31.2833914,41.1023256 35,37.9767442 C33.29036,39.2046512 31.1347271,39.9488372 28.8304297,39.9488372 Z" id="Shape" fill="url(#linearGradient-4)"></path>
            <path d="M39,30 C39,32.40625 38.2539964,34.6215278 36.9857904,36.4548611 C36.2397869,37.3715278 35.4191829,38.2118056 34.5239787,38.9756944 C34.5239787,38.9756944 34.5239787,38.9756944 34.5239787,38.9756944 C32.7708703,40.2743056 30.60746,41 28.294849,41 C25.348135,41 22.6625222,39.7777778 20.722913,37.7916667 C19.4547069,36.53125 18.5222025,34.9270833 18,33.1319444 C18.8579041,33.3611111 19.7904085,33.4756944 20.722913,33.4756944 C21.6554174,33.4756944 22.5879218,33.3611111 23.4458259,33.1319444 C23.7815275,33.0555556 24.1172291,32.9409722 24.4529307,32.8263889 C24.6394316,32.75 24.8632327,32.6736111 25.0870337,32.5590278 C25.0497336,32.5208333 25.0124334,32.4444444 24.9751332,32.40625 C27.3996448,31.8715278 29.2273535,29.65625 29.2273535,27.0208333 C29.2273535,23.9652778 26.8028419,21.5208333 23.8561279,21.5208333 C22.5133215,21.5208333 20.4991119,22.4756944 19.5293073,23.8125 C19.9023091,23.2777778 20.3499112,22.6666667 20.7975133,22.2083333 C22.7371226,20.2222222 25.4227353,19 28.3694494,19 C34.1882771,19 39,23.9270833 39,30 Z" id="Shape" fill="url(#linearGradient-5)"></path>
            <path d="M23.5,21 C21.7040816,21 20.0952381,21.8576271 19.122449,23.2 C19.122449,23.2 19.122449,23.2372881 19.085034,23.2372881 C19.0102041,23.3118644 18.9727891,23.3864407 18.8979592,23.4983051 C18.8605442,23.5728814 18.7857143,23.6474576 18.7857143,23.7220339 C18.7108844,23.8711864 18.5986395,24.020339 18.5238095,24.2067797 C18.1870748,24.9152542 18,25.6983051 18,26.5186441 C18,29.5389831 20.4693878,32 23.5,32 C23.8741497,32 24.2857143,31.9627119 24.6598639,31.8881356 C27.1292517,31.3661017 29,29.1661017 29,26.5559322 C28.962585,23.4610169 26.5306122,21 23.5,21 Z" id="Shape" fill="url(#linearGradient-6)"></path>
            <path d="M25.017341,25 C24.0115607,25 23.1445087,25.5632184 22.5895954,26.408046 C22.5895954,26.408046 22.5895954,26.408046 22.5895954,26.4482759 C22.5549133,26.4885057 22.5202312,26.5689655 22.4855491,26.6091954 C22.4508671,26.6494253 22.416185,26.6896552 22.416185,26.7298851 C22.3468208,26.8103448 22.3121387,26.9310345 22.2774566,27.0114943 C22.1040462,27.454023 22,27.9770115 22,28.5 C22,30.4310345 23.3526012,32 25.017341,32 C25.2254335,32 25.433526,31.9597701 25.6416185,31.9195402 C26.9942197,31.5977011 28,30.1896552 28,28.5 C28,26.5689655 26.6820809,25 25.017341,25 Z" id="Shape" fill="url(#linearGradient-7)"></path>
        </g>
    </g>
</svg>