<?xml version="1.0" encoding="UTF-8"?>
<svg width="44px" height="31px" viewBox="0 0 44 31" version="1.1" xmlns="http://www.w3.org/2000/svg" xmlns:xlink="http://www.w3.org/1999/xlink">
    <!-- Generator: Sketch 48.1 (47250) - http://www.bohemiancoding.com/sketch -->
    <title>thin 0069 a menu hambuger</title>
    <desc>Created with Sketch.</desc>
    <defs></defs>
    <g id="Artboard-2" stroke="none" stroke-width="1" fill="none" fill-rule="evenodd" transform="translate(-653.000000, -70.000000)">
        <g id="thin-0069-a-menu-hambuger" transform="translate(651.000000, 61.000000)">
            <g id="Group" transform="translate(2.000000, 9.000000)" fill="#FFFFFF" fill-rule="nonzero">
                <path d="M42.9512,2.9932 L1.0362,2.9932 C0.4834,2.9932 0.0362,2.546 0.0362,1.9932 C0.0362,1.4404 0.4834,0.9932 1.0362,0.9932 L42.9512,0.9932 C43.504,0.9932 43.9512,1.4404 43.9512,1.9932 C43.9512,2.546 43.504,2.9932 42.9512,2.9932 Z" id="Shape"></path>
                <path d="M42.9512,16.996 L1.0362,16.996 C0.4834,16.996 0.0362,16.5488 0.0362,15.996 C0.0362,15.4432 0.4834,14.996 1.0362,14.996 L42.9512,14.996 C43.504,14.996 43.9512,15.4432 43.9512,15.996 C43.9512,16.5488 43.504,16.996 42.9512,16.996 Z" id="Shape"></path>
                <path d="M42.9512,31 L1.0362,31 C0.4834,31 0.0362,30.5528 0.0362,30 C0.0362,29.4472 0.4834,29 1.0362,29 L42.9512,29 C43.504,29 43.9512,29.4472 43.9512,30 C43.9512,30.5528 43.504,31 42.9512,31 Z" id="Shape"></path>
            </g>
            <rect id="Rectangle-path" x="0" y="0" width="48" height="48"></rect>
        </g>
    </g>
</svg>