<?xml version="1.0" encoding="UTF-8"?>
<svg width="502px" height="502px" viewBox="0 0 502 502" version="1.1" xmlns="http://www.w3.org/2000/svg" xmlns:xlink="http://www.w3.org/1999/xlink">
    <!-- Generator: Sketch 49 (51002) - http://www.bohemiancoding.com/sketch -->
    <title>星球+圈</title>
    <desc>Created with Sketch.</desc>
    <defs>
        <linearGradient x1="75.9913738%" y1="-30.0690097%" x2="36.9551808%" y2="104.450621%" id="linearGradient-1">
            <stop stop-color="#3E4AA8" stop-opacity="0.55" offset="0%"></stop>
            <stop stop-color="#2EFA2C" offset="49.1948342%"></stop>
            <stop stop-color="#1CF8BF" stop-opacity="0.55" offset="100%"></stop>
        </linearGradient>
        <linearGradient x1="75.9913738%" y1="-30.0690097%" x2="36.9551808%" y2="104.450621%" id="linearGradient-2">
            <stop stop-color="#3E4AA8" stop-opacity="0.55" offset="0%"></stop>
            <stop stop-color="#2EFA2C" stop-opacity="0.4" offset="49.1948342%"></stop>
            <stop stop-color="#1CF8BF" stop-opacity="0.2" offset="100%"></stop>
        </linearGradient>
        <linearGradient x1="20.3326498%" y1="-27.0216987%" x2="78.9682153%" y2="125.254038%" id="linearGradient-3">
            <stop stop-color="#FFF100" offset="0%"></stop>
            <stop stop-color="#28A568" offset="57.63%"></stop>
            <stop stop-color="#0F1B5C" offset="100%"></stop>
        </linearGradient>
        <linearGradient x1="-14.950952%" y1="60.8092624%" x2="134.334485%" y2="38.4932523%" id="linearGradient-4">
            <stop stop-color="#FFF100" offset="0%"></stop>
            <stop stop-color="#28A568" offset="57.63%"></stop>
            <stop stop-color="#0F1B5C" offset="100%"></stop>
        </linearGradient>
        <linearGradient x1="-61.738604%" y1="29.262024%" x2="158.674217%" y2="68.2699399%" id="linearGradient-5">
            <stop stop-color="#FFF100" offset="0%"></stop>
            <stop stop-color="#28A568" offset="57.63%"></stop>
            <stop stop-color="#0F1B5C" offset="100%"></stop>
        </linearGradient>
        <linearGradient x1="-0.00813443741%" y1="50.0208297%" x2="135.53434%" y2="50.0208297%" id="linearGradient-6">
            <stop stop-color="#FFF100" offset="0%"></stop>
            <stop stop-color="#28A568" offset="57.63%"></stop>
            <stop stop-color="#0F1B5C" offset="100%"></stop>
        </linearGradient>
        <linearGradient x1="-24.7180479%" y1="90.959141%" x2="104.904834%" y2="14.4112885%" id="linearGradient-7">
            <stop stop-color="#FFF100" offset="0%"></stop>
            <stop stop-color="#28A568" offset="57.63%"></stop>
            <stop stop-color="#0F1B5C" offset="100%"></stop>
        </linearGradient>
        <path d="M179.554375,69.6006669 C179.554375,69.6006669 175.4025,75.6842504 173.298125,78.6976142 C161.809375,78.7544701 328.51,163.64036 328.51,163.64036 C328.51,163.64036 331.524375,156.192234 332.206875,154.259133 C332.889375,152.326032 430.600625,166.4263 430.600625,166.4263 C430.600625,166.4263 455.79625,230.332355 454.88625,234.99454 C453.97625,239.656726 445.388125,273.485999 442.4875,277.011066 C439.64375,280.592989 311.675,281.957531 304.05375,280.251853 C296.4325,278.546175 66.54375,149.028388 66.54375,149.028388 L0.11375,26.7881586 L116.48,0.00901992325 L179.554375,69.6006669 Z" id="path-8"></path>
        <linearGradient x1="-22.7756695%" y1="-1.86734861%" x2="141.615366%" y2="115.282049%" id="linearGradient-10">
            <stop stop-color="#39AC17" offset="0%"></stop>
            <stop stop-color="#FFF100" offset="45.62%"></stop>
            <stop stop-color="#616FFF" offset="100%"></stop>
        </linearGradient>
    </defs>
    <g id="Page-1" stroke="none" stroke-width="1" fill="none" fill-rule="evenodd">
        <g id="Artboard" transform="translate(-283.000000, -892.000000)">
            <g id="What-is-Crypto-Galaxy" transform="translate(266.000000, 930.000000)">
                <g id="星球+圈" transform="translate(17.000000, -38.000000)">
                    <circle id="Oval" stroke="url(#linearGradient-1)" cx="250.5" cy="250.5" r="86.5"></circle>
                    <circle id="Oval" stroke="url(#linearGradient-1)" cx="251.5" cy="251.5" r="126"></circle>
                    <circle id="Oval" stroke="url(#linearGradient-1)" cx="250" cy="250" r="181.5"></circle>
                    <circle id="Oval" stroke="url(#linearGradient-2)" cx="251" cy="251" r="250.5"></circle>
                    <g id="星球" transform="translate(3.000000, 126.000000)">
                        <g id="Group" transform="translate(158.000000, 37.000000)" fill-rule="nonzero">
                            <path d="M176.612829,88.6319533 C176.612829,89.5934997 176.612829,90.5550461 176.556243,91.4600309 C176.103551,106.448842 171.859565,120.476108 164.842842,132.636841 C163.59794,134.729619 162.296451,136.822396 160.938375,138.802051 C160.655443,139.254543 160.315924,139.707035 159.976405,140.102966 C159.919819,140.216089 159.806646,140.329213 159.750059,140.442336 C159.5803,140.668582 159.410541,140.95139 159.184195,141.177636 C158.335398,142.308867 157.4866,143.383536 156.637803,144.458206 C155.223141,146.155053 153.751893,147.851899 152.224058,149.435623 C144.019019,158.032979 134.059799,164.99005 122.96885,169.74122 C121.327842,170.47652 119.630248,171.098697 117.932654,171.720874 C108.652472,175.001444 98.6932517,176.811414 88.3379266,176.811414 C82.1700007,176.811414 76.1718342,176.189237 70.3434272,175.001444 C53.5372438,171.55119 38.4852411,163.293203 26.6586676,151.754646 L26.6586676,151.754646 C25.8098705,150.962784 25.0176598,150.114361 24.2254492,149.322499 C9.23003299,133.485265 0.00643737607,112.104998 0.00643737607,88.5753917 C0.00643737607,84.3332753 0.289369757,80.2042819 0.855234518,76.1318501 C0.96840747,75.4531115 1.08158042,74.7743728 1.1381669,74.0956342 C1.98696404,68.8919713 3.28845299,63.8579931 5.04263375,59.0502611 C7.75878461,51.4144515 11.493492,44.2311343 16.0769966,37.7265557 C17.6048315,35.5772167 19.1892528,33.5410008 20.8302606,31.5613465 C24.564968,27.1495454 28.6957808,23.1902367 33.1661124,19.5702973 C39.9564895,14.1403882 47.5390773,9.72858709 55.7441164,6.44801702 C55.9704623,6.33489392 56.1968082,6.27833236 56.3665676,6.22177081 L56.3665676,6.22177081 C56.5929135,6.16520926 56.8192594,6.05208615 56.9890188,5.9955246 C66.6653063,2.31902367 77.1903908,0.339369317 88.2247537,0.339369317 C133.154416,0.339369317 170.218558,33.8803701 175.820619,77.2630812 C176.046965,78.8468046 176.160138,80.4305281 176.329897,82.0142516 C176.556243,84.2201522 176.612829,86.4260527 176.612829,88.6319533 Z" id="Shape" fill="url(#linearGradient-3)"></path>
                            <path d="M176.612829,88.6319533 C176.612829,89.5934997 176.612829,90.5550461 176.556243,91.4600309 C176.103551,106.448842 171.859565,120.476108 164.842842,132.636841 C163.59794,134.729619 162.296451,136.822396 160.938375,138.802051 C160.372511,139.593912 159.806646,140.442336 159.184195,141.234197 C148.149832,130.430941 134.003213,118.722699 121.384429,114.989637 C95.9771009,107.523512 35.4861579,73.3037725 25.0742463,56.787799 C21.9619901,51.8669439 18.9063204,44.9664345 16.1335831,37.7831173 C20.9434335,30.9391694 26.7152541,24.8305217 33.2226989,19.6268588 C40.013076,14.1969498 47.5956638,9.78514864 55.8007028,6.50457857 C56.0270487,6.39145547 56.2533946,6.33489392 56.4231541,6.27833236 L56.4231541,6.27833236 C66.0994415,12.896034 77.9826015,18.5521893 83.980768,27.4889147 C100.617192,52.1497517 148.942043,63.5186238 171.350287,74.7178113 C172.934708,75.509673 174.405957,76.3580963 175.820619,77.2630812 C176.046965,78.8468046 176.160138,80.4305281 176.329897,82.0142516 C176.556243,84.2201522 176.612829,86.4260527 176.612829,88.6319533 Z" id="Shape" fill="url(#linearGradient-4)"></path>
                            <path d="M159.750059,140.555459 C159.5803,140.781705 159.410541,141.064513 159.184195,141.290759 C158.335398,142.42199 157.4866,143.49666 156.637803,144.571329 C140.906763,135.012427 112.896457,128.281602 100.221087,128.281602 C86.8100918,128.281602 30.4499615,115.611814 0.855234518,76.2449732 C1.70403166,70.3625717 3.11869356,64.6498549 5.04263375,59.1633843 C7.75878461,51.5275746 11.493492,44.3442574 16.0769966,37.8396788 C17.6048315,35.6903398 19.1892528,33.6541239 20.8302606,31.6744696 C24.3386221,44.0048881 34.9768796,68.7788482 64.3452607,76.018727 C99.5420489,84.616083 145.207335,115.10276 159.750059,140.555459 Z" id="Shape" fill="url(#linearGradient-5)"></path>
                            <path d="M160.032992,140.216089 C159.976405,140.329213 159.863232,140.442336 159.806646,140.555459 C159.636887,140.781705 159.467127,141.064513 159.240781,141.290759 C158.391984,142.42199 157.543187,143.49666 156.69439,144.571329 C155.279728,146.268176 153.808479,147.965022 152.280645,149.548746 C142.830703,159.447017 131.117303,167.19595 117.932654,171.833997 C104.917764,163.18008 76.2284207,143.49666 64.5716066,131.901541 C49.6327769,116.969291 44.0307158,108.089127 43.8609564,107.749758 C44.3136482,108.145689 59.9315156,120.249861 99.5986354,125.170716 C127.382595,128.620971 147.8669,133.711511 160.032992,140.216089 Z" id="Shape" fill="url(#linearGradient-6)"></path>
                            <path d="M122.96885,169.854343 C121.327842,170.589643 119.630248,171.21182 117.932654,171.833997 C108.652472,175.114568 98.6932517,176.924537 88.3379266,176.924537 C82.1700007,176.924537 76.1718342,176.30236 70.3434272,175.114568 C67.344344,170.024028 61.8554558,163.632572 52.5752737,161.539795 C45.6717236,159.956071 35.9388497,156.392694 26.7152541,151.867769 L26.7152541,151.867769 C25.866457,151.075908 25.0742463,150.227484 24.2820356,149.435623 C9.28661946,133.598388 0.0630238522,112.218121 0.0630238522,88.6885148 C0.0630238522,84.4463984 0.345956233,80.317405 0.911820994,76.2449732 C1.02499395,75.5662346 1.1381669,74.8874959 1.19475337,74.2087573 C5.77825794,80.317405 13.3042593,87.7269684 23.9425168,90.6116076 C43.3516781,95.8152705 56.7060865,115.724937 71.7580891,132.919649 C82.7358655,145.419752 106.162667,161.030741 122.96885,169.854343 Z" id="Shape" fill="url(#linearGradient-7)"></path>
                        </g>
                        <g id="Clipped">
                            <mask id="mask-9" fill="white">
                                <use xlink:href="#path-8"></use>
                            </mask>
                            <g id="SVGID_6_"></g>
                            <path d="M260.885625,114.687412 C160.785625,58.6843301 72.345,26.3901671 63.301875,42.5941045 C54.25875,58.7980419 127.96875,117.245928 228.06875,173.305866 C328.16875,229.365804 416.609375,261.603111 425.6525,245.399174 C434.695625,229.195236 360.92875,170.690494 260.885625,114.687412 Z M230.57125,168.757393 C147.021875,122.021826 85.65375,72.7845984 93.445625,58.7980419 C101.294375,44.8114854 175.345625,71.4200563 258.895,118.155623 C342.444375,164.948046 403.869375,214.185273 396.020625,228.17183 C388.171875,242.10153 314.120625,215.549815 230.57125,168.757393 Z" id="Shape" fill="url(#linearGradient-10)" fill-rule="nonzero" mask="url(#mask-9)"></path>
                        </g>
                    </g>
                </g>
            </g>
        </g>
    </g>
</svg>